<svg width="206" height="78" viewBox="0 0 206 78" fill="none" xmlns="http://www.w3.org/2000/svg">
<path fill-rule="evenodd" clip-rule="evenodd" d="M119.885 53.5417C119.675 53.7803 119.547 54.0933 119.547 54.435C119.56 55.1879 119.652 55.9391 119.66 56.692C119.677 57.3924 119.467 58.0505 119.212 58.6917C119.126 58.8694 119.034 59.0436 118.941 59.2179L118.67 59.1621C118.425 59.113 118.266 58.8761 118.315 58.6325C118.359 58.4177 118.547 58.2705 118.757 58.2688L118.855 58.2789L118.635 56.4416C118.562 55.6227 118.141 54.9037 117.518 54.435C117.41 54.3555 117.297 54.2828 117.178 54.2168V60.7507H118.687C118.801 61.3631 119.137 61.8961 119.611 62.2632C119.724 62.3393 119.818 62.4425 119.885 62.5627C119.953 62.4425 120.046 62.3393 120.159 62.2632C120.633 61.8961 120.97 61.3631 121.083 60.7507H122.592V54.2168C122.474 54.2828 122.36 54.3555 122.252 54.435C121.629 54.9037 121.208 55.6227 121.135 56.4416L120.916 58.2789L121.014 58.2688C121.223 58.2705 121.411 58.4177 121.455 58.6325C121.504 58.8761 121.345 59.113 121.1 59.1621L120.829 59.2179C120.736 59.0436 120.645 58.8694 120.559 58.6917C120.303 58.0505 120.093 57.3924 120.11 56.692C120.119 55.9391 120.21 55.1879 120.224 54.435C120.224 54.0933 120.095 53.7803 119.885 53.5417H119.885ZM117.63 55.1592C117.923 55.5009 118.119 55.9273 118.176 56.3976L118.357 57.9152C118.127 58.0302 117.951 58.24 117.885 58.4938H117.63V55.1592V55.1592ZM122.14 55.1592V58.4938H121.885C121.819 58.24 121.643 58.0302 121.413 57.9152L121.594 56.3976C121.651 55.9273 121.848 55.5009 122.14 55.1592V55.1592ZM119.885 58.2079C120.005 58.6038 120.173 58.9793 120.379 59.3296C120.183 59.3905 120.01 59.5072 119.885 59.6629C119.76 59.5055 119.587 59.3905 119.391 59.3296C119.598 58.9793 119.765 58.6038 119.885 58.2079ZM117.63 58.9455H117.885C117.967 59.2568 118.209 59.5038 118.518 59.5884L118.735 59.6392C118.677 59.849 118.645 60.0706 118.645 60.299H117.63V58.9455L117.63 58.9455ZM121.885 58.9455H122.14V60.299H121.125C121.125 60.0706 121.093 59.849 121.036 59.6392L121.252 59.5884C121.56 59.5038 121.804 59.2568 121.885 58.9455L121.885 58.9455ZM119.176 59.7424C119.449 59.7813 119.66 60.0148 119.66 60.299H119.097C119.097 60.1061 119.126 59.92 119.176 59.7424ZM120.594 59.7424C120.645 59.92 120.674 60.1061 120.674 60.299H120.11C120.11 60.0148 120.322 59.7813 120.594 59.7424ZM119.148 60.7507H119.66V61.6998C119.411 61.4393 119.23 61.1128 119.148 60.7507ZM120.11 60.7507H120.623C120.54 61.1128 120.359 61.4393 120.11 61.6998V60.7507Z" fill="#FCA800"/>
<path d="M130.562 56.507V55.8241H129.411V54.0827H128.785V55.8241H127.127V54.0827H126.501V55.8241H125.351V56.507H126.501V58.146H125.351V58.8289H126.501V60.5703H127.127V58.8289H128.785V60.5703H129.411V58.8289H130.562V58.146H129.411V56.507H130.562ZM128.785 58.146H127.127V56.507H128.785V58.146Z" fill="white"/>
<path d="M133.37 60.6557C134.537 60.6557 135.316 60.0581 135.316 59.1704C135.316 58.4362 134.825 58.0265 133.505 57.6338C132.49 57.3436 132.203 57.1387 132.203 56.7289C132.203 56.268 132.676 55.9777 133.37 55.9777C133.878 55.9777 134.385 56.1655 134.774 56.5411L135.197 56.0119C134.69 55.5851 134.064 55.3631 133.387 55.3631C132.321 55.3631 131.543 55.9436 131.543 56.7631C131.543 57.4972 132 57.907 133.302 58.2655C134.317 58.5557 134.656 58.7948 134.656 59.2386C134.656 59.7338 134.165 60.0411 133.37 60.0411C132.71 60.0411 132.152 59.802 131.729 59.3582L131.306 59.8362C131.831 60.3655 132.558 60.6557 133.37 60.6557Z" fill="white"/>
<path d="M139.156 56.046V55.4485H137.498V54.0827H136.923L136.821 55.4485H135.823V56.046H136.821V59.324C136.821 60.1776 137.295 60.6557 138.192 60.6557C138.496 60.6557 138.817 60.6215 139.156 60.5362V59.9045C138.801 60.0069 138.547 60.024 138.276 60.024C137.735 60.024 137.498 59.8191 137.498 59.2386V56.046H139.156Z" fill="white"/>
<path d="M144.282 59.9728C144.045 59.9728 143.944 59.8703 143.944 59.6142V57.0192C143.944 55.9777 143.233 55.3631 142.083 55.3631C141.237 55.3631 140.509 55.6875 139.968 56.2851L140.425 56.7289C140.848 56.2338 141.423 55.9607 142.066 55.9607C142.793 55.9607 143.284 56.3192 143.284 56.8485C143.284 57.3265 142.793 57.4119 141.998 57.5655C141.017 57.7362 139.866 57.9753 139.866 59.2045C139.866 60.0752 140.509 60.6557 141.49 60.6557C142.286 60.6557 142.996 60.2801 143.351 59.7338C143.385 60.3655 143.622 60.6045 144.231 60.6045C144.316 60.6045 144.451 60.5874 144.468 60.5703V59.9728H144.282ZM141.541 60.0581C140.915 60.0581 140.543 59.7508 140.543 59.1874C140.543 58.385 141.321 58.2314 142.083 58.0948C142.641 58.0094 143.047 57.924 143.301 57.7192V58.5899C143.301 59.4094 142.506 60.0581 141.541 60.0581Z" fill="white"/>
<path d="M149.171 55.4485L147.53 60.1435L145.568 55.4485H144.823L147.192 60.9801C147.006 61.4069 146.752 61.7313 146.397 61.7313C145.872 61.7313 145.771 61.2703 145.804 60.8776L145.195 60.9801C145.162 61.7825 145.568 62.363 146.38 62.363C147.175 62.363 147.632 61.6459 147.885 60.9289L149.882 55.4485H149.171Z" fill="white"/>
<path d="M156.869 55.4485L155.566 59.7508L154.246 55.4485H153.553L152.25 59.7338L150.947 55.4485H150.254L151.878 60.5703H152.605L153.891 56.3363L155.194 60.5703H155.921L157.528 55.4485H156.869Z" fill="white"/>
<path d="M158.713 54.6119H159.491V53.8266H158.713V54.6119ZM158.78 60.5703H159.457V55.4485H158.78V60.5703Z" fill="white"/>
<path d="M164.025 56.046V55.4485H162.367V54.0827H161.792L161.69 55.4485H160.692V56.046H161.69V59.324C161.69 60.1776 162.164 60.6557 163.06 60.6557C163.365 60.6557 163.686 60.6215 164.025 60.5362V59.9045C163.669 60.0069 163.416 60.024 163.145 60.024C162.604 60.024 162.367 59.8191 162.367 59.2386V56.046H164.025Z" fill="white"/>
<path d="M167.865 55.3631C167.104 55.3631 166.444 55.7046 166.072 56.2509V53.7412H165.395V60.5703H166.072V57.5826C166.072 56.6777 166.799 55.9607 167.713 55.9607C168.559 55.9607 169.1 56.5241 169.1 57.5997V60.5703H169.777V57.4119C169.777 56.1314 168.999 55.3631 167.865 55.3631Z" fill="white"/>
<path d="M175.106 55.4485V58.4362C175.106 59.3411 174.378 60.0581 173.465 60.0581C172.619 60.0581 172.078 59.4947 172.078 58.4192V55.4485H171.401V58.607C171.401 59.8874 172.179 60.6557 173.296 60.6557C174.108 60.6557 174.784 60.2801 175.157 59.6825L175.224 60.5703H175.782V55.4485H175.106Z" fill="white"/>
<path d="M181.061 60.5703H181.907L179.538 57.5484L181.788 55.4485H180.925L178.252 57.9753V53.7412H177.576V60.5703H178.252V58.7606L179.048 58.0094L181.061 60.5703Z" fill="white"/>
<path d="M185.341 55.3631C184.529 55.3631 183.852 55.7387 183.48 56.3192L183.412 55.4485H182.854V60.5703H183.531V57.6338C183.531 56.6948 184.224 56.029 185.155 56.029C185.307 56.029 185.51 56.046 185.679 56.0631V55.3973C185.561 55.3802 185.442 55.3631 185.341 55.3631Z" fill="white"/>
<path d="M190.433 59.9728C190.196 59.9728 190.095 59.8703 190.095 59.6142V57.0192C190.095 55.9777 189.384 55.3631 188.234 55.3631C187.388 55.3631 186.66 55.6875 186.119 56.2851L186.576 56.7289C186.999 56.2338 187.574 55.9607 188.217 55.9607C188.944 55.9607 189.435 56.3192 189.435 56.8485C189.435 57.3265 188.944 57.4119 188.149 57.5655C187.168 57.7362 186.018 57.9753 186.018 59.2045C186.018 60.0752 186.66 60.6557 187.642 60.6557C188.437 60.6557 189.147 60.2801 189.503 59.7338C189.536 60.3655 189.773 60.6045 190.382 60.6045C190.467 60.6045 190.602 60.5874 190.619 60.5703V59.9728H190.433ZM187.692 60.0581C187.067 60.0581 186.694 59.7508 186.694 59.1874C186.694 58.385 187.473 58.2314 188.234 58.0948C188.792 58.0094 189.198 57.924 189.452 57.7192V58.5899C189.452 59.4094 188.657 60.0581 187.692 60.0581Z" fill="white"/>
<path d="M191.905 54.6119H192.683V53.8266H191.905V54.6119ZM191.973 60.5703H192.649V55.4485H191.973V60.5703Z" fill="white"/>
<path d="M196.997 55.3631C196.185 55.3631 195.508 55.7387 195.136 56.3363L195.069 55.4485H194.51V60.5703H195.187V57.5826C195.187 56.6777 195.914 55.9607 196.828 55.9607C197.674 55.9607 198.215 56.5241 198.215 57.5997V60.5703H198.892V57.4119C198.892 56.1314 198.114 55.3631 196.997 55.3631Z" fill="white"/>
<path d="M200.888 58.2484H204.999C205.016 58.1631 205.016 58.0948 205.016 58.0094C205.016 56.4046 204.086 55.3631 202.648 55.3631C201.227 55.3631 200.195 56.4558 200.195 58.0094C200.195 59.5289 201.125 60.6557 202.766 60.6557C203.764 60.6557 204.492 60.1947 204.881 59.7167L204.39 59.2899C204.069 59.7338 203.51 60.0411 202.749 60.0411C201.666 60.0411 200.973 59.3582 200.888 58.2484ZM202.648 55.9607C203.595 55.9607 204.221 56.6094 204.322 57.685H200.888C201.007 56.6436 201.683 55.9607 202.648 55.9607Z" fill="white"/>
<path d="M68.1609 31.2217H64.2783V28.9358H74.8515V31.2217H70.9689V41.0579H68.1609V31.2217Z" fill="white"/>
<path d="M81.8396 31.6027C82.9951 31.6027 83.9253 31.949 84.6302 32.6417C85.3467 33.3344 85.7049 34.3619 85.7049 35.7242V41.0579H83.0009V36.1398C83.0009 35.4009 82.8391 34.8525 82.5156 34.4946C82.192 34.1252 81.724 33.9405 81.1116 33.9405C80.4298 33.9405 79.8867 34.1541 79.4823 34.5812C79.0778 34.9968 78.8756 35.6203 78.8756 36.4515V41.0579H76.1717V28.2085H78.8756V32.711C79.2338 32.3531 79.6672 32.0818 80.1756 31.8971C80.684 31.7008 81.2387 31.6027 81.8396 31.6027Z" fill="white"/>
<path d="M97.392 36.4342C97.392 36.4688 97.3746 36.7112 97.34 37.1615H90.2854C90.4125 37.7387 90.713 38.1947 91.1867 38.5295C91.6605 38.8643 92.2498 39.0317 92.9547 39.0317C93.44 39.0317 93.8676 38.9625 94.2374 38.8239C94.6187 38.6739 94.9711 38.443 95.2947 38.1313L96.7333 39.6898C95.8551 40.6942 94.5725 41.1964 92.8854 41.1964C91.8338 41.1964 90.9036 40.9944 90.0947 40.5903C89.2859 40.1747 88.6619 39.6032 88.2228 38.8759C87.7837 38.1486 87.5641 37.3231 87.5641 36.3995C87.5641 35.4875 87.7779 34.6678 88.2054 33.9405C88.6445 33.2016 89.2396 32.6302 89.9907 32.2261C90.7534 31.8105 91.6027 31.6027 92.5387 31.6027C93.4516 31.6027 94.2778 31.7989 95.0173 32.1915C95.7569 32.584 96.3347 33.1497 96.7507 33.8885C97.1782 34.6159 97.392 35.4644 97.392 36.4342ZM92.556 33.6461C91.9436 33.6461 91.4294 33.8193 91.0134 34.1656C90.5974 34.512 90.3432 34.9853 90.2507 35.5856H94.844C94.7516 34.9968 94.4974 34.5293 94.0814 34.1829C93.6654 33.825 93.1569 33.6461 92.556 33.6461Z" fill="white"/>
<path d="M109.682 41.2657C107.949 41.2657 106.597 40.7866 105.626 39.8283C104.667 38.8701 104.188 37.5021 104.188 35.7242V28.9358H106.996V35.6203C106.996 37.7907 107.897 38.8759 109.7 38.8759C110.578 38.8759 111.248 38.6161 111.71 38.0966C112.172 37.5656 112.404 36.7401 112.404 35.6203V28.9358H115.177V35.7242C115.177 37.5021 114.691 38.8701 113.721 39.8283C112.762 40.7866 111.416 41.2657 109.682 41.2657Z" fill="white"/>
<path d="M123.273 31.6027C124.14 31.6027 124.925 31.8047 125.63 32.2088C126.347 32.6013 126.907 33.1612 127.311 33.8885C127.716 34.6043 127.918 35.4413 127.918 36.3995C127.918 37.3577 127.716 38.2005 127.311 38.9278C126.907 39.6436 126.347 40.2035 125.63 40.6076C124.925 41.0001 124.14 41.1964 123.273 41.1964C122.083 41.1964 121.147 40.8212 120.465 40.0708V44.4174H117.761V31.7412H120.344V32.8149C121.014 32.0067 121.99 31.6027 123.273 31.6027ZM122.805 38.9798C123.498 38.9798 124.064 38.7489 124.504 38.2871C124.954 37.8138 125.18 37.1846 125.18 36.3995C125.18 35.6145 124.954 34.9911 124.504 34.5293C124.064 34.0559 123.498 33.8193 122.805 33.8193C122.112 33.8193 121.54 34.0559 121.089 34.5293C120.65 34.9911 120.43 35.6145 120.43 36.3995C120.43 37.1846 120.65 37.8138 121.089 38.2871C121.54 38.7489 122.112 38.9798 122.805 38.9798Z" fill="white"/>
<path d="M135.24 31.6027C136.107 31.6027 136.893 31.8047 137.597 32.2088C138.314 32.6013 138.874 33.1612 139.279 33.8885C139.683 34.6043 139.885 35.4413 139.885 36.3995C139.885 37.3577 139.683 38.2005 139.279 38.9278C138.874 39.6436 138.314 40.2035 137.597 40.6076C136.893 41.0001 136.107 41.1964 135.24 41.1964C134.05 41.1964 133.114 40.8212 132.432 40.0708V44.4174H129.728V31.7412H132.311V32.8149C132.981 32.0067 133.957 31.6027 135.24 31.6027ZM134.772 38.9798C135.465 38.9798 136.032 38.7489 136.471 38.2871C136.921 37.8138 137.147 37.1846 137.147 36.3995C137.147 35.6145 136.921 34.9911 136.471 34.5293C136.032 34.0559 135.465 33.8193 134.772 33.8193C134.079 33.8193 133.507 34.0559 133.056 34.5293C132.617 34.9911 132.398 35.6145 132.398 36.3995C132.398 37.1846 132.617 37.8138 133.056 38.2871C133.507 38.7489 134.079 38.9798 134.772 38.9798Z" fill="white"/>
<path d="M150.83 36.4342C150.83 36.4688 150.813 36.7112 150.778 37.1615H143.723C143.851 37.7387 144.151 38.1947 144.625 38.5295C145.099 38.8643 145.688 39.0317 146.393 39.0317C146.878 39.0317 147.306 38.9625 147.675 38.8239C148.057 38.6739 148.409 38.443 148.733 38.1313L150.171 39.6898C149.293 40.6942 148.011 41.1964 146.323 41.1964C145.272 41.1964 144.342 40.9944 143.533 40.5903C142.724 40.1747 142.1 39.6032 141.661 38.8759C141.222 38.1486 141.002 37.3231 141.002 36.3995C141.002 35.4875 141.216 34.6678 141.644 33.9405C142.083 33.2016 142.678 32.6302 143.429 32.2261C144.191 31.8105 145.041 31.6027 145.977 31.6027C146.89 31.6027 147.716 31.7989 148.455 32.1915C149.195 32.584 149.773 33.1497 150.189 33.8885C150.616 34.6159 150.83 35.4644 150.83 36.4342ZM145.994 33.6461C145.382 33.6461 144.867 33.8193 144.451 34.1656C144.035 34.512 143.781 34.9853 143.689 35.5856H148.282C148.19 34.9968 147.935 34.5293 147.519 34.1829C147.103 33.825 146.595 33.6461 145.994 33.6461Z" fill="white"/>
<path d="M155.213 32.9707C155.536 32.5205 155.97 32.1799 156.513 31.949C157.068 31.7181 157.703 31.6027 158.42 31.6027V34.0963C158.119 34.0733 157.917 34.0617 157.813 34.0617C157.039 34.0617 156.432 34.2811 155.993 34.7198C155.554 35.1469 155.334 35.7934 155.334 36.6593V41.0579H152.63V31.7412H155.213V32.9707Z" fill="white"/>
<path d="M165.754 41.2657C164.517 41.2657 163.396 41.0001 162.391 40.4691C161.397 39.9265 160.612 39.1818 160.034 38.2352C159.468 37.2769 159.184 36.1975 159.184 34.9968C159.184 33.7962 159.468 32.7225 160.034 31.7758C160.612 30.8176 161.397 30.073 162.391 29.5419C163.396 28.9993 164.523 28.728 165.771 28.728C166.823 28.728 167.77 28.9127 168.614 29.2822C169.469 29.6516 170.185 30.1827 170.763 30.8753L168.96 32.5378C168.14 31.5911 167.123 31.1178 165.91 31.1178C165.159 31.1178 164.488 31.2852 163.899 31.62C163.31 31.9432 162.848 32.3993 162.512 32.988C162.189 33.5768 162.027 34.2464 162.027 34.9968C162.027 35.7473 162.189 36.4168 162.512 37.0056C162.848 37.5944 163.31 38.0562 163.899 38.391C164.488 38.7143 165.159 38.8759 165.91 38.8759C167.123 38.8759 168.14 38.3968 168.96 37.4386L170.763 39.101C170.185 39.8052 169.469 40.3421 168.614 40.7115C167.759 41.0809 166.805 41.2657 165.754 41.2657Z" fill="white"/>
<path d="M176.584 41.1964C175.602 41.1964 174.718 40.9944 173.932 40.5903C173.158 40.1747 172.551 39.6032 172.112 38.8759C171.673 38.1486 171.454 37.3231 171.454 36.3995C171.454 35.4759 171.673 34.6505 172.112 33.9232C172.551 33.1959 173.158 32.6302 173.932 32.2261C174.718 31.8105 175.602 31.6027 176.584 31.6027C177.566 31.6027 178.445 31.8105 179.219 32.2261C179.993 32.6302 180.6 33.1959 181.039 33.9232C181.478 34.6505 181.697 35.4759 181.697 36.3995C181.697 37.3231 181.478 38.1486 181.039 38.8759C180.6 39.6032 179.993 40.1747 179.219 40.5903C178.445 40.9944 177.566 41.1964 176.584 41.1964ZM176.584 38.9798C177.278 38.9798 177.844 38.7489 178.283 38.2871C178.733 37.8138 178.959 37.1846 178.959 36.3995C178.959 35.6145 178.733 34.9911 178.283 34.5293C177.844 34.0559 177.278 33.8193 176.584 33.8193C175.891 33.8193 175.319 34.0559 174.868 34.5293C174.418 34.9911 174.192 35.6145 174.192 36.3995C174.192 37.1846 174.418 37.8138 174.868 38.2871C175.319 38.7489 175.891 38.9798 176.584 38.9798Z" fill="white"/>
<path d="M193.003 28.2085V41.0579H190.421V39.9842C189.751 40.7923 188.78 41.1964 187.509 41.1964C186.631 41.1964 185.833 41.0001 185.117 40.6076C184.412 40.2151 183.857 39.6552 183.453 38.9278C183.048 38.2005 182.846 37.3577 182.846 36.3995C182.846 35.4413 183.048 34.5985 183.453 33.8712C183.857 33.1439 184.412 32.584 185.117 32.1915C185.833 31.7989 186.631 31.6027 187.509 31.6027C188.699 31.6027 189.629 31.9779 190.299 32.7283V28.2085H193.003ZM187.977 38.9798C188.659 38.9798 189.225 38.7489 189.675 38.2871C190.126 37.8138 190.351 37.1846 190.351 36.3995C190.351 35.6145 190.126 34.9911 189.675 34.5293C189.225 34.0559 188.659 33.8193 187.977 33.8193C187.283 33.8193 186.711 34.0559 186.261 34.5293C185.81 34.9911 185.585 35.6145 185.585 36.3995C185.585 37.1846 185.81 37.8138 186.261 38.2871C186.711 38.7489 187.283 38.9798 187.977 38.9798Z" fill="white"/>
<path d="M204.641 36.4342C204.641 36.4688 204.623 36.7112 204.589 37.1615H197.534C197.661 37.7387 197.961 38.1947 198.435 38.5295C198.909 38.8643 199.498 39.0317 200.203 39.0317C200.689 39.0317 201.116 38.9625 201.486 38.8239C201.867 38.6739 202.22 38.443 202.543 38.1313L203.982 39.6898C203.104 40.6942 201.821 41.1964 200.134 41.1964C199.082 41.1964 198.152 40.9944 197.343 40.5903C196.534 40.1747 195.91 39.6032 195.471 38.8759C195.032 38.1486 194.813 37.3231 194.813 36.3995C194.813 35.4875 195.026 34.6678 195.454 33.9405C195.893 33.2016 196.488 32.6302 197.239 32.2261C198.002 31.8105 198.851 31.6027 199.787 31.6027C200.7 31.6027 201.526 31.7989 202.266 32.1915C203.005 32.584 203.583 33.1497 203.999 33.8885C204.427 34.6159 204.641 35.4644 204.641 36.4342ZM199.805 33.6461C199.192 33.6461 198.678 33.8193 198.262 34.1656C197.846 34.512 197.592 34.9853 197.499 35.5856H202.093C202 34.9968 201.746 34.5293 201.33 34.1829C200.914 33.825 200.405 33.6461 199.805 33.6461Z" fill="white"/>
<path fill-rule="evenodd" clip-rule="evenodd" d="M50.1067 22.7261C50.1067 24.325 51.4316 25.6158 53.0732 25.6158C53.627 25.6158 54.062 25.9624 54.062 26.5019V34.6572C54.062 42.9218 48.6235 50.1716 40.5152 52.599C40.4162 52.6183 40.3174 52.6376 40.2185 52.6376C40.1196 52.6376 40.0208 52.6183 39.9218 52.599C31.8135 50.1716 26.375 42.9217 26.375 34.6572V26.5019C26.375 25.9624 26.81 25.6158 27.3638 25.6158C29.0053 25.6158 30.3303 24.325 30.3303 22.7261C30.3303 22.4563 30.2907 22.2059 30.2314 21.9554C30.1522 21.705 30.1918 21.4352 30.3303 21.2041C30.4687 20.973 30.6863 20.819 30.9631 20.7611C33.9889 20.0868 37.0937 19.7593 40.2185 19.7593C43.3432 19.7593 46.4481 20.0868 49.4738 20.7611C49.7507 20.8189 49.9682 20.973 50.1067 21.2041C50.2452 21.4352 50.2847 21.705 50.2056 21.9554C50.1463 22.2059 50.1067 22.4564 50.1067 22.7261ZM40.2185 22.3549C42.8897 22.3549 45.5408 22.6411 48.1214 23.2289L48.1213 23.2291L48.1142 23.2596C48.0527 23.5255 48.0054 23.8178 48.0054 24.1442C48.0054 26.0558 49.5553 27.595 51.4663 27.595V34.8195C51.4663 41.8217 46.9722 47.9601 40.2665 50.0324L40.2541 50.0348C40.239 50.0376 40.2283 50.0394 40.2203 50.0406L40.2185 50.0409L40.2167 50.0406C40.2087 50.0394 40.198 50.0376 40.1829 50.0348L40.1704 50.0324C33.4648 47.9601 28.9707 41.8217 28.9707 34.8195V27.595C30.8816 27.595 32.4315 26.0558 32.4315 24.1442C32.4315 23.8178 32.3843 23.5255 32.3227 23.2596L32.3157 23.2291L32.3156 23.2289C34.8962 22.6411 37.5473 22.3549 40.2185 22.3549ZM40.2185 50.9071C40.305 50.9071 40.3915 50.8899 40.4781 50.8726C47.5728 48.7008 52.3315 42.214 52.3315 34.8195V27.5226C52.3315 27.0399 51.9509 26.7297 51.4663 26.7297C50.03 26.7297 48.8707 25.5748 48.8707 24.1442C48.8707 23.9029 48.9053 23.6788 48.9572 23.4547C49.0265 23.2306 48.9919 22.9893 48.8707 22.7825C48.7495 22.5757 48.5592 22.4378 48.3169 22.3861C45.6694 21.7828 42.9526 21.4897 40.2185 21.4897C37.4843 21.4897 34.7676 21.7828 32.12 22.3861C31.8778 22.4378 31.6874 22.5757 31.5663 22.7825C31.4452 22.9893 31.4105 23.2306 31.4798 23.4547C31.5316 23.6788 31.5663 23.9029 31.5663 24.1442C31.5663 25.5748 30.407 26.7297 28.9707 26.7297C28.4861 26.7297 28.1054 27.0399 28.1054 27.5226V34.8195C28.1054 42.214 32.8641 48.7008 39.9589 50.8726C40.0455 50.8899 40.132 50.9071 40.2185 50.9071Z" fill="url(#paint0_linear_215_301)"/>
<g style="mix-blend-mode:overlay">
<path d="M46.2935 24.2816C46.5937 24.151 46.8141 23.7802 47.2302 23.9952C47.0186 24.1109 46.7707 24.225 46.9066 24.5553C46.922 24.5905 46.8571 24.6616 46.8213 24.7103C46.3416 25.4008 46.469 26.0114 47.1863 26.4444C47.217 26.4996 47.2477 26.5547 47.2774 26.6079C47.1472 26.6947 47.0041 26.4692 46.8945 26.6062C46.7918 26.7321 46.9538 26.8213 46.991 26.9288C45.8217 27.2304 45.323 26.9083 45.4099 25.9048C45.2429 25.9345 45.0769 25.9662 44.9118 25.9949C44.8733 25.969 44.8344 25.8978 44.7907 25.9707C44.7778 25.99 44.8408 26.0539 44.8674 26.096C44.8869 26.1341 44.9347 26.1831 44.9248 26.2084C44.8795 26.3227 44.8125 26.2658 44.7586 26.2098C44.3194 25.7814 43.8684 25.7158 43.3599 26.1123C43.2318 26.2132 43.0067 26.2777 42.9196 26.0034C43.1092 25.909 43.3244 25.8547 43.4374 25.6451C43.4632 25.5965 43.5433 25.5303 43.5766 25.541C44.0921 25.7179 44.4293 25.2141 44.8918 25.2029C45.3272 25.3271 45.7283 25.0968 46.1504 25.081C46.3045 25.0756 46.4262 24.9324 46.4459 24.768C46.4657 24.6136 46.3263 24.5735 46.2101 24.5343C46.109 24.4999 46.0491 24.447 46.1146 24.3325C46.1759 24.3189 46.2352 24.3012 46.2935 24.2816ZM46.1118 26.6494C46.354 26.4598 46.5247 26.2688 46.5101 25.9878C46.5063 25.9062 46.3843 25.8952 46.3222 25.9371C46.0828 26.0974 46.0112 26.3238 46.1118 26.6494Z" fill="#FFBA31"/>
<path d="M47.2555 27.9525C47.0928 27.5599 47.5838 27.5848 47.6502 27.3384C47.6994 27.3208 47.7466 27.3043 47.7959 27.2867C48.1202 27.3816 47.9461 27.6351 47.9649 27.8254C47.9769 27.9331 47.9759 28.0449 48.0913 28.1024C48.1561 28.1351 48.2525 28.101 48.243 28.0577C48.1437 27.6454 48.6448 27.6803 48.719 27.4045C48.7168 27.4993 48.7864 27.5118 48.8571 27.5212C48.8845 27.5502 48.913 27.5761 48.9404 27.6051C48.9477 27.6292 48.957 27.6523 48.9683 27.6744C48.5402 28.1589 48.5402 28.1589 48.991 28.5358C49.0123 28.5528 49.0136 28.5901 49.025 28.6172C48.7402 28.8968 48.1817 28.8685 47.9159 28.4476C47.734 28.161 47.4607 28.1311 47.2555 27.9525Z" fill="#FFBA31"/>
<path d="M48.9673 27.6722C48.9561 27.6502 48.9468 27.6271 48.9395 27.603C49.1401 27.6092 49.1847 27.4093 49.3099 27.3175C49.7599 27.1483 50.2689 27.1639 50.6576 26.7907C50.8085 26.6452 51.0773 26.7305 51.1983 26.9623C51.2485 27.0555 51.2702 27.2267 51.1198 27.1998C50.6464 27.1153 50.507 27.4269 50.3659 27.7647C50.3255 27.8638 50.2166 27.8587 50.1291 27.8807C49.9508 27.8883 49.727 27.9951 49.6097 27.8349C49.4241 27.5856 49.1961 27.6692 48.9673 27.6722Z" fill="#FFBA31"/>
<path d="M47.3727 22.6797C47.4652 22.7615 47.5566 22.8413 47.645 22.9252C47.705 22.9831 47.7373 23.1057 47.6668 23.1164C47.3609 23.1665 47.2091 23.5528 46.8537 23.4763C46.5579 23.4124 46.3526 23.5553 46.1842 23.7755C45.9708 23.9225 45.7768 23.9786 45.6682 23.6571C45.688 23.6216 45.7048 23.5852 45.7247 23.5498C45.7765 23.4878 45.8284 23.4259 45.8823 23.363C46.1988 22.9178 46.8382 22.9706 47.1588 22.5284C47.2288 22.5812 47.3018 22.6299 47.3727 22.6797Z" fill="#FFBA31"/>
<path d="M49.5298 24.0848C49.4336 23.9164 49.4991 23.8069 49.6474 23.7059C49.8237 23.5854 49.9644 23.4249 50.032 23.2157C50.372 22.6827 50.819 22.978 51.238 23.06C51.3636 23.1375 51.4874 23.1172 51.6107 23.0517C51.6915 23.0711 51.7975 22.9714 51.8509 23.0858C51.8992 23.1902 51.8151 23.2585 51.7338 23.2975C51.5462 23.3908 51.3504 23.4732 51.1587 23.5585C51.1472 23.5112 51.1357 23.464 51.1242 23.4167L51.1231 23.4097C51.1475 23.3137 51.108 23.2959 51.0236 23.3239C50.6926 23.1515 50.5406 23.5226 50.2811 23.5693C50.1645 23.4998 50.0491 23.4373 50.0804 23.6668C50.052 23.7648 50.0227 23.8658 49.9943 23.9638C49.8637 24.0154 49.7362 24.0679 49.6057 24.1194C49.5873 24.0984 49.561 24.0866 49.5298 24.0848Z" fill="#FFBA31"/>
<path d="M37.8473 24.7491C37.897 24.5542 38.0505 24.4732 38.1864 24.4569C38.4824 24.4221 38.6933 24.3396 38.6892 23.995C38.6889 23.9547 38.7264 23.8747 38.7386 23.8786C38.9756 23.9068 39.1749 24.1036 39.4491 24.0014C39.4913 23.9849 39.3819 24.7265 39.2402 24.761C38.9928 24.8217 38.7637 25.2399 38.4624 24.7891C38.346 24.6157 38.0616 24.8168 37.8473 24.7491Z" fill="#FFBA31"/>
<path d="M48.1599 20.8126L48.1488 20.8158C47.911 20.8158 47.6734 20.96 47.4332 20.7969C47.3014 20.7073 47.2336 20.7926 47.2348 20.9286C47.236 21.0647 47.2878 21.2305 47.0568 21.2043C46.9499 21.1932 46.8075 21.1521 46.8325 21.0229C46.8634 20.8654 46.8211 20.6441 47.0483 20.5786C47.3559 20.4922 47.6427 20.3254 47.9711 20.3195C48.1384 20.315 48.3477 20.165 48.4487 20.4272C48.556 20.7013 48.2819 20.7047 48.1599 20.8126Z" fill="#FFBA31"/>
<path d="M42.4728 26.0043C42.2533 26.491 41.8933 26.5738 41.3996 26.3554C41.557 26.1484 41.6242 25.8838 41.9117 25.8077C42.1263 25.7967 42.3182 25.8454 42.4728 26.0043Z" fill="#FFBA31"/>
<path d="M47.2282 28.5766C47.0047 28.8274 46.8148 28.6639 46.6552 28.505C46.4966 28.3482 46.3608 28.2708 46.1787 28.5233C46.1081 28.2962 46.22 28.1783 46.2955 28.0638C46.4297 27.856 46.5761 27.6522 46.7809 28.0232C46.8127 28.0804 46.9447 28.0812 47.0316 28.1077C47.2089 28.217 47.2949 28.3654 47.2282 28.5766Z" fill="#FFBA31"/>
<path d="M36.3694 24.8619C36.4655 24.9064 36.5607 24.954 36.6577 24.9904C36.8134 25.0475 37.0182 25.0769 37.0361 25.2702C37.0542 25.4988 36.8519 25.6427 36.7193 25.8041C36.6545 25.8853 36.5505 25.865 36.4695 25.8154C36.3763 25.7567 36.3521 25.6501 36.414 25.578C36.6334 25.3141 36.4955 25.1087 36.3694 24.8619Z" fill="#FFBA31"/>
<path d="M49.6044 29.8745C49.7943 29.8053 50.063 29.8755 49.9287 29.4988C49.8708 29.3411 50.1501 29.3578 50.2828 29.3153C50.4044 29.2759 50.5565 29.1577 50.6615 29.2988C50.7553 29.423 50.7355 29.5673 50.5342 29.5993C50.4144 29.6175 50.2611 29.6047 50.2342 29.7551C50.1351 30.284 49.8595 30.0023 49.6044 29.8745Z" fill="#FFBA31"/>
<path d="M40.0554 26.9789C39.8492 27.0159 39.6359 27.1781 39.4504 26.9338C39.8827 26.8141 40.2244 26.5964 40.3766 26.1416C40.4355 25.9647 40.5497 26.1139 40.6395 26.1262C40.6873 26.289 40.6058 26.4268 40.5587 26.5723C40.4141 26.7348 40.2582 26.8854 40.0554 26.9789Z" fill="#FFBA31"/>
<path d="M49.1217 22.8287C48.9304 23.0682 48.5887 22.9543 48.3657 23.1467C48.2987 23.2037 48.1707 23.087 48.1505 22.9682C48.1154 22.7559 48.3071 22.7844 48.4174 22.728C48.5514 22.7178 48.6823 22.7066 48.8162 22.6963C48.8789 22.7149 48.9385 22.7325 49.0011 22.7511C49.0417 22.776 49.0822 22.8008 49.1217 22.8287Z" fill="#FFBA31"/>
<path d="M54.3228 26.4058C54.3765 26.3327 54.4232 26.2507 54.5804 26.2513C54.4957 26.4768 54.5047 26.6924 54.7734 26.8765C54.4 26.9332 54.2392 26.5295 53.9068 26.6563C53.8475 26.679 53.8326 26.3627 53.9093 26.2552C54.0546 26.0544 54.1211 26.2786 54.2115 26.3564C54.2188 26.3906 54.2242 26.4258 54.2315 26.46C54.2626 26.4416 54.2917 26.4242 54.3228 26.4058Z" fill="#FFBA31"/>
<path d="M48.8781 25.5648C49.1606 25.0332 49.5112 25.4766 49.8308 25.4979C49.8485 25.5522 49.8691 25.6075 49.8867 25.6617C49.8167 25.7228 49.7497 25.7849 49.6797 25.8459C49.348 25.9396 49.1086 25.7633 48.8781 25.5648Z" fill="#FFBA31"/>
<path d="M43.1849 22.74C43.2751 22.451 43.4349 22.2934 43.6163 22.4006C43.826 22.5237 44.0603 22.695 44.085 22.986C44.0918 23.0737 44.0302 23.1659 43.9215 23.186C43.8128 23.2061 43.7807 23.1086 43.7832 23.0441C43.8025 22.6066 43.5197 22.6524 43.1849 22.74Z" fill="#FFBA31"/>
<path d="M50.2488 24.4996C50.476 24.4441 50.6904 24.1903 50.8822 24.4567C51.0087 24.6299 50.7854 24.6732 50.676 24.7215C50.4822 24.8028 50.251 24.8704 50.1022 24.6832C49.983 24.5291 50.2222 24.5713 50.2488 24.4996Z" fill="#FFBA31"/>
<path d="M49.8378 28.3339C49.9692 28.2592 50.1025 28.1835 50.2339 28.1087C50.3461 28.1501 50.5568 28.0474 50.5407 28.2733C50.5272 28.4548 50.4431 28.637 50.2502 28.7052C50.1046 28.7569 49.9781 28.7025 49.9153 28.5499C49.8844 28.4797 49.8646 28.4063 49.8378 28.3339Z" fill="#FFBA31"/>
<path d="M47.2792 26.6101C47.2485 26.5549 47.2178 26.4998 47.1881 26.4466C47.3905 26.1989 47.6303 26.089 47.9412 26.2515C48.0293 26.4241 48.1971 26.5889 47.9882 26.7842C47.7528 26.7198 47.5807 26.3978 47.2792 26.6101Z" fill="#FFBA31"/>
<path d="M40.5584 24.3049C40.6596 24.4632 40.6604 24.5539 40.5279 24.6165C40.3563 24.6966 40.1751 24.7134 39.9895 24.6969C39.8574 24.6859 39.7319 24.6286 39.7347 24.4855C39.7352 24.3131 39.8982 24.2905 40.0055 24.3369C40.2058 24.4218 40.4057 24.1298 40.5584 24.3049Z" fill="#FFBA31"/>
<path d="M52.1212 19.8838C51.9246 20.212 51.6247 20.259 51.3164 20.2648C51.2408 20.2654 51.1844 20.15 51.2544 20.089C51.4975 19.8863 51.781 19.8173 52.1212 19.8838Z" fill="#FFBA31"/>
<path d="M51.08 30.4291C51.2407 30.3722 51.3919 30.3759 51.492 30.5222C51.5747 30.6444 51.5254 30.7658 51.403 30.8283C51.2304 30.9165 51.1143 30.7734 51.0086 30.6806C50.8908 30.5738 51.002 30.4943 51.08 30.4291Z" fill="#FFBA31"/>
<path d="M53.886 25.3667C53.8662 25.521 53.8594 25.6662 53.7057 25.722C53.555 25.7787 53.4796 25.6806 53.4342 25.5571C53.3898 25.4355 53.4414 25.3484 53.563 25.3141C53.6816 25.2788 53.7964 25.2657 53.886 25.3667Z" fill="#FFBA31"/>
<path d="M45.4548 21.1116C45.6047 21.0781 45.7606 21.0465 45.8746 21.1805C45.9337 21.2515 45.8991 21.3274 45.8056 21.3474C45.6476 21.38 45.4699 21.4582 45.3437 21.3152C45.2745 21.2342 45.3675 21.1537 45.4548 21.1116Z" fill="#FFBA31"/>
<path d="M55.5607 29.9762C55.3669 30.0576 55.1791 30.1308 55.0634 29.9242C55.0348 29.8731 55.0607 29.7257 55.0858 29.7204C55.3161 29.661 55.3947 29.8941 55.5607 29.9762Z" fill="#FFBA31"/>
<path d="M53.0143 19.5432C52.7933 19.398 52.619 19.2897 52.4517 19.1703C52.4284 19.1544 52.4156 19.0799 52.4325 19.0535C52.4802 18.9786 52.5668 18.9697 52.6347 19.0084C52.8099 19.1087 52.9482 19.2455 53.0143 19.5432Z" fill="#FFBA31"/>
<path d="M41.2834 24.1524C41.0387 24.2826 40.8444 24.1946 40.6591 24.2033C40.5503 24.2083 40.4983 24.1412 40.5346 24.024C40.561 23.932 40.6182 23.9104 40.7041 23.9399C40.879 24.0048 41.0529 24.0678 41.2834 24.1524Z" fill="#FFBA31"/>
<path d="M45.1133 23.1079C44.8487 23.2785 44.7095 23.0308 44.4658 22.9352C44.6591 22.7985 44.7911 22.6855 44.965 22.8673C45.0161 22.9475 45.0652 23.0287 45.1133 23.1079Z" fill="#FFBA31"/>
<path d="M47.6166 21.9301C47.5673 22.0464 47.6708 22.244 47.4776 22.277C47.3055 22.3067 47.3151 22.1323 47.2828 22.0197C47.3789 21.9403 47.4352 21.7039 47.6166 21.9301Z" fill="#FFBA31"/>
<path d="M44.5231 35.0177C44.6553 35.1476 44.8055 35.2732 44.754 35.4893C44.7045 35.6994 44.648 35.9256 44.3866 35.6468C44.1313 35.3749 43.9829 35.5747 43.8344 35.7645C43.5643 36.1125 43.014 36.2091 42.6631 35.9683C42.4959 35.8539 42.5473 35.7466 42.6622 35.6297C42.8549 35.4325 43.1164 35.3748 43.3554 35.2729C43.6903 35.3143 43.7364 34.9441 43.9693 34.8402C43.9926 34.8511 44.0148 34.8499 44.0358 34.8366C44.1702 34.8818 44.3047 34.9269 44.4371 34.9731C44.4654 34.989 44.4948 35.0019 44.5231 35.0177Z" fill="#FFBA31"/>
<path d="M46.8674 38.4475C46.0329 38.211 45.9753 38.2961 45.5941 39.0755C45.496 39.1459 45.3999 39.2152 45.3017 39.2856C45.2342 39.2872 45.1687 39.2878 45.1012 39.2894C45.1298 39.2116 45.1593 39.1357 45.1879 39.0579C45.2666 38.9544 45.2339 38.9103 45.111 38.9175C44.9218 38.9433 44.7326 38.9692 44.5434 38.995C44.4551 39.0402 44.3698 39.0863 44.2815 39.1314C44.1623 39.0962 44.0461 39.0619 43.9269 39.0267C43.9054 38.9896 43.8819 38.9535 43.8604 38.9164L43.8585 38.9326C44.0359 38.933 44.109 38.7691 44.2374 38.6934C44.3366 38.6351 44.4231 38.5023 44.5611 38.6039C44.9658 38.9006 45.2553 38.5907 45.5458 38.3967C45.7101 38.2874 45.8571 38.1541 46.0336 38.0588C46.2513 37.945 46.4521 37.8576 46.6397 38.1109C46.7611 38.2741 46.995 38.1672 47.1381 38.2889C47.0879 38.4234 46.9536 38.3933 46.8674 38.4475Z" fill="#FFBA31"/>
<path d="M49.2435 39.0171C49.1532 38.8355 48.8014 38.9393 48.8269 38.6328C49.1995 38.5992 49.4746 38.2511 49.8742 38.3101C50.0838 38.4282 50.2924 38.5442 50.5223 38.6722C50.2359 38.9882 49.785 38.3734 49.5799 38.8831C49.4684 38.9274 49.357 38.9717 49.2435 39.0171Z" fill="#FFBA31"/>
<path d="M42.1288 40.4594C41.7992 40.9138 41.378 40.5698 41.0031 40.564C40.8962 40.563 40.8344 40.2934 40.8931 40.2052C41.0094 40.0269 41.2471 40.0167 41.43 40.0725C41.6281 40.1333 41.8148 40.6174 41.9788 40.0223C42.0052 39.9304 42.1862 40.1062 42.2487 40.2286C42.2071 40.3055 42.1674 40.3815 42.1288 40.4594Z" fill="#FFBA31"/>
<path d="M48.4765 34.0042C48.3432 33.7433 48.3647 33.5577 48.7092 33.5335C49.0606 33.5032 49.3063 33.1423 49.6909 33.2115C49.629 33.2785 49.5681 33.3476 49.5063 33.4146C49.3276 33.5009 49.1418 33.573 48.9724 33.6773C48.8472 33.754 48.6705 33.8392 48.8044 34.0466L48.7954 34.0588C48.7288 33.8145 48.5768 34.0618 48.4765 34.0042Z" fill="#FFBA31"/>
<path d="M42.6897 44.9784C42.3076 44.4981 41.945 44.9769 41.5713 44.9984C41.4398 44.8302 41.5751 44.7484 41.6812 44.6588C42.063 44.5295 42.4305 44.491 42.7606 44.7904C42.8297 44.8512 42.8494 44.9095 42.7845 44.9806C42.7512 44.9799 42.72 44.9782 42.6897 44.9784Z" fill="#FFBA31"/>
<path d="M58.2651 37.8835C58.4176 37.3451 58.7998 37.7216 59.0776 37.6809C59.1701 37.7778 59.1004 37.8691 59.067 37.9621C58.8594 38.1947 58.6953 37.8687 58.5022 37.9167C58.4235 37.9063 58.3438 37.8939 58.2651 37.8835Z" fill="#FFBA31"/>
<path d="M52.949 35.4815C52.755 35.5377 52.559 35.5948 52.365 35.6509C52.3566 35.6147 52.3472 35.5765 52.3408 35.5393L52.3259 35.5646C52.7016 35.5422 52.4806 35.0453 52.7954 34.973C52.8955 35.1293 52.9464 35.2981 52.949 35.4815Z" fill="#FFBA31"/>
<path d="M48.324 38.9003C48.4732 39.2517 48.2981 39.4982 48.0602 39.726C47.9216 39.4299 48.2565 39.2436 48.233 38.9747C48.263 38.9492 48.294 38.9258 48.324 38.9003Z" fill="#FFBA31"/>
<path d="M45.4948 31.9849C45.4297 31.917 45.3656 31.846 45.3005 31.778C45.3161 31.7245 45.3318 31.6709 45.3474 31.6174C45.4349 31.5954 45.5224 31.5735 45.6079 31.5526C45.6652 31.6499 45.7225 31.7471 45.7818 31.8433C45.7399 31.9001 45.6961 31.9579 45.6543 32.0148C45.6018 32.0061 45.5483 31.9955 45.4948 31.9849Z" fill="#FFBA31"/>
<path d="M46.6654 44.9584C46.6133 44.7574 46.7049 44.6346 46.8909 44.5826C46.9532 44.5659 46.9961 44.63 46.9987 44.6995C47.0054 44.8859 46.9126 44.9815 46.7292 44.9891C46.7149 44.9661 46.6916 44.9552 46.6654 44.9584Z" fill="#FFBA31"/>
<path d="M44.1826 33.3186L44.1925 33.3185L44.1954 33.3194L44.1827 33.3235L44.1826 33.3186Z" fill="#FFBA31"/>
<path d="M40.5609 39.1936C40.9209 39.2247 40.8536 38.8998 40.8372 38.7589C40.7979 38.4095 40.8896 38.0691 40.8563 37.7268C40.9265 37.6858 40.9997 37.6459 41.0699 37.605C41.0562 38.1029 41.3464 38.3341 41.7907 38.436C41.8644 38.4515 41.9464 38.4881 41.9442 38.5828C41.9226 39.2239 42.3589 39.1022 42.7405 39.0565C43.0767 39.0162 43.3463 38.8456 43.5729 38.6007C43.6241 38.5771 43.6753 38.5534 43.7264 38.5298C43.77 38.6645 43.8135 38.7991 43.854 38.9328L43.8558 38.9167C43.6405 39.0697 43.4323 39.2268 43.2658 39.4358C43.1729 39.5213 43.0769 39.6058 42.9839 39.6913C42.8805 39.7365 42.7751 39.7828 42.6717 39.828C42.6001 39.7077 42.689 39.5054 42.3748 39.5293C42.1341 39.5486 41.8334 39.5049 41.5861 39.3478C41.1656 39.0795 40.9757 39.1537 40.8016 39.6349C40.7357 39.8179 40.6963 40.0329 40.4381 39.8941C40.1181 39.7236 40.0126 39.9825 39.9053 40.1588C39.7434 40.4313 40.0487 40.4195 40.1705 40.5192C40.205 40.5472 40.2285 40.5883 40.2571 40.6243C40.1758 40.6583 40.0954 40.6892 40.0141 40.7232C39.6375 40.531 39.6129 41.0573 39.3317 41.0567C39.2995 40.9441 39.2703 40.8325 39.2381 40.7199C39.1774 40.5864 39.1168 40.453 39.0562 40.3195C39.6345 40.1934 39.6514 40.162 39.4619 39.5832C39.5946 39.442 39.7801 39.4434 39.9315 39.4773C40.2314 39.5392 40.4015 39.3966 40.5609 39.1936Z" fill="#FFBA31"/>
<path d="M37.5751 29.9042C37.6765 30.0877 37.7779 30.2713 37.8803 30.4568C37.8385 30.5186 37.7937 30.5795 37.7519 30.6413C37.5923 30.5914 37.4297 30.5505 37.2739 30.4883C37.0848 30.4154 36.9184 30.4018 36.7871 30.5904C36.7155 30.584 36.6562 30.6067 36.6195 30.6735C36.5724 30.7052 36.5253 30.7368 36.4782 30.7685C36.41 30.7983 36.3437 30.8271 36.2744 30.8549C36.1777 30.3982 35.9062 30.6939 35.7151 30.7409C35.4929 30.7963 35.5087 30.8717 35.6426 31.0842C35.8582 31.427 35.4611 31.1846 35.3883 31.2799L35.3974 31.2829C35.2648 31.0976 35.1913 30.8745 35.0055 30.719C34.7476 30.5016 34.5732 30.492 34.5049 30.8685C34.4097 31.0386 34.2687 31.1638 34.1074 31.2691C33.7237 31.2956 33.9391 31.6182 33.848 31.7914C33.6709 31.7123 33.6995 31.5306 33.6519 31.388C33.8345 31.2896 33.9093 31.0945 34.0492 30.9572C34.6936 30.3216 34.6956 30.3206 34.1782 29.7044C34.2079 29.6437 34.2376 29.583 34.2684 29.5242C34.3685 29.4578 34.4707 29.3904 34.5709 29.324C34.6368 29.3638 34.7046 29.3974 34.7635 29.4433C34.8538 29.516 34.9126 29.6707 35.065 29.5827C35.2234 29.4916 35.2656 29.3562 35.1533 29.196C35.1543 29.198 35.1451 29.1849 35.1451 29.1849C35.1671 29.2724 35.1978 29.2187 35.2288 29.1903C35.3614 29.1427 35.4078 29.0254 35.445 28.9052C35.5341 28.8419 35.6253 28.7776 35.7144 28.7143C35.7706 28.6856 35.8278 28.6589 35.884 28.6302C36.0337 28.5815 36.1847 28.56 36.3421 28.5909L36.3504 28.617L36.3787 28.6228C36.4396 28.9055 36.2096 28.9901 36.0403 29.1045C35.7237 29.3169 35.399 29.5133 35.1171 29.7737C34.8651 30.0037 34.8568 30.2003 35.1357 30.4044C35.2256 30.5356 35.333 30.6022 35.4915 30.5212C35.6312 30.4827 35.6926 30.3602 35.7734 30.2607C35.8275 30.228 35.8827 30.1973 35.9368 30.1646C36.2343 30.0733 36.5318 29.9819 36.8262 29.8897C37.0765 29.9288 37.3245 29.9387 37.5751 29.9042Z" fill="#FFBA31"/>
<path d="M37.5447 37.7921C37.8068 37.686 38.059 37.4863 38.3436 37.7659C38.4463 37.8678 38.6011 37.8241 38.6738 37.7237C38.8849 37.4336 39.2696 37.6318 39.5025 37.4141C39.5215 37.3968 39.6286 37.4331 39.6562 37.4722C39.7174 37.5623 39.6688 37.6505 39.6019 37.7176C39.3721 37.9413 39.1011 38.0696 38.7694 38.0444C38.6352 38.0344 38.4586 38.0007 38.4076 38.1634C38.3556 38.3241 38.5791 38.301 38.6355 38.4013C38.7972 38.683 39.0013 38.8646 39.3631 38.8645C39.5122 38.8642 39.5935 39.0479 39.5306 39.2268C39.3648 39.2837 39.1919 39.3366 39.1737 39.5534C39.1415 39.5598 39.1063 39.5651 39.0741 39.5714C39.0296 39.5537 38.9851 39.5359 38.9406 39.5182C38.9001 39.5034 38.8597 39.4887 38.8213 39.4729C38.7732 39.3937 38.7241 39.3125 38.676 39.2333C38.693 39.217 38.6969 39.1999 38.6907 39.1778C38.7112 39.1091 38.7438 39.0342 38.6152 39.0746C38.4755 39.1182 38.3368 39.1637 38.1971 39.2073C38.1676 39.1743 38.1381 39.1413 38.1096 39.1053C38.1658 38.9728 38.397 38.9052 38.3099 38.7347C38.2494 38.6163 38.0897 38.6802 37.9773 38.7326C37.925 38.6302 37.7245 38.6391 37.7674 38.4754C37.9476 37.7634 37.524 38.0684 37.2315 38.1547C37.2282 38.1285 37.212 38.1165 37.1868 38.1168C37.2173 37.9139 37.435 37.914 37.5447 37.7921ZM37.8399 38.0132C37.7882 37.9714 37.7074 37.957 37.6242 38.0071C37.527 38.0644 37.4571 38.1406 37.5277 38.2639C37.581 38.3582 37.6698 38.3785 37.753 38.3234C37.8451 38.2611 37.8917 38.169 37.8399 38.0132Z" fill="#FFBA31"/>
<path d="M29.115 38.1023C29.1318 38.0608 29.1383 37.9993 29.1703 37.9779C29.5571 37.7195 29.4394 37.524 29.0993 37.3486C29.0618 37.3298 29.0363 37.2847 28.9956 37.2447C29.307 36.9084 29.547 36.4619 30.1268 36.621C30.2255 36.7199 30.3111 36.828 30.3144 36.9782C30.1821 37.2937 29.8849 37.5241 29.9248 37.9339C29.948 38.1725 29.6533 38.2296 29.4575 38.3119L29.4363 38.3151C29.3264 38.308 29.2175 38.2979 29.1076 38.2908C29.1111 38.2283 29.1115 38.1648 29.115 38.1023Z" fill="#FFBA31"/>
<path d="M28.8972 29.6855C29.0368 29.7407 29.0501 29.6479 29.0583 29.55C29.266 28.8821 29.4575 28.7615 30.1066 28.8928C30.2106 28.9131 30.3126 28.9444 30.4156 28.9677C30.43 29.0008 30.4414 29.033 30.4558 29.0661C30.3739 29.2573 30.3492 29.4369 30.4599 29.6385C30.6381 29.9624 30.3737 29.8115 30.2548 29.8116C30.1471 29.7148 30.0258 29.6705 29.8811 29.7141C29.6219 29.6922 29.3152 29.6516 29.1803 29.9027C29.0118 30.2166 28.8612 30.0557 28.6821 29.9675C28.6903 29.8748 28.6986 29.782 28.7068 29.6892C28.7693 29.6876 28.8317 29.6861 28.8972 29.6855Z" fill="#FFBA31"/>
<path d="M25.7761 35.0429C25.4984 34.6332 25.6075 34.4357 26.074 34.3137C26.3214 34.248 26.5467 34.0898 26.8228 34.0854C26.9628 34.0821 27.1282 34.0887 27.0138 34.256C26.8178 34.546 26.7786 34.7912 27.0249 35.0601C27.035 35.0701 26.9652 35.1513 26.9344 35.2C26.8947 35.152 26.8559 35.1009 26.8162 35.0529C26.741 34.98 26.6563 34.9727 26.5629 35.0128C26.4682 35.0156 26.3765 35.0195 26.2818 35.0223C26.153 34.9287 26.0272 34.95 25.902 35.0317C25.8607 35.0351 25.8174 35.0395 25.7761 35.0429Z" fill="#FFBA31"/>
<path d="M28.4384 33.0454C28.2165 33.1411 28.074 33.3227 27.9437 33.5133C27.8611 33.634 27.7193 33.6685 27.6171 33.622C27.4188 33.5311 27.7008 33.5135 27.6658 33.4301C27.5906 33.2484 27.3694 33.3007 27.2178 33.1378C27.4126 33.0585 27.5843 32.9884 27.758 32.9174C27.9658 32.8289 28.0564 32.7041 28.0129 32.4506C27.9405 32.0118 28.1879 32.1789 28.3833 32.284C28.3972 32.3756 28.4331 32.4458 28.535 32.4621C28.713 32.5331 28.946 32.5532 28.9011 32.8418C28.7537 32.9247 28.5611 32.9043 28.4384 33.0454Z" fill="#FFBA31"/>
<path d="M35.0337 44.7486C34.9566 44.578 34.8416 44.447 34.6695 44.3679C34.4578 44.2407 34.2716 44.3814 34.0755 44.4285C34.0092 44.4523 33.9439 44.473 33.8776 44.4968L33.8846 44.4907C33.8569 44.4415 33.8313 44.3914 33.8026 44.3402C34.0542 44.1838 34.2235 43.9606 34.2098 43.6615C34.1969 43.3441 34.422 43.3835 34.6081 43.3415C34.8545 43.2889 34.8301 43.4937 34.8746 43.6254C34.9036 43.7118 34.9206 43.8094 34.9103 43.8981C34.8651 44.2654 34.9728 44.471 35.3853 44.3918C35.3903 44.3917 35.4091 44.4631 35.4205 44.5003C35.2913 44.5891 35.2678 44.7909 35.0816 44.8177C35.0743 44.7886 35.057 44.7645 35.0337 44.7486Z" fill="#FFBA31"/>
<path d="M27.7748 31.6584C27.8211 31.9915 27.6738 32.2034 27.3465 32.2315C26.9448 32.2673 26.5039 32.4395 26.1817 32.0171C26.2283 31.93 26.2739 31.8409 26.3185 31.7548C26.3496 31.7465 26.3716 31.7252 26.3834 31.6938C26.4125 31.6764 26.4405 31.657 26.4676 31.6407C26.6629 31.9634 27.0014 31.7246 27.2463 31.8374C27.5479 31.9768 27.4936 31.7667 27.4952 31.6014C27.5363 31.5829 27.5764 31.5624 27.6176 31.5439L27.6206 31.5448C27.6724 31.5817 27.7241 31.6185 27.7748 31.6584Z" fill="#FFBA31"/>
<path d="M32.3794 43.6455C32.5055 43.3129 32.7033 43.2345 32.9836 43.481C33.0699 43.5558 33.0039 43.6098 32.9418 43.6567C32.7802 43.6077 32.6726 43.6399 32.6834 43.8394C32.6992 43.9098 32.721 43.9821 32.7277 44.0546C32.7363 44.116 32.7295 44.1524 32.7522 44.0927C32.7542 44.0917 32.7754 44.0986 32.7865 44.1005C32.7734 44.0945 32.7591 44.0816 32.7481 44.0847C32.4143 44.1693 32.463 43.8685 32.3699 43.7111C32.3879 43.6918 32.3917 43.6696 32.3794 43.6455Z" fill="#FFBA31"/>
<path d="M37.3283 45.6333C37.3207 45.574 37.3142 45.5166 37.3066 45.4572C37.5282 45.4401 37.7072 45.1715 37.9626 45.3395C37.812 45.5102 38.0268 45.7572 37.8398 45.9211C37.7542 45.9319 37.6697 45.9447 37.5861 45.9546C37.5829 45.9284 37.5816 45.9012 37.5744 45.8771C37.5712 45.866 37.558 45.855 37.5499 45.844C37.5435 45.8118 37.5232 45.7919 37.4909 45.7881C37.4351 45.7382 37.3802 45.6853 37.3283 45.6333Z" fill="#FFBA31"/>
<path d="M43.7323 30.8667C43.7983 30.8077 43.8663 30.7476 43.9333 30.6906C44.0028 30.688 44.0713 30.6833 44.1388 30.6817C44.1906 30.7236 44.2403 30.7665 44.2921 30.8084C44.1343 30.965 44.2403 31.222 44.0744 31.3777C44.016 31.3822 43.9556 31.3878 43.8961 31.3903L43.8921 31.3924C43.8184 31.3769 43.7467 31.3604 43.673 31.3449C43.6363 31.2979 43.5987 31.2539 43.562 31.2068C43.6164 31.0905 43.6759 30.9791 43.7323 30.8667Z" fill="#FFBA31"/>
<path d="M36.8624 36.7158C36.8498 36.6564 36.8341 36.5961 36.8215 36.5368C37.0147 36.3899 37.2921 36.4177 37.4658 36.2277C37.6609 36.6442 37.3159 36.7168 37.0682 36.851C36.9992 36.8053 36.9313 36.7615 36.8624 36.7158Z" fill="#FFBA31"/>
<path d="M26.2226 37.2137C26.0824 37.3208 26.0227 37.5158 25.8378 37.5749C25.6981 37.6184 25.5913 37.6224 25.6661 37.4222C25.8587 37.3237 25.6903 36.9695 26.058 36.9461C26.4074 36.9218 26.3137 37.0355 26.2226 37.2137Z" fill="#FFBA31"/>
<path d="M37.9961 32.4925C38.0498 32.3056 38.1249 32.1357 38.3535 32.1125C38.452 32.4291 38.6048 32.2675 38.755 32.1603C38.7849 32.2437 38.8139 32.3301 38.8439 32.4135C38.7999 32.4512 38.7568 32.4858 38.7128 32.5235C38.5746 32.5005 38.4643 32.572 38.349 32.6285C38.2316 32.5771 38.07 32.6471 37.9961 32.4925Z" fill="#FFBA31"/>
<path d="M43.885 33.2104C43.9066 33.2576 43.9272 33.3179 43.9946 33.2961C44.0147 33.2909 44.0182 33.2385 44.0301 33.2071C44.029 33.2051 43.9966 33.1862 43.9966 33.1862L43.9727 33.2137L43.9554 33.1997C43.879 32.9958 43.562 33.1578 43.5125 32.9124C43.7535 32.8145 43.9946 32.7267 44.2628 32.7465C44.2887 33.0496 43.8716 32.9465 43.885 33.2104Z" fill="#FFBA31"/>
<path d="M31.5747 37.5688C31.6864 37.6635 31.8628 37.667 31.95 37.8375C31.7501 38.0257 31.4947 37.9766 31.2612 38.0149C31.2249 37.8994 31.1887 37.7838 31.1524 37.6682C31.1765 37.6609 31.1884 37.6447 31.1912 37.6205C31.3211 37.6022 31.4489 37.585 31.5747 37.5688Z" fill="#FFBA31"/>
<path d="M30.8833 30.4769C31.0598 30.5006 31.2374 30.5262 31.414 30.5499C31.4489 30.6231 31.4838 30.6964 31.5207 30.7686C31.403 30.9047 31.2371 30.8326 31.0954 30.8721C30.9501 30.8502 30.8068 30.8273 30.6614 30.8054C30.6681 30.6502 30.7377 30.5387 30.8833 30.4769Z" fill="#FFBA31"/>
<path d="M38.8877 33.0689C39.0449 33.0696 39.2328 33.0115 39.2522 33.2673C39.2681 33.4717 39.2039 33.6184 38.9774 33.6506C38.8025 33.5857 38.7139 33.4766 38.7948 33.2834C38.8155 33.2248 38.8391 33.1671 38.8598 33.1085C38.8829 33.1043 38.8909 33.0901 38.8877 33.0689Z" fill="#FFBA31"/>
<path d="M27.8085 38.7014C27.6824 38.8013 27.5355 39.0535 27.4766 38.656C27.4465 38.4487 27.4114 38.2414 27.3794 38.0351C27.7589 38.1043 27.6174 38.5107 27.8085 38.7014Z" fill="#FFBA31"/>
<path d="M31.4621 30.4216C31.3846 30.3195 31.3041 30.2164 31.2266 30.1143C31.3151 30.0943 31.4005 30.0734 31.489 30.0535C31.6575 30.0762 31.915 30.0205 31.8732 30.3C31.8358 30.519 31.6289 30.4806 31.4621 30.4216Z" fill="#FFBA31"/>
<path d="M42.3324 32.7385C42.21 32.6922 42.0697 32.6652 41.9703 32.5895C41.9033 32.5377 41.9476 32.4164 42.0024 32.3454C42.1389 32.1668 42.2663 32.332 42.3966 32.3641C42.3939 32.5223 42.5473 32.5401 42.6266 32.621C42.5443 32.6631 42.4601 32.7061 42.3778 32.7482C42.3656 32.7342 42.3484 32.7303 42.3324 32.7385Z" fill="#FFBA31"/>
<path d="M32.8428 30.212C32.8493 30.2694 32.8569 30.3287 32.8615 30.3872C32.8538 30.4265 32.8471 30.4679 32.8394 30.5073C32.5603 30.6297 32.4102 30.4103 32.3351 30.2386C32.218 29.9797 32.5022 30.0951 32.6024 30.0337C32.6835 30.0935 32.7647 30.1532 32.8428 30.212Z" fill="#FFBA31"/>
<path d="M29.4678 33.6782C29.6193 33.7172 29.8155 33.6802 29.8667 33.8944C29.8803 33.9507 29.8127 34.0511 29.7842 34.0251C29.6227 33.8774 29.305 34.1966 29.2313 33.8345C29.2292 33.8204 29.2341 33.8052 29.2359 33.7891C29.3142 33.7542 29.3915 33.7172 29.4678 33.6782Z" fill="#FFBA31"/>
<path d="M36.1729 31.6177C35.9688 31.3323 35.9484 31.0694 36.274 30.8549C36.3422 30.8251 36.4085 30.7963 36.4778 30.7685C36.478 30.7937 36.4822 30.8168 36.4895 30.8409C36.4467 30.8957 36.4028 30.9485 36.3599 31.0033C36.1803 31.2064 36.3559 31.347 36.448 31.5024C36.4081 31.6619 36.2735 31.6017 36.1729 31.6177Z" fill="#FFBA31"/>
<path d="M28.8303 39.3201C28.7668 39.4335 28.7389 39.5768 28.5983 39.6335C28.5889 39.5953 28.5775 39.5581 28.567 39.5179C28.5309 39.4225 28.4958 39.3291 28.4597 39.2336C28.5003 39.1446 28.4877 38.9815 28.6179 39.0035C28.7572 39.0285 28.7919 39.1904 28.8303 39.3201Z" fill="#FFBA31"/>
<path d="M44.0315 31.9009C44.0518 31.9108 44.0709 31.9086 44.0899 31.8964C44.146 31.9715 44.1991 32.0456 44.2552 32.1207C44.1709 32.1637 44.0866 32.2068 44.0034 32.2519C43.8406 32.2997 43.6815 32.4291 43.5058 32.2784C43.6647 32.1289 43.8318 31.9904 44.0315 31.9009Z" fill="#FFBA31"/>
<path d="M25.6536 33.4408C25.8156 33.2923 25.9731 33.1004 26.1493 33.4254C26.1296 33.481 26.11 33.5366 26.0903 33.5922C25.9755 33.7141 25.8427 33.7364 25.6958 33.6571C25.6811 33.5837 25.6674 33.5123 25.6536 33.4408Z" fill="#FFBA31"/>
<path d="M29.7959 43.5159C29.8278 43.5882 30.0088 43.6551 29.9054 43.7054C29.6856 43.8101 29.4486 44.0097 29.1796 43.7955C29.372 43.6718 29.5716 43.5673 29.7959 43.5159Z" fill="#FFBA31"/>
<path d="M32.6315 47.0191C32.6434 46.9928 32.6431 46.9676 32.6278 46.9425C32.8311 46.7956 33.0333 46.6467 33.2366 46.4998C33.2205 46.6168 33.2034 46.7369 33.1873 46.8539C33.0871 46.9153 32.9869 46.9766 32.8866 47.038C32.8009 47.0337 32.7099 47.1081 32.6315 47.0191Z" fill="#FFBA31"/>
<path d="M37.5723 43.3245C37.4313 43.2169 37.5701 43.0725 37.5247 42.954C37.4694 42.7419 37.6044 42.7286 37.7566 42.7343C37.9151 43 37.9625 43.2313 37.5723 43.3245Z" fill="#FFBA31"/>
<path d="M30.4771 32.4357C30.3547 32.3843 30.2095 32.3725 30.1428 32.232C30.1649 32.2208 30.1808 32.2025 30.1867 32.1792C30.3416 32.1507 30.4955 32.1201 30.6525 32.0905C30.6617 32.1136 30.68 32.1295 30.7043 32.1374C30.7199 32.1977 30.7345 32.256 30.7502 32.3164C30.6588 32.3555 30.5675 32.3946 30.4771 32.4357Z" fill="#FFBA31"/>
<path d="M33.9695 41.8888C33.8927 41.9761 33.8909 42.1213 33.7291 42.1711C33.654 41.9944 33.5563 41.7735 33.7023 41.6432C33.8413 41.5191 33.8927 41.7534 33.9721 41.8444C33.9552 41.8607 33.9553 41.8758 33.9695 41.8888Z" fill="#FFBA31"/>
<path d="M36.7002 39.7797C36.6509 39.9011 36.5792 39.9985 36.4454 40.0339C36.343 39.9622 36.3229 39.8536 36.3088 39.7419C36.4261 39.6743 36.5435 39.6068 36.6608 39.5392C36.735 39.6101 36.7297 39.6938 36.7002 39.7797Z" fill="#FFBA31"/>
<path d="M38.5367 40.337C38.6001 40.4463 38.6646 40.5575 38.726 40.6679C38.7364 40.703 38.7458 40.7362 38.7582 40.7704C38.6136 40.8392 38.4672 40.9191 38.3198 40.7742C38.3216 40.743 38.3153 40.7158 38.2989 40.6888C38.3856 40.5761 38.3648 40.3919 38.5367 40.337Z" fill="#FFBA31"/>
<path d="M41.5092 35.2902C41.6446 35.2084 41.8051 35.1314 41.9004 35.3079C42.0172 35.5266 41.7875 35.5327 41.6722 35.5992C41.5717 35.5215 41.5264 35.413 41.5092 35.2902Z" fill="#FFBA31"/>
<path d="M42.4912 27.5781C42.662 27.4073 42.4069 27.2745 42.4428 27.117C42.4779 27.1016 42.5089 27.0731 42.5301 27.0799C42.6999 27.1349 42.7654 27.4709 42.8766 27.3963C43.1661 27.2003 43.5278 27.4178 43.7776 27.1788C43.9565 27.0089 44.1145 27.1002 44.2785 27.1885C44.3656 27.2351 44.3502 27.3138 44.3277 27.3886C44.3091 27.4512 44.2622 27.5081 44.1955 27.4815C43.8639 27.3624 43.5542 27.6776 43.2132 27.5153C43.023 27.4253 43.0169 27.6561 42.9229 27.7345C42.6838 27.9402 42.5128 27.9719 42.4872 27.5802C42.4892 27.5842 42.4912 27.5781 42.4912 27.5781Z" fill="#FFBA31"/>
<path d="M41.081 29.4026C40.9333 29.3414 41.0137 29.1966 40.9705 29.0972C41.1211 28.8077 40.8547 28.544 40.9167 28.2593C40.9458 28.2469 40.976 28.2366 41.0051 28.2242C41.0644 28.2066 41.1248 28.1959 41.1789 28.1683C41.3064 28.1057 41.4458 27.918 41.5693 28.1003C41.6949 28.2867 41.4511 28.2949 41.358 28.3652C41.2489 28.4488 41.1752 28.5472 41.2529 28.6745C41.4381 28.9823 41.2888 29.1952 41.081 29.4026Z" fill="#FFBA31"/>
<path d="M40.4843 27.3924C40.5906 27.3381 40.6969 27.2837 40.8013 27.2304C40.8666 27.2147 40.93 27.2001 40.9954 27.1844C41.0821 27.1906 41.1659 27.206 41.212 27.2963C41.0861 27.4214 40.9888 27.5774 40.8038 27.6315C40.5707 27.5962 40.5301 27.7941 40.4386 27.932C40.1351 27.7936 40.1351 27.7936 40.4843 27.3924Z" fill="#FFBA31"/>
<path d="M43.0693 30.0591C42.969 30.1054 42.8676 30.1496 42.7672 30.1958C42.6999 30.1087 42.5097 30.0187 42.6398 29.9168C42.7879 29.8006 42.8819 29.5982 43.0932 29.5712C43.1365 29.5667 43.2066 29.6246 43.2352 29.6707C43.3426 29.8461 43.0989 29.8694 43.0859 29.9975L43.066 30.0279L43.0955 30.0508C43.0935 30.0519 43.0693 30.0591 43.0693 30.0591Z" fill="#FFBA31"/>
<path d="M40.7597 29.5799C40.861 29.5357 40.9615 29.4945 41.0629 29.4503C41.2141 29.5729 41.3409 29.4347 41.4797 29.4143L41.4767 29.4083C41.3411 29.8015 41.0994 29.9377 40.8059 29.7942C40.6855 29.7368 40.711 29.663 40.7597 29.5799Z" fill="#FFBA31"/>
<path d="M45.4182 29.5064C45.2134 29.4769 45.0574 29.6123 44.8775 29.6663C44.8472 29.6615 44.8169 29.6568 44.7866 29.652C44.7039 29.6386 44.6095 29.5629 44.6978 29.5177C44.9446 29.3916 45.221 29.3136 45.5034 29.3413C45.5619 29.3469 45.4712 29.4565 45.4182 29.5064Z" fill="#FFBA31"/>
<path d="M43.3579 29.0035C43.3581 28.9148 43.3467 28.8776 43.3586 28.8564C43.4641 28.7012 43.467 28.4543 43.7207 28.4309C43.7519 28.4276 43.822 28.4855 43.8191 28.5046C43.7709 28.7469 43.6332 28.9134 43.3579 29.0035Z" fill="#FFBA31"/>
<path d="M45.4953 28.4395C45.3906 28.4475 45.2786 28.4364 45.282 28.3587C45.2907 28.2075 45.2185 28.0217 45.3586 27.9096C45.4237 27.8586 45.5472 27.9271 45.5763 28.0236C45.626 28.1804 45.585 28.3228 45.4953 28.4395Z" fill="#FFBA31"/>
<path d="M48.3036 24.8736C48.2205 24.9439 48.1867 24.9966 48.1495 24.9979C47.7033 25.0311 47.4164 25.1777 47.5451 25.7117C47.5838 25.8716 47.4121 25.9517 47.2679 25.9419C47.0824 25.9304 47.0561 25.7997 47.1101 25.643C47.1406 25.554 47.1539 25.4612 47.0967 25.3791C47.0211 25.2659 46.7567 25.2188 46.8971 25.0332C47.0406 24.8434 47.2527 24.6743 47.5127 24.673C47.7666 24.6698 48.026 24.7068 48.3036 24.8736Z" fill="#FFBA31"/>
<path d="M48.1961 23.6531C48.5612 23.3475 48.7954 23.5037 49.0297 23.675C48.7958 23.668 48.5599 23.662 48.1961 23.6531Z" fill="#FFBA31"/>
<path d="M38.8188 28.6455C38.4644 29.0265 37.9273 29.0202 37.5071 29.2627C37.2981 29.2102 36.9777 29.3309 36.9973 28.9286C37.0351 28.8739 37.0699 28.8181 37.1077 28.7634C37.1889 28.7193 37.2367 28.6494 37.2571 28.5605C37.3457 28.5557 37.4354 28.5529 37.524 28.5481C37.5595 28.5679 37.5949 28.5878 37.6304 28.6076C37.7195 28.7721 37.8235 28.9062 38.0381 28.7864C38.3347 28.7082 38.4563 28.5651 38.2181 28.2921C38.2723 28.2644 38.3224 28.2287 38.3806 28.209C38.5856 28.1397 38.8068 27.8495 38.9775 28.0052C39.2019 28.2068 38.8875 28.4282 38.8188 28.6455Z" fill="#FFBA31"/>
<path d="M40.1571 28.6095C39.9732 28.6756 39.7801 28.7187 39.6127 28.8118C39.3479 28.9573 39.2972 28.8086 39.2641 28.6003C39.3235 28.4788 39.3323 28.3276 39.5058 28.2364C39.5609 28.6611 39.7443 28.5446 39.9623 28.3522C40.0483 28.2779 40.1794 28.173 40.2844 28.3091C40.3884 28.4483 40.2309 28.5212 40.1571 28.6095Z" fill="#FFBA31"/>
<path d="M34.0222 52.3872C33.5738 52.2823 33.1176 52.0828 32.7368 52.5558C32.6999 52.6025 32.5656 52.5724 32.4135 52.5818C32.556 52.2863 32.4863 52.036 32.3743 51.7921C32.3961 51.7455 32.4178 51.699 32.4376 51.6534C32.4666 51.631 32.4967 51.6106 32.5257 51.5882C32.634 51.6416 32.7503 51.686 32.7687 51.8309C32.7827 51.9376 32.7869 52.0646 32.9534 51.9845C33.0588 51.9332 33.1985 51.8946 33.1457 51.7268C33.1094 51.6112 33.059 51.5028 33.0137 51.3894C33.0672 51.2811 33.1738 51.257 33.2753 51.2278C33.4054 51.3587 33.2165 51.6476 33.4557 51.6898C33.6364 51.7215 33.8579 51.6943 33.9933 51.5138C34.1218 51.3443 34.2422 51.1689 34.3647 50.9975C34.464 50.9493 34.5281 50.7875 34.6772 50.9011C34.6718 51.0835 34.7603 51.0686 34.8786 50.998C34.9067 50.9837 34.9338 50.9724 34.9619 50.958C35.1613 51.1749 35.14 51.2668 34.8139 51.312C34.365 51.3744 34.1796 51.7197 33.9404 52.0241C34.1961 51.9947 34.4366 51.9502 34.5815 51.7041C34.7106 51.4863 34.9405 51.4953 35.1401 51.5097C35.3741 51.5268 35.39 51.7312 35.4229 51.9194C35.4749 52.2142 35.6288 52.5252 35.2282 52.7021C35.2086 52.6489 35.1759 52.5947 35.1704 52.5393C35.1533 52.3228 35.3802 51.9943 35.0149 51.933C34.6969 51.8804 34.6858 52.2201 34.6193 52.4465C34.6115 52.4707 34.5804 52.4891 34.5474 52.5237C34.4001 52.3889 34.2379 52.2745 34.0222 52.3872Z" fill="#FFBA31"/>
<path d="M32.856 49.5004C32.7782 49.8135 33.2363 49.8881 33.1665 50.1971C32.5913 49.9976 32.3632 49.6056 32.4686 48.9949C32.5964 48.9726 32.6508 48.8563 32.7368 48.782C32.7976 48.8116 32.8552 48.8404 32.916 48.8701C32.9128 48.9729 32.9077 49.0767 32.9046 49.1795C32.8884 49.2865 32.8722 49.3935 32.856 49.5004Z" fill="#FFBA31"/>
<path d="M43.1509 38.3402C43.3586 38.1278 43.5183 37.945 43.6983 37.7872C43.8453 37.6589 44.0408 37.6652 44.133 37.8357C44.2478 38.0453 44.024 38.0382 43.9084 38.0695C43.6681 38.1341 43.541 38.4648 43.1509 38.3402Z" fill="#FFBA31"/>
<path d="M42.611 36.9614C42.7568 36.9298 42.7697 36.7917 42.8273 36.6914C42.8898 36.581 42.9381 36.4627 43.0981 36.553C43.2004 36.6095 43.3766 36.5878 43.3999 36.7226C43.437 36.9289 43.2407 36.8319 43.1514 36.88C43.0902 36.9138 43.0425 36.9838 43.0037 37.0466C42.808 37.3617 42.6978 37.2156 42.605 36.9745L42.611 36.9614Z" fill="#FFBA31"/>
<path d="M44.8499 36.6142C45.1516 36.546 45.2878 36.6738 45.3391 36.888C45.3694 37.0117 45.2163 37.133 45.1607 37.1133C44.9433 37.0346 45.0116 36.777 44.8499 36.6142Z" fill="#FFBA31"/>
<path d="M43.4058 37.1349C43.6668 37.0217 43.5165 36.6683 43.8409 36.7733C43.9683 36.8145 44.1757 36.9134 44.1233 37.0237C44.0116 37.2656 43.7598 37.169 43.4058 37.1349Z" fill="#FFBA31"/>
<path d="M41.9406 36.2055C41.9995 36.3703 41.8561 36.4511 41.7916 36.5626C41.746 36.6416 41.6524 36.6565 41.5994 36.5874C41.4821 36.4373 41.6102 36.3314 41.7011 36.2368C41.7569 36.1729 41.8462 36.1197 41.9406 36.2055Z" fill="#FFBA31"/>
<path d="M43.7293 38.5307C43.6781 38.5544 43.6269 38.578 43.5757 38.6016C43.6411 38.4721 43.6411 38.4721 43.7293 38.5307Z" fill="#FFBA31"/>
<path d="M39.0196 43.086C39.1515 43.3045 38.9969 43.3634 38.8907 43.4429C38.8127 43.503 38.743 43.4905 38.716 43.393C38.6754 43.2493 38.7004 43.115 38.8306 43.0232C38.9438 42.9476 38.993 43.0439 39.0196 43.086Z" fill="#FFBA31"/>
<path d="M38.5677 42.2112C38.6271 42.3225 38.6846 42.4349 38.744 42.5462C38.7261 42.6895 38.6035 42.7218 38.5011 42.7741C38.4664 42.721 38.4306 42.6659 38.3979 42.6118C38.375 42.5223 38.354 42.4318 38.3321 42.3443C38.391 42.2813 38.4488 42.2163 38.5097 42.1522C38.52 42.1773 38.5404 42.1973 38.5677 42.2112Z" fill="#FFBA31"/>
<path d="M56.729 40.0578C56.5922 40.0872 56.5401 40.005 56.5131 39.9176C56.4768 39.802 56.4363 39.6683 56.5859 39.5995C56.6802 39.5563 56.7772 39.5877 56.8174 39.6861C56.8801 39.8287 56.7854 39.9454 56.729 40.0578Z" fill="#FFBA31"/>
<path d="M40.2677 31.8507C40.2824 31.8103 40.2962 31.7678 40.3109 31.7274C40.3459 31.6918 40.4294 31.682 40.3753 31.6008L40.3874 31.5947C40.4636 31.5557 40.5388 31.5147 40.6131 31.4768L40.6221 31.4747C40.63 31.4555 40.6429 31.4362 40.6448 31.415C40.6457 31.407 40.6255 31.3971 40.6163 31.3891C40.6173 31.3911 40.6235 31.4082 40.6235 31.4082C40.7087 31.5848 41.0764 31.5664 41.0037 31.7757C40.928 31.989 40.6317 31.8747 40.4313 31.8936C40.3809 31.894 40.3252 31.8643 40.2677 31.8507Z" fill="#FFBA31"/>
<path d="M38.4054 31.104C38.6097 31.073 38.6956 30.8697 38.8662 30.7876C39.0128 31.4111 38.5095 31.2482 38.2099 31.3305C38.1935 31.3034 38.1822 31.2763 38.1749 31.2472C38.249 31.1991 38.3282 31.1511 38.4054 31.104Z" fill="#FFBA31"/>
<path d="M40.3992 32.7927C40.3335 32.9908 40.2646 33.1829 40.0539 33.1767C39.9299 33.1717 39.9113 33.0066 39.9438 32.9116C40.0351 32.6447 40.2446 32.8565 40.3992 32.7927Z" fill="#FFBA31"/>
<path d="M38.4284 30.2624C38.366 30.1602 38.3027 30.061 38.2403 29.9587C38.3693 29.8498 38.4523 30.0022 38.5602 30.0154C38.6268 30.0168 38.6933 30.0182 38.7598 30.0196C38.8251 30.2267 38.8251 30.2267 38.4284 30.2624Z" fill="#FFBA31"/>
<path d="M38.2369 35.6969C38.4982 36.1833 38.5336 36.1931 39.0138 35.9097C39.1271 35.8442 39.2527 35.8078 39.3603 35.8946C39.405 35.9325 39.4241 36.0391 39.4085 36.1028C39.3824 36.2249 39.2569 36.2865 39.157 36.2642C38.7308 36.1631 38.5105 36.4402 38.271 36.7043C38.1961 36.7856 38.1199 36.9435 37.9771 36.8621C37.8343 36.7807 37.9631 36.6415 37.9631 36.5277C37.9637 36.2566 38.1176 35.9932 37.9771 35.7133C37.9361 35.633 38.0314 35.5868 38.1139 35.575C38.1556 35.617 38.1963 35.6569 38.2369 35.6969Z" fill="#FFBA31"/>
<path d="M37.9328 36.9833C37.9148 36.9825 37.8947 36.9827 37.8717 36.9819C37.8756 36.9698 37.8764 36.9467 37.8834 36.9457C37.9034 36.9405 37.9255 36.9443 37.9475 36.9431C37.9436 36.9552 37.9377 36.9683 37.9328 36.9833Z" fill="#FFBA31"/>
<path d="M35.1706 49.4788C35.0702 49.6339 34.9699 49.8041 34.7454 49.7113C34.6109 49.6561 34.6016 49.5242 34.6439 49.3988C34.7096 49.2007 34.8998 49.2857 35.0314 49.2362C35.0785 49.3184 35.1245 49.3986 35.1706 49.4788Z" fill="#FFBA31"/>
</g>
<g filter="url(#filter0_d_215_301)">
<path fill-rule="evenodd" clip-rule="evenodd" d="M43.4588 33.8763C43.4549 33.8763 43.4511 33.8755 43.4473 33.8755C43.4435 33.8755 43.4412 33.8763 43.4374 33.8763H37.0135C37.0097 33.8763 37.0067 33.8755 37.0028 33.8755C36.999 33.8755 36.9952 33.8763 36.9914 33.8763H33.7581L35.9353 30.5698H40.1812C40.185 30.5698 40.188 30.5706 40.1918 30.5706C40.1957 30.5706 40.198 30.5698 40.201 30.5698H44.4821L46.6592 33.8763H43.4588ZM49.4817 35.6471C49.6383 35.4591 49.736 35.2193 49.736 34.9555C49.736 34.6708 49.6252 34.4147 49.4488 34.2221L45.9972 28.9815C45.8191 28.6466 45.4764 28.4168 45.0754 28.4129V28.4114H35.3404V28.4137C34.9753 28.4222 34.6569 28.6172 34.4706 28.9088L34.4698 28.9073L30.8883 34.3451C30.7707 34.5191 30.7012 34.7288 30.7012 34.9555C30.7012 35.1698 30.7653 35.3693 30.8722 35.5372L30.8707 35.5388L30.8768 35.5465C30.9341 35.6347 31.0051 35.7105 31.0845 35.7778L32.5439 37.4017H32.5446L33.9589 39.0688C34.1651 39.311 34.4973 39.4007 34.7944 39.2932L36.4186 38.7052L35.2999 37.3993H35.306L34.1284 36.0347H46.2782L40.1025 43.0104L37.8253 40.3492L35.7489 41.18L39.2907 45.3554L39.2984 45.3483C39.4931 45.5718 39.7757 45.7157 40.0926 45.7157C40.4087 45.7157 40.6898 45.5734 40.8845 45.3522L40.8883 45.3554L49.4145 35.726C49.4267 35.7136 49.4374 35.6989 49.4496 35.6865L49.4832 35.6486L49.4817 35.6471Z" fill="url(#paint1_linear_215_301)"/>
</g>
<defs>
<filter id="filter0_d_215_301" x="0.701172" y="0.411377" width="79.0347" height="77.3044" filterUnits="userSpaceOnUse" color-interpolation-filters="sRGB">
<feFlood flood-opacity="0" result="BackgroundImageFix"/>
<feColorMatrix in="SourceAlpha" type="matrix" values="0 0 0 0 0 0 0 0 0 0 0 0 0 0 0 0 0 0 127 0" result="hardAlpha"/>
<feOffset dy="2"/>
<feGaussianBlur stdDeviation="15"/>
<feComposite in2="hardAlpha" operator="out"/>
<feColorMatrix type="matrix" values="0 0 0 0 0.0557629 0 0 0 0 0.265407 0 0 0 0 0.820964 0 0 0 0.5 0"/>
<feBlend mode="normal" in2="BackgroundImageFix" result="effect1_dropShadow_215_301"/>
<feBlend mode="normal" in="SourceGraphic" in2="effect1_dropShadow_215_301" result="shape"/>
</filter>
<linearGradient id="paint0_linear_215_301" x1="32.1484" y1="47.1828" x2="54.1594" y2="26.6152" gradientUnits="userSpaceOnUse">
<stop stop-color="#1E5AF9"/>
<stop offset="1" stop-color="#376CFA"/>
</linearGradient>
<linearGradient id="paint1_linear_215_301" x1="51.9945" y1="27.1563" x2="28.7205" y2="44.2961" gradientUnits="userSpaceOnUse">
<stop offset="0.30172" stop-color="#FFBA30"/>
<stop offset="1" stop-color="#E29700"/>
</linearGradient>
</defs>
</svg>
