<svg width="27" height="19" viewBox="0 0 27 19" fill="none" xmlns="http://www.w3.org/2000/svg">
<path d="M26.4439 2.91359C26.1325 1.77444 25.2207 0.876268 24.0641 0.569574C21.9513 0 13.4999 0 13.4999 0C13.4999 0 5.04858 0 2.93574 0.547667C1.80148 0.854361 0.867377 1.77444 0.556011 2.91359C0 4.99473 0 9.31034 0 9.31034C0 9.31034 0 13.6479 0.556011 15.7071C0.867377 16.8462 1.77923 17.7444 2.93574 18.0511C5.07082 18.6207 13.4999 18.6207 13.4999 18.6207C13.4999 18.6207 21.9513 18.6207 24.0641 18.073C25.2207 17.7663 26.1325 16.8682 26.4439 15.729C26.9999 13.6479 26.9999 9.33225 26.9999 9.33225C26.9999 9.33225 27.0221 4.99473 26.4439 2.91359V2.91359Z" fill="white"/>
<path d="M17.8366 9.31026L10.8086 5.32324V13.2973L17.8366 9.31026Z" fill="#001E61"/>
</svg>
