<svg width="34" height="43" viewBox="0 0 34 43" fill="none" xmlns="http://www.w3.org/2000/svg">
<path d="M18.0204 25.9261H21.1588V22.3561C21.1588 22.1345 20.9782 21.9539 20.7565 21.9539C18.9274 21.9539 17.439 23.4417 17.439 25.2715V25.3454C17.439 25.6655 17.6996 25.9261 18.0204 25.9261Z" fill="white"/>
<path d="M17.439 28.0828V28.1566C17.439 29.9858 18.9274 31.4742 20.7565 31.4742C20.9782 31.4742 21.1588 31.2936 21.1588 31.072V27.5013H18.0204C17.6996 27.5013 17.439 27.7626 17.439 28.0828Z" fill="white"/>
<path d="M29.6688 22.4313H28.5654V25.9384H29.6688V22.4313Z" fill="white"/>
<path d="M29.6688 27.4891H28.5654V30.9962H29.6688V27.4891Z" fill="white"/>
<path d="M22.4749 27.4891H21.3716V30.9962H22.4749V27.4891Z" fill="white"/>
<path d="M22.4749 22.4313H21.3716V25.9384H22.4749V22.4313Z" fill="white"/>
<path d="M26.4574 27.7819H24.5839C24.4197 27.7819 24.2856 27.6519 24.2774 27.4891H22.6631V30.845C22.6631 31.2034 22.9545 31.4948 23.3129 31.4948H27.9322C28.1771 31.4948 28.3768 31.2951 28.3768 31.0502V27.4891H26.7632C26.755 27.6519 26.6216 27.7819 26.4574 27.7819Z" fill="white"/>
<path d="M26.5601 27.2841V26.1438V25.9536C26.5601 25.9481 26.5595 25.9433 26.5588 25.9386C26.5567 25.9262 26.5533 25.9153 26.5471 25.905C26.5471 25.9044 26.5465 25.9044 26.5465 25.9037C26.541 25.8941 26.5341 25.8852 26.5252 25.8777C26.5246 25.877 26.5239 25.8763 26.5225 25.8756C26.5143 25.8688 26.5047 25.8626 26.4945 25.8585C26.4938 25.8578 26.4924 25.8578 26.491 25.8578C26.4801 25.8537 26.4692 25.8517 26.4568 25.8517H24.5833C24.571 25.8517 24.56 25.8544 24.5491 25.8578C24.5477 25.8585 24.547 25.8585 24.5456 25.8585C24.5354 25.8626 24.5258 25.8688 24.5176 25.8756C24.5169 25.8763 24.5162 25.877 24.5149 25.8777C24.5067 25.8852 24.4991 25.8941 24.4937 25.9037C24.4937 25.9044 24.493 25.9044 24.493 25.905C24.4875 25.9153 24.4834 25.9269 24.4813 25.9386C24.4807 25.9433 24.48 25.9488 24.48 25.9536V26.1438V27.2841V27.4742C24.48 27.4797 24.4807 27.4845 24.4813 27.4893C24.4834 27.5016 24.4868 27.5125 24.493 27.5228C24.493 27.5235 24.4937 27.5235 24.4937 27.5242C24.4991 27.5337 24.506 27.5426 24.5149 27.5501C24.5156 27.5508 24.5162 27.5515 24.5176 27.5522C24.5258 27.559 24.5354 27.5652 24.5456 27.5693C24.5463 27.57 24.5477 27.57 24.5491 27.57C24.56 27.5741 24.571 27.5761 24.5833 27.5761H26.4568C26.4692 27.5761 26.4801 27.5734 26.491 27.57C26.4924 27.5693 26.4931 27.5693 26.4945 27.5693C26.5047 27.5652 26.5143 27.559 26.5225 27.5522C26.5232 27.5515 26.5239 27.5508 26.5252 27.5501C26.5335 27.5426 26.541 27.5337 26.5465 27.5242C26.5465 27.5235 26.5471 27.5235 26.5471 27.5228C26.5526 27.5125 26.5567 27.5009 26.5588 27.4893C26.5595 27.4845 26.5601 27.479 26.5601 27.4742V27.2841Z" fill="white"/>
<path d="M33.0795 26.144H29.6689H28.5655H26.7651V27.2843H28.5655H29.6689H33.0795V26.144Z" fill="white"/>
<path d="M24.276 26.144H22.4749H21.3715H17.9609V27.2843H21.3715H22.4749H24.276V26.144Z" fill="white"/>
<path d="M24.5839 25.6465H26.4574C26.6216 25.6465 26.7557 25.7765 26.7639 25.9393H28.3775V22.3775C28.3775 22.1326 28.1778 21.9329 27.9329 21.9329H23.3129C22.9545 21.9329 22.6631 22.2243 22.6631 22.5827V25.9386H24.2767C24.2856 25.7765 24.419 25.6465 24.5839 25.6465Z" fill="white"/>
<path d="M30.2777 21.9539C30.0561 21.9539 29.8755 22.1345 29.8755 22.3561V25.9268H33.0138C33.3347 25.9268 33.5953 25.6662 33.5953 25.3454V25.2715C33.5953 23.4417 32.1068 21.9539 30.2777 21.9539Z" fill="white"/>
<path d="M33.0138 27.5013H29.8755V31.072C29.8755 31.2936 30.0561 31.4742 30.2777 31.4742C32.1068 31.4742 33.5953 29.9858 33.5953 28.1566V28.0828C33.5953 27.7626 33.3347 27.5013 33.0138 27.5013Z" fill="white"/>
<g clip-path="url(#clip0_216_623)">
<path d="M12.7112 38.4583H2.83894C2.72785 38.4583 2.6377 38.5457 2.6377 38.6533V39.2093C2.6377 40.8649 4.02789 42.2117 5.73687 42.2117H9.81328C11.5223 42.2117 12.9125 40.8649 12.9125 39.2093V38.6533C12.9125 38.5457 12.8223 38.4583 12.7112 38.4583Z" fill="white"/>
<path d="M3.85987 34.35L3.44933 30.8547H2.10743C1.98507 30.8547 1.88525 30.9374 1.88525 31.0388L2.05671 33.6326C2.05671 34.0318 2.4262 34.3508 2.88021 34.3508H3.85987V34.35Z" fill="white"/>
<path d="M13.444 30.8547H4.396L4.82264 34.35H12.672C13.126 34.35 13.4955 34.0311 13.4955 33.6396L13.6669 31.031C13.6661 30.9374 13.5663 30.8547 13.444 30.8547Z" fill="white"/>
<path d="M3.68462 27.0179L3.65484 26.7746L3.21773 23.1935L2.27993 15.5097L2.49164 13.7246L2.54236 13.2957L2.56167 13.1358L2.56972 13.0617L2.59468 12.82C2.59709 12.7927 2.60192 12.7662 2.60675 12.7396C2.60675 12.7389 2.60675 12.7381 2.60756 12.7373C2.61319 12.7116 2.61963 12.6858 2.62688 12.6601C2.66874 12.5189 2.74682 12.3887 2.85308 12.2827L11.0164 4.17611L10.9045 3.50154C10.8417 3.12098 10.5076 2.84491 10.11 2.84491H5.58357C5.17866 2.84491 4.83494 3.13891 4.78503 3.52806L4.64335 4.62609V4.99184C4.64335 5.17588 4.51133 5.32951 4.33424 5.37006L2.56731 11.0162C2.45461 11.3765 2.3725 11.7461 2.32179 12.1197C2.32099 12.1275 2.32018 12.1353 2.31857 12.1438C2.31213 12.193 2.30569 12.2429 2.30006 12.292C2.29362 12.3505 2.28798 12.409 2.28315 12.4683L2.22278 13.1927L2.07869 14.3165L1.93782 15.4145L1.90723 15.6547L3.02695 25.1899L3.21532 26.7925L3.24188 27.0179L3.65886 30.5701L4.29318 35.9753C4.20464 36.033 4.13058 36.1102 4.07665 36.1999C4.04767 36.2482 4.02432 36.3005 4.00822 36.3558C4.00661 36.3605 4.00581 36.3652 4.0042 36.3699C3.99856 36.3917 3.99373 36.4135 3.99051 36.4354C3.98971 36.4424 3.9881 36.4486 3.98729 36.4557C3.98407 36.4829 3.98166 36.511 3.98166 36.5391C3.98166 36.9142 4.2964 37.2191 4.6836 37.2191C5.07079 37.2191 5.38554 36.9142 5.38554 36.5391C5.38554 36.5102 5.38313 36.4822 5.3791 36.4541C5.3783 36.4463 5.37669 36.4385 5.37508 36.4299C5.37186 36.4089 5.36703 36.3878 5.36139 36.3667C5.35978 36.3597 5.35817 36.3535 5.35576 36.3465C5.34771 36.32 5.33805 36.2942 5.32758 36.27C5.32597 36.2654 5.32275 36.2615 5.32114 36.2568C5.31148 36.2365 5.30102 36.2162 5.28894 36.1967C5.28492 36.1897 5.28089 36.1835 5.27687 36.1772C5.26399 36.1577 5.25111 36.139 5.23582 36.1211C5.2334 36.118 5.23099 36.1141 5.22777 36.111C5.21006 36.0899 5.19154 36.0704 5.17142 36.0517C5.16659 36.047 5.16176 36.0431 5.15693 36.0384C5.14083 36.0244 5.12392 36.0104 5.10621 35.9979C5.10058 35.9932 5.09414 35.9893 5.0885 35.9846C5.06596 35.969 5.04182 35.9542 5.01767 35.941C4.94119 35.9004 4.85587 35.8739 4.7649 35.8637L4.57976 34.3485L4.15312 30.8532L4.1185 30.5701L3.68462 27.0179Z" fill="white"/>
<path d="M3.41564 30.5701L2.99866 27.0171H1.64146C1.50462 27.0171 1.39353 27.0998 1.39111 27.2019L1.57706 29.8464C1.57706 30.2449 1.98116 30.5693 2.47784 30.5693H3.41564V30.5701Z" fill="white"/>
<path d="M13.91 27.0179H3.92822L4.3613 30.5701H13.0744C13.5711 30.5701 13.9752 30.2457 13.9752 29.8472V29.8394L14.1603 27.2027C14.1579 27.1005 14.046 27.0179 13.91 27.0179Z" fill="white"/>
<path d="M2.52257 22.9673L2.10801 19.4338H0.721831C0.600279 19.4338 0.501267 19.5165 0.498047 19.6187L0.756445 22.3177C0.756445 22.6757 1.0889 22.9673 1.49703 22.9673H2.52257Z" fill="white"/>
<path d="M14.8295 19.4338H3.00195L3.43342 22.9673H14.0535C14.4616 22.9673 14.7941 22.6757 14.7941 22.3177L14.7949 22.3068L15.0525 19.6187C15.0501 19.5165 14.9511 19.4338 14.8295 19.4338Z" fill="white"/>
<path d="M1.9101 26.7925H2.97187L2.54925 23.1935H1.18562C1.07614 23.1935 0.98679 23.2785 0.984375 23.3838L1.22587 26.1296C1.22587 26.4946 1.53257 26.7925 1.9101 26.7925Z" fill="white"/>
<path d="M14.3655 23.1935H3.46045L3.89997 26.7925H13.641C14.0186 26.7925 14.3253 26.4954 14.3253 26.1296L14.3261 26.1195L14.5667 23.3838C14.5643 23.2785 14.475 23.1935 14.3655 23.1935Z" fill="white"/>
<path d="M13.0931 34.5778H4.85016L4.98379 35.6742C5.35649 35.7959 5.62616 36.1375 5.62616 36.5399C5.62616 37.0436 5.20274 37.4538 4.68273 37.4538C4.16271 37.4538 3.73929 37.0436 3.73929 36.5399C3.73929 36.2778 3.8544 36.0415 4.03794 35.8746L3.8858 34.5778H2.45857C2.34748 34.5778 2.25732 34.6651 2.25732 34.7727L2.41832 37.4624C2.41832 37.8781 2.76124 38.2103 3.18305 38.2103H12.3695C12.7913 38.2103 13.1342 37.8781 13.1342 37.4694L13.2952 34.7657C13.2944 34.6651 13.2042 34.5778 13.0931 34.5778Z" fill="white"/>
<path d="M0.90463 11.541H2.17891C2.22238 11.3414 2.2747 11.1433 2.33588 10.9483L3.28898 7.90302C2.83899 7.90457 2.38257 7.90613 1.91488 7.90613C1.41901 7.90613 0.836207 9.82846 0.578613 11.2002C0.582638 11.3889 0.727534 11.541 0.90463 11.541Z" fill="white"/>
<path d="M0.362241 15.4153H1.69448L1.98266 13.167L2.04223 12.4495C2.06075 12.2241 2.09134 12.0003 2.13158 11.7773C1.70012 11.7788 1.27026 11.7796 0.843618 11.7796C0.313942 11.7796 0.0313942 13.702 0 15.0667C0 15.2578 0.162606 15.4153 0.362241 15.4153Z" fill="white"/>
<path d="M15.5515 15.0643C15.5515 13.709 15.3132 11.7937 14.7835 11.7796C14.1388 11.7625 13.4529 11.7515 12.7357 11.7453C12.7083 12.0962 12.5682 12.4331 12.3276 12.7069C11.9983 13.0812 11.5177 13.2964 11.0098 13.2964H2.78533L2.53418 15.4161H15.1893C15.3889 15.4153 15.5515 15.2577 15.5515 15.0643Z" fill="white"/>
<path d="M1.24918 19.2202H2.08314L1.66455 15.6539L1.66777 15.6266H0.20271C0.0932325 15.6266 0.00387978 15.7117 0.00146484 15.8169L0.242959 18.2462C0.242959 18.7827 0.693747 19.2202 1.24918 19.2202Z" fill="white"/>
<path d="M15.3484 15.6259H2.53711L2.97582 19.2202H14.3027C14.8573 19.2202 15.3089 18.7827 15.3089 18.2454L15.3097 18.2345L15.5504 15.8161C15.5472 15.7109 15.4578 15.6259 15.3484 15.6259Z" fill="white"/>
<path d="M11.4611 3.41494C11.4554 3.37829 11.4474 3.3432 11.4385 3.3081C11.4337 3.29017 11.4289 3.27301 11.4232 3.25585C11.4184 3.24026 11.4144 3.22466 11.4088 3.20984C11.4007 3.18645 11.3927 3.16461 11.3838 3.142C11.3806 3.13498 11.3782 3.12718 11.3749 3.12016C11.3452 3.04997 11.3097 2.98369 11.2695 2.92052C11.2679 2.91818 11.2671 2.91584 11.2655 2.91428C11.2405 2.87607 11.2131 2.83863 11.1842 2.80276C11.1842 2.80276 11.1842 2.80276 11.1842 2.80198C11.1246 2.72867 11.0578 2.66239 10.9845 2.6039C10.9829 2.60312 10.9813 2.60156 10.9805 2.60078C10.9475 2.57426 10.9137 2.55009 10.8783 2.52669C10.8702 2.52123 10.8614 2.51656 10.8533 2.5111C10.8235 2.49238 10.7929 2.47522 10.7624 2.45885C10.7519 2.45339 10.7414 2.44793 10.731 2.44325C10.698 2.42765 10.665 2.41284 10.6311 2.39958C10.6231 2.39646 10.615 2.39256 10.6062 2.38944C10.4524 2.33173 10.2858 2.30054 10.1111 2.30054H5.62981H5.58312C5.54287 2.30054 5.50343 2.30288 5.46479 2.306C5.45191 2.30678 5.43903 2.30912 5.42615 2.31068C5.40039 2.31379 5.37463 2.31691 5.34887 2.32159C5.33358 2.32393 5.31909 2.32705 5.30379 2.33017C5.28125 2.33485 5.25871 2.34031 5.23617 2.34577C5.22088 2.34967 5.20478 2.35357 5.18948 2.35825C5.16856 2.36448 5.14763 2.3715 5.1267 2.37852C5.1106 2.38398 5.0953 2.38944 5.08001 2.3949C5.05988 2.4027 5.04056 2.41128 5.02124 2.41985C4.98744 2.43467 4.95443 2.45105 4.92223 2.4682C4.91016 2.47444 4.89728 2.48068 4.88601 2.4877C4.86508 2.4994 4.84576 2.51266 4.82563 2.52591C4.81517 2.53215 4.80551 2.53917 4.79504 2.54541C4.77412 2.55945 4.7548 2.57426 4.73467 2.58986C4.72662 2.5961 4.71857 2.60234 4.71052 2.60858C4.68959 2.62495 4.66947 2.64211 4.65015 2.66005C4.64532 2.66473 4.64049 2.66941 4.63485 2.67409C4.4159 2.87841 4.26537 3.15213 4.22512 3.46251L4.08103 4.57536L4.07861 4.99258C4.07861 5.00272 4.07942 5.01207 4.08183 5.02143C4.08344 5.02767 4.08505 5.03313 4.08747 5.03937C4.08827 5.04249 4.08908 5.04483 4.08988 5.04795C4.0931 5.05575 4.09713 5.06277 4.10115 5.06978C4.10115 5.07056 4.10196 5.07056 4.10196 5.07134C4.10679 5.07914 4.11162 5.08616 4.11806 5.0924C4.14784 5.12593 4.19131 5.14777 4.24041 5.14777C4.29837 5.14777 4.34909 5.11735 4.37726 5.0729C4.38209 5.0651 4.38612 5.05731 4.39014 5.04873C4.39095 5.04639 4.39175 5.04405 4.39256 5.04171C4.39497 5.03547 4.39739 5.02845 4.399 5.02143C4.40061 5.01207 4.40221 5.00194 4.40221 4.9918L4.40302 4.60421L4.5455 3.49917C4.55033 3.45939 4.55919 3.4204 4.56885 3.38297C4.57126 3.37361 4.57368 3.36503 4.57609 3.35645C4.58575 3.32292 4.59702 3.28939 4.6099 3.25741C4.61151 3.25429 4.61231 3.25039 4.61392 3.24727C4.64612 3.17007 4.68879 3.09676 4.7387 3.03048C4.77412 2.98291 4.81436 2.93923 4.85703 2.89868C4.88037 2.87685 4.90533 2.85579 4.93028 2.83629C4.93109 2.83629 4.93109 2.83551 4.93189 2.83551C4.95685 2.8168 4.9818 2.79886 5.00836 2.7817C5.00997 2.78092 5.01158 2.77936 5.01319 2.77859C5.03815 2.76299 5.06391 2.74817 5.09047 2.73413C5.09369 2.73257 5.09691 2.73101 5.10013 2.72867C5.12509 2.7162 5.15004 2.7045 5.1758 2.69436C5.18063 2.69202 5.18626 2.68968 5.19109 2.68812C5.21524 2.67876 5.23939 2.67019 5.26435 2.66239C5.27159 2.66005 5.27803 2.65771 5.28528 2.65537C5.30862 2.64835 5.33277 2.64289 5.35692 2.63743C5.36578 2.63587 5.37383 2.63353 5.38268 2.63119C5.40683 2.62651 5.43098 2.62339 5.45593 2.62028C5.46479 2.6195 5.47364 2.61716 5.4825 2.61638C5.5155 2.61326 5.54931 2.6117 5.58392 2.6117H10.1103C10.1457 2.6117 10.1812 2.61404 10.2158 2.61716C10.223 2.61794 10.2311 2.6195 10.2383 2.62028C10.2665 2.62339 10.2947 2.62729 10.322 2.63353C10.3277 2.63431 10.3341 2.63587 10.3397 2.63743C10.3695 2.64367 10.3993 2.65147 10.4275 2.66005C10.4307 2.66083 10.4331 2.66161 10.4363 2.66239C10.4685 2.67253 10.5007 2.68422 10.5313 2.69748C10.7116 2.77391 10.8654 2.89634 10.9757 3.05387C10.995 3.08117 11.0127 3.1108 11.0296 3.14044C11.0336 3.14823 11.0377 3.15525 11.0417 3.16305C11.0538 3.18567 11.065 3.20906 11.0747 3.23246C11.0787 3.2426 11.0827 3.25195 11.0868 3.26209C11.0956 3.28549 11.1037 3.30888 11.1117 3.33306C11.1149 3.34242 11.1182 3.35255 11.1206 3.36191C11.1302 3.39545 11.1383 3.42976 11.1439 3.46485L12.3659 10.8469C12.3683 10.8609 12.3731 10.8734 12.3788 10.8851C12.3796 10.8875 12.3812 10.8898 12.382 10.8921C12.3876 10.9038 12.3949 10.9148 12.4037 10.9241C12.4391 10.9631 12.4931 10.9849 12.5502 10.9764C12.5929 10.9701 12.6299 10.9475 12.6557 10.914C12.6806 10.8804 12.6911 10.8391 12.6838 10.7978L12.1614 7.64095L11.4611 3.41494Z" fill="white"/>
<path d="M1.82099 7.64019H3.37138L4.08782 5.35211C3.94211 5.29362 3.83908 5.15403 3.83908 4.99182L3.8423 4.55354L3.98558 3.43134C4.08621 2.65227 4.77285 2.06504 5.58347 2.06504H10.1099C10.9052 2.06504 11.5733 2.61718 11.6997 3.37753L12.4049 7.64019H13.7307C13.7645 7.64019 13.7959 7.62693 13.8192 7.60276C13.8426 7.57858 13.8538 7.54739 13.8514 7.51463C13.7556 6.25985 13.0207 0 7.92435 0C2.62678 0 1.81053 6.25907 1.70025 7.51307C1.69703 7.54583 1.7083 7.5778 1.73164 7.60198C1.75499 7.62693 1.78638 7.64019 1.82099 7.64019Z" fill="white"/>
<path d="M12.4806 11.3897L12.45 11.2041C12.285 11.1745 12.1546 11.0481 12.1272 10.8828L11.0647 4.46387L6.24122 9.25292L3.93657 11.541L3.02533 12.4464C2.91746 12.5532 2.84985 12.6944 2.83455 12.8434L2.81201 13.0617H11.0107C11.4478 13.0617 11.8608 12.8769 12.1441 12.5548C12.1755 12.5189 12.2037 12.4823 12.2311 12.4441C12.2399 12.4316 12.248 12.4191 12.2568 12.4066C12.2745 12.3801 12.2923 12.352 12.3075 12.3248C12.3156 12.3107 12.3245 12.2959 12.3325 12.2819C12.3518 12.246 12.3695 12.2093 12.3856 12.1719C12.3953 12.1493 12.4033 12.1259 12.4122 12.1025C12.4186 12.0853 12.4243 12.069 12.4299 12.0518C12.4388 12.0245 12.4468 11.9972 12.4541 11.9699C12.4565 11.9606 12.4581 11.9512 12.4605 11.9426C12.4758 11.8771 12.4871 11.8108 12.4935 11.7438C12.5024 11.6268 12.4999 11.5082 12.4806 11.3897Z" fill="white"/>
<path d="M12.4443 7.87885L12.9209 10.7588C12.9378 10.8618 12.9128 10.9647 12.8492 11.0489C12.8074 11.1051 12.7518 11.1464 12.6882 11.1745L12.718 11.3523C12.7285 11.4147 12.7349 11.4779 12.7382 11.541H14.6468C14.8247 11.541 14.9696 11.3882 14.9736 11.1987C14.745 9.83627 14.2024 7.9194 13.7065 7.90536C13.2888 7.89444 12.8678 7.88586 12.4443 7.87885Z" fill="white"/>
</g>
<path d="M18.0204 15.1816H21.1588V11.6116C21.1588 11.39 20.9782 11.2094 20.7565 11.2094C18.9274 11.2094 17.439 12.6972 17.439 14.527V14.6009C17.439 14.921 17.6996 15.1816 18.0204 15.1816Z" fill="white"/>
<path d="M17.439 17.3383V17.4122C17.439 19.2413 18.9274 20.7298 20.7565 20.7298C20.9782 20.7298 21.1588 20.5492 21.1588 20.3276V16.7569H18.0204C17.6996 16.7569 17.439 17.0182 17.439 17.3383Z" fill="white"/>
<path d="M29.6688 11.6868H28.5654V15.1939H29.6688V11.6868Z" fill="white"/>
<path d="M29.6688 16.7446H28.5654V20.2517H29.6688V16.7446Z" fill="white"/>
<path d="M22.4749 16.7446H21.3716V20.2517H22.4749V16.7446Z" fill="white"/>
<path d="M22.4749 11.6868H21.3716V15.1939H22.4749V11.6868Z" fill="white"/>
<path d="M26.4574 17.0374H24.5839C24.4197 17.0374 24.2856 16.9074 24.2774 16.7446H22.6631V20.1005C22.6631 20.4589 22.9545 20.7503 23.3129 20.7503H27.9322C28.1771 20.7503 28.3768 20.5506 28.3768 20.3057V16.7446H26.7632C26.755 16.9074 26.6216 17.0374 26.4574 17.0374Z" fill="white"/>
<path d="M26.5601 16.5395V15.3993V15.2091C26.5601 15.2036 26.5595 15.1988 26.5588 15.1941C26.5567 15.1817 26.5533 15.1708 26.5471 15.1605C26.5471 15.1598 26.5465 15.1598 26.5465 15.1592C26.541 15.1496 26.5341 15.1407 26.5252 15.1332C26.5246 15.1325 26.5239 15.1318 26.5225 15.1311C26.5143 15.1243 26.5047 15.1181 26.4945 15.114C26.4938 15.1133 26.4924 15.1133 26.491 15.1133C26.4801 15.1092 26.4692 15.1072 26.4568 15.1072H24.5833C24.571 15.1072 24.56 15.1099 24.5491 15.1133C24.5477 15.114 24.547 15.114 24.5456 15.114C24.5354 15.1181 24.5258 15.1243 24.5176 15.1311C24.5169 15.1318 24.5162 15.1325 24.5149 15.1332C24.5067 15.1407 24.4991 15.1496 24.4937 15.1592C24.4937 15.1598 24.493 15.1598 24.493 15.1605C24.4875 15.1708 24.4834 15.1824 24.4813 15.1941C24.4807 15.1988 24.48 15.2043 24.48 15.2091V15.3993V16.5395V16.7297C24.48 16.7352 24.4807 16.74 24.4813 16.7448C24.4834 16.7571 24.4868 16.768 24.493 16.7783C24.493 16.779 24.4937 16.779 24.4937 16.7796C24.4991 16.7892 24.506 16.7981 24.5149 16.8056C24.5156 16.8063 24.5162 16.807 24.5176 16.8077C24.5258 16.8145 24.5354 16.8207 24.5456 16.8248C24.5463 16.8255 24.5477 16.8255 24.5491 16.8255C24.56 16.8296 24.571 16.8316 24.5833 16.8316H26.4568C26.4692 16.8316 26.4801 16.8289 26.491 16.8255C26.4924 16.8248 26.4931 16.8248 26.4945 16.8248C26.5047 16.8207 26.5143 16.8145 26.5225 16.8077C26.5232 16.807 26.5239 16.8063 26.5252 16.8056C26.5335 16.7981 26.541 16.7892 26.5465 16.7796C26.5465 16.779 26.5471 16.779 26.5471 16.7783C26.5526 16.768 26.5567 16.7564 26.5588 16.7448C26.5595 16.74 26.5601 16.7345 26.5601 16.7297V16.5395Z" fill="white"/>
<path d="M33.0795 15.3995H29.6689H28.5655H26.7651V16.5398H28.5655H29.6689H33.0795V15.3995Z" fill="white"/>
<path d="M24.276 15.3995H22.4749H21.3715H17.9609V16.5398H21.3715H22.4749H24.276V15.3995Z" fill="white"/>
<path d="M24.5839 14.902H26.4574C26.6216 14.902 26.7557 15.032 26.7639 15.1948H28.3775V11.633C28.3775 11.3881 28.1778 11.1884 27.9329 11.1884H23.3129C22.9545 11.1884 22.6631 11.4798 22.6631 11.8382V15.1941H24.2767C24.2856 15.032 24.419 14.902 24.5839 14.902Z" fill="white"/>
<path d="M30.2777 11.2094C30.0561 11.2094 29.8755 11.39 29.8755 11.6116V15.1823H33.0138C33.3347 15.1823 33.5953 14.9217 33.5953 14.6009V14.527C33.5953 12.6972 32.1068 11.2094 30.2777 11.2094Z" fill="white"/>
<path d="M33.0138 16.7569H29.8755V20.3276C29.8755 20.5492 30.0561 20.7298 30.2777 20.7298C32.1068 20.7298 33.5953 19.2413 33.5953 17.4122V17.3383C33.5953 17.0182 33.3347 16.7569 33.0138 16.7569Z" fill="white"/>
<path d="M18.0204 3.99325H21.1588V0.42327C21.1588 0.201643 20.9782 0.0210571 20.7565 0.0210571C18.9274 0.0210571 17.439 1.50884 17.439 3.33863V3.41251C17.439 3.73264 17.6996 3.99325 18.0204 3.99325Z" fill="white"/>
<path d="M17.439 6.14991V6.22379C17.439 8.0529 18.9274 9.54136 20.7565 9.54136C20.9782 9.54136 21.1588 9.36078 21.1588 9.13915V5.56848H18.0204C17.6996 5.56848 17.439 5.82978 17.439 6.14991Z" fill="white"/>
<path d="M29.6688 0.498474H28.5654V4.00553H29.6688V0.498474Z" fill="white"/>
<path d="M29.6688 5.55627H28.5654V9.06333H29.6688V5.55627Z" fill="white"/>
<path d="M22.4749 5.55627H21.3716V9.06333H22.4749V5.55627Z" fill="white"/>
<path d="M22.4749 0.498474H21.3716V4.00553H22.4749V0.498474Z" fill="white"/>
<path d="M26.4574 5.84904H24.5839C24.4197 5.84904 24.2856 5.71907 24.2774 5.55627H22.6631V8.91215C22.6631 9.27059 22.9545 9.56199 23.3129 9.56199H27.9322C28.1771 9.56199 28.3768 9.36225 28.3768 9.11736V5.55627H26.7632C26.755 5.71907 26.6216 5.84904 26.4574 5.84904Z" fill="white"/>
<path d="M26.5601 5.35119V4.21091V4.02074C26.5601 4.01527 26.5595 4.01048 26.5588 4.0057C26.5567 3.99338 26.5533 3.98244 26.5471 3.97218C26.5471 3.97149 26.5465 3.97149 26.5465 3.97081C26.541 3.96123 26.5341 3.95234 26.5252 3.94482C26.5246 3.94413 26.5239 3.94345 26.5225 3.94276C26.5143 3.93592 26.5047 3.92977 26.4945 3.92566C26.4938 3.92498 26.4924 3.92498 26.491 3.92498C26.4801 3.92088 26.4692 3.91882 26.4568 3.91882H24.5833C24.571 3.91882 24.56 3.92156 24.5491 3.92498C24.5477 3.92566 24.547 3.92566 24.5456 3.92566C24.5354 3.92977 24.5258 3.93592 24.5176 3.94276C24.5169 3.94345 24.5162 3.94413 24.5149 3.94482C24.5067 3.95234 24.4991 3.96123 24.4937 3.97081C24.4937 3.97149 24.493 3.97149 24.493 3.97218C24.4875 3.98244 24.4834 3.99407 24.4813 4.0057C24.4807 4.01048 24.48 4.01596 24.48 4.02074V4.21091V5.35119V5.54136C24.48 5.54683 24.4807 5.55162 24.4813 5.55641C24.4834 5.56872 24.4868 5.57966 24.493 5.58992C24.493 5.59061 24.4937 5.59061 24.4937 5.59129C24.4991 5.60087 24.506 5.60976 24.5149 5.61728C24.5156 5.61797 24.5162 5.61865 24.5176 5.61934C24.5258 5.62618 24.5354 5.63233 24.5456 5.63644C24.5463 5.63712 24.5477 5.63712 24.5491 5.63712C24.56 5.64123 24.571 5.64328 24.5833 5.64328H26.4568C26.4692 5.64328 26.4801 5.64054 26.491 5.63712C26.4924 5.63644 26.4931 5.63644 26.4945 5.63644C26.5047 5.63233 26.5143 5.62618 26.5225 5.61934C26.5232 5.61865 26.5239 5.61797 26.5252 5.61728C26.5335 5.60976 26.541 5.60087 26.5465 5.59129C26.5465 5.59061 26.5471 5.59061 26.5471 5.58992C26.5526 5.57966 26.5567 5.56803 26.5588 5.55641C26.5595 5.55162 26.5601 5.54614 26.5601 5.54136V5.35119Z" fill="white"/>
<path d="M33.0795 4.21063H29.6689H28.5655H26.7651V5.35092H28.5655H29.6689H33.0795V4.21063Z" fill="white"/>
<path d="M24.276 4.21063H22.4749H21.3715H17.9609V5.35092H21.3715H22.4749H24.276V4.21063Z" fill="white"/>
<path d="M24.5839 3.71363H26.4574C26.6216 3.71363 26.7557 3.8436 26.7639 4.0064H28.3775V0.444623C28.3775 0.199739 28.1778 0 27.9329 0H23.3129C22.9545 0 22.6631 0.291399 22.6631 0.649834V4.00571H24.2767C24.2856 3.8436 24.419 3.71363 24.5839 3.71363Z" fill="white"/>
<path d="M30.2777 0.0210571C30.0561 0.0210571 29.8755 0.201643 29.8755 0.42327V3.99394H33.0138C33.3347 3.99394 33.5953 3.73332 33.5953 3.41251V3.33863C33.5953 1.50884 32.1068 0.0210571 30.2777 0.0210571Z" fill="white"/>
<path d="M33.0138 5.56848H29.8755V9.13915C29.8755 9.36078 30.0561 9.54136 30.2777 9.54136C32.1068 9.54136 33.5953 8.0529 33.5953 6.22379V6.14991C33.5953 5.82978 33.3347 5.56848 33.0138 5.56848Z" fill="white"/>
<path d="M18.0204 36.671H21.1588V33.1011C21.1588 32.8794 20.9782 32.6989 20.7565 32.6989C18.9274 32.6989 17.439 34.1866 17.439 36.0164V36.0903C17.439 36.4104 17.6996 36.671 18.0204 36.671Z" fill="white"/>
<path d="M17.439 38.8277V38.9016C17.439 40.7307 18.9274 42.2192 20.7565 42.2192C20.9782 42.2192 21.1588 42.0386 21.1588 41.8169V38.2463H18.0204C17.6996 38.2463 17.439 38.5076 17.439 38.8277Z" fill="white"/>
<path d="M29.6688 33.1758H28.5654V36.6828H29.6688V33.1758Z" fill="white"/>
<path d="M29.6688 38.2336H28.5654V41.7406H29.6688V38.2336Z" fill="white"/>
<path d="M22.4749 38.2336H21.3716V41.7406H22.4749V38.2336Z" fill="white"/>
<path d="M22.4749 33.1758H21.3716V36.6828H22.4749V33.1758Z" fill="white"/>
<path d="M26.4574 38.5263H24.5839C24.4197 38.5263 24.2856 38.3964 24.2774 38.2336H22.6631V41.5895C22.6631 41.9479 22.9545 42.2393 23.3129 42.2393H27.9322C28.1771 42.2393 28.3768 42.0396 28.3768 41.7947V38.2336H26.7632C26.755 38.3964 26.6216 38.5263 26.4574 38.5263Z" fill="white"/>
<path d="M26.5601 38.0285V36.8882V36.6981C26.5601 36.6926 26.5595 36.6878 26.5588 36.683C26.5567 36.6707 26.5533 36.6597 26.5471 36.6495C26.5471 36.6488 26.5465 36.6488 26.5465 36.6481C26.541 36.6385 26.5341 36.6296 26.5252 36.6221C26.5246 36.6214 26.5239 36.6208 26.5225 36.6201C26.5143 36.6132 26.5047 36.6071 26.4945 36.603C26.4938 36.6023 26.4924 36.6023 26.491 36.6023C26.4801 36.5982 26.4692 36.5961 26.4568 36.5961H24.5833C24.571 36.5961 24.56 36.5989 24.5491 36.6023C24.5477 36.603 24.547 36.603 24.5456 36.603C24.5354 36.6071 24.5258 36.6132 24.5176 36.6201C24.5169 36.6208 24.5162 36.6214 24.5149 36.6221C24.5067 36.6296 24.4991 36.6385 24.4937 36.6481C24.4937 36.6488 24.493 36.6488 24.493 36.6495C24.4875 36.6597 24.4834 36.6714 24.4813 36.683C24.4807 36.6878 24.48 36.6933 24.48 36.6981V36.8882V38.0285V38.2187C24.48 38.2241 24.4807 38.2289 24.4813 38.2337C24.4834 38.246 24.4868 38.257 24.493 38.2672C24.493 38.2679 24.4937 38.2679 24.4937 38.2686C24.4991 38.2782 24.506 38.2871 24.5149 38.2946C24.5156 38.2953 24.5162 38.296 24.5176 38.2966C24.5258 38.3035 24.5354 38.3096 24.5456 38.3137C24.5463 38.3144 24.5477 38.3144 24.5491 38.3144C24.56 38.3185 24.571 38.3206 24.5833 38.3206H26.4568C26.4692 38.3206 26.4801 38.3178 26.491 38.3144C26.4924 38.3137 26.4931 38.3137 26.4945 38.3137C26.5047 38.3096 26.5143 38.3035 26.5225 38.2966C26.5232 38.296 26.5239 38.2953 26.5252 38.2946C26.5335 38.2871 26.541 38.2782 26.5465 38.2686C26.5465 38.2679 26.5471 38.2679 26.5471 38.2672C26.5526 38.257 26.5567 38.2453 26.5588 38.2337C26.5595 38.2289 26.5601 38.2235 26.5601 38.2187V38.0285Z" fill="white"/>
<path d="M33.0795 36.8884H29.6689H28.5655H26.7651V38.0287H28.5655H29.6689H33.0795V36.8884Z" fill="white"/>
<path d="M24.276 36.8884H22.4749H21.3715H17.9609V38.0287H21.3715H22.4749H24.276V36.8884Z" fill="white"/>
<path d="M24.5839 36.3909H26.4574C26.6216 36.3909 26.7557 36.5209 26.7639 36.6837H28.3775V33.1219C28.3775 32.877 28.1778 32.6773 27.9329 32.6773H23.3129C22.9545 32.6773 22.6631 32.9687 22.6631 33.3271V36.683H24.2767C24.2856 36.5209 24.419 36.3909 24.5839 36.3909Z" fill="white"/>
<path d="M30.2777 32.6989C30.0561 32.6989 29.8755 32.8794 29.8755 33.1011V36.6717H33.0138C33.3347 36.6717 33.5953 36.4111 33.5953 36.0903V36.0164C33.5953 34.1866 32.1068 32.6989 30.2777 32.6989Z" fill="white"/>
<path d="M33.0138 38.2463H29.8755V41.8169C29.8755 42.0386 30.0561 42.2192 30.2777 42.2192C32.1068 42.2192 33.5953 40.7307 33.5953 38.9016V38.8277C33.5953 38.5076 33.3347 38.2463 33.0138 38.2463Z" fill="white"/>
<defs>
<clipPath id="clip0_216_623">
<path d="M0 10C0 4.47715 4.47715 0 10 0H15.5514V42.2109H0V10Z" fill="white"/>
</clipPath>
</defs>
</svg>
