<svg width="77" height="29" viewBox="0 0 77 29" fill="none" xmlns="http://www.w3.org/2000/svg">
<path d="M76.2201 8.30107C76.2201 8.30072 76.2198 8.30037 76.2198 8.29967C76.2067 8.23843 76.1936 8.1814 76.1813 8.12891C76.1809 8.12681 76.1802 8.12506 76.1799 8.12297C76.1742 8.09847 76.1682 8.07503 76.1629 8.05263C76.1622 8.04949 76.1612 8.04599 76.1605 8.04284C76.1548 8.02079 76.1495 7.9998 76.1442 7.97985C76.1435 7.97741 76.1428 7.97496 76.1424 7.97286C76.1371 7.95256 76.1315 7.93262 76.1262 7.91442H52.1873C52.1873 7.18977 51.8529 4.94688 51.3146 3.12423C51.2995 3.07209 51.2839 3.02066 51.268 2.96922C51.2514 2.91429 51.2341 2.8604 51.2172 2.80652C50.8877 1.77045 50.4904 0.918431 50.0521 0.641656C50.0228 0.623111 49.9896 0.605266 49.9532 0.587771C48.0359 -0.332478 36.1533 -0.0613022 31.9312 0.641656C30.3264 0.908983 26.2389 2.69175 19.1665 8.05648C15.7001 8.40534 5.47286 9.50509 3.92812 10.4834C3.90234 10.4995 3.87691 10.5167 3.85078 10.5338C3.84619 10.537 3.84195 10.5401 3.83736 10.5429C3.81617 10.5573 3.79498 10.5719 3.77379 10.587C3.76637 10.5922 3.75896 10.5978 3.75189 10.6031C3.73353 10.6164 3.71481 10.63 3.69645 10.644C3.68832 10.65 3.6802 10.6566 3.67208 10.6626C3.65407 10.6762 3.63606 10.6902 3.61804 10.7046C3.60992 10.7112 3.6018 10.7179 3.59332 10.7245C3.57531 10.7392 3.5573 10.7535 3.53929 10.7686C3.53117 10.7752 3.5234 10.7819 3.51527 10.7889C3.49691 10.8046 3.47819 10.8204 3.45983 10.8365C3.45241 10.8431 3.44499 10.8494 3.43758 10.8561C3.41851 10.8732 3.39908 10.8904 3.38001 10.9079C3.3733 10.9142 3.36624 10.9205 3.35953 10.9268C3.3394 10.9453 3.31962 10.9638 3.29949 10.9831C3.29349 10.9887 3.28748 10.9946 3.28148 11.0006C3.26029 11.0209 3.23945 11.0415 3.21826 11.0625C3.21332 11.0674 3.20837 11.0723 3.20343 11.0776C3.18118 11.1 3.15893 11.1227 3.13633 11.1458C3.13244 11.1496 3.12891 11.1535 3.12503 11.1573C3.10101 11.1822 3.07735 11.2077 3.05333 11.2336C3.05122 11.2361 3.04874 11.2385 3.04662 11.2406C3.02049 11.269 2.99471 11.2976 2.96857 11.3267C2.48474 11.8725 2.01432 12.594 1.6262 13.4601C1.62584 13.4608 1.62584 13.4611 1.62549 13.4618C1.59936 13.5206 1.57322 13.5801 1.54779 13.6399C1.54179 13.6539 1.53579 13.6683 1.52978 13.6826C1.51001 13.7295 1.49058 13.7771 1.47116 13.8247C1.46339 13.8443 1.45527 13.8638 1.4475 13.8834C1.43019 13.9272 1.41324 13.9709 1.39629 14.0154C1.38816 14.0371 1.37969 14.0587 1.37157 14.0808C1.35461 14.1259 1.33837 14.1714 1.32212 14.2173C1.31471 14.2375 1.30729 14.2578 1.30023 14.2785C1.27762 14.3425 1.25573 14.4073 1.23418 14.4727C1.23348 14.4744 1.23313 14.4762 1.23242 14.4779C1.23207 14.4786 1.23207 14.4793 1.23171 14.48C1.21476 14.5318 1.19816 14.5843 1.18227 14.6371C1.17874 14.6487 1.17521 14.6602 1.17167 14.6718C1.15543 14.7257 1.13954 14.7799 1.124 14.8348C1.12329 14.8376 1.12223 14.8408 1.12153 14.8436C1.10528 14.9017 1.08939 14.9605 1.07385 15.0196C1.0735 15.0206 1.07314 15.0217 1.07279 15.0231C0.466406 17.3632 0.569883 20.3941 0.79838 21.2895H1.1187C1.26632 21.8819 1.80631 22.3214 2.44978 22.3214H5.21682C5.17585 22.5922 5.15431 22.8697 5.15431 23.1521C5.15431 26.2102 7.65683 28.6897 10.7435 28.6897C13.8301 28.6897 16.3327 26.2102 16.3327 23.1521C16.3327 22.8697 16.3111 22.5926 16.2702 22.3214H20.0352V22.8032V24.5044H21.5277H34.8692H36.3617H49.7032H51.1956H51.2264V22.8032H51.1956V22.3214H54.8541C54.8131 22.5922 54.7915 22.8697 54.7915 23.1521C54.7915 26.2102 57.2941 28.6897 60.3807 28.6897C63.4674 28.6897 65.9699 26.2102 65.9699 23.1521C65.9699 22.8697 65.9484 22.5926 65.9074 22.3214H66.4951C69.1219 22.3214 71.4899 21.2241 73.1586 19.4672C73.7053 19.2608 74.3289 19.0253 75.0625 18.7503C77.565 17.8115 76.6863 10.4663 76.2201 8.30107ZM48.1114 6.50641H48.7125V6.84231C48.5822 6.87871 48.4639 6.94519 48.3661 7.03406H48.1171C47.7106 7.03406 47.3599 7.30559 47.2787 7.68314L47.2073 8.01415C45.6199 8.12087 43.4105 8.22969 40.5975 8.33956C40.6042 5.00602 40.5209 2.59867 40.4658 1.38555C44.6314 1.31207 47.718 1.54721 48.3495 1.98809C48.5804 2.14939 48.8029 2.53359 49.0092 3.05075C48.928 3.11758 48.8655 3.20611 48.8315 3.30898H48.5469C48.2739 3.30898 48.039 3.49233 47.9868 3.74636L47.5513 5.86118C47.4821 6.19569 47.7523 6.50641 48.1114 6.50641ZM38.2168 1.45273C38.2341 1.82818 38.2543 2.3191 38.2733 2.91709H37.3279C37.0779 2.91709 36.8603 3.07804 36.7851 3.30898H36.5005C36.2275 3.30898 35.9926 3.49233 35.9403 3.74636L35.5049 5.86118C35.436 6.19534 35.7062 6.50606 36.065 6.50606H36.6661V6.84197C36.5358 6.87836 36.4178 6.94484 36.3196 7.03371H36.0707C35.6638 7.03371 35.3135 7.30524 35.2323 7.68279L35.0493 8.5327C32.3455 8.61773 29.6922 8.68981 27.4955 8.7458C27.6251 8.66602 27.7116 8.52396 27.7116 8.3616V6.01829C27.7116 5.87378 27.5933 5.75656 27.4475 5.75656H26.7118H25.7311C26.0027 5.30798 26.3894 4.90839 26.8721 4.58998C29.9803 2.53989 31.5166 2.10461 32.0072 2.01398C33.352 1.7666 35.6091 1.5626 38.2168 1.45273ZM34.8692 22.8036H21.7393H21.5274V22.3217H34.8692V22.8036ZM49.7028 22.8036H49.5216H36.3613V22.3217H49.7028V22.8036Z" fill="white"/>
</svg>
