<svg width="57" height="35" viewBox="0 0 57 35" fill="none" xmlns="http://www.w3.org/2000/svg">
<path d="M46.4897 15.1931L46.722 15.8679L56.3258 20.1564L56.6221 19.6707L46.4897 15.1931Z" fill="white"/>
<path d="M9.94158 12.0669C10.3245 12.351 10.8515 12.2816 11.3278 12.2587C11.7054 12.2408 12.1659 12.2963 12.4581 12.5669C12.0234 12.6179 11.5842 12.6428 11.1592 12.7461C10.6559 12.8686 10.1567 13.1217 9.88239 13.5609C10.0449 13.8809 10.1939 14.2079 10.3306 14.5402H43.2708L40.8457 13.7976C40.7305 13.7625 40.6656 13.6405 40.7011 13.5254C40.7363 13.4103 40.8583 13.3453 40.9734 13.3809L44.7603 14.5406H46.0576L47.4916 10.2389L46.336 9.90993L47.4916 10.2389L47.167 8.87922C48.6047 7.0366 49.5232 5.52259 49.8559 4.65393C50.5131 2.93908 48.6868 -0.603285 44.6207 1.32179C43.1777 2.00512 41.0706 3.57506 38.9863 5.53769C38.7597 5.72505 38.534 5.91609 38.3095 6.11121C38.3344 6.11244 38.3601 6.11325 38.3862 6.11448C38.2842 6.21449 38.1821 6.31572 38.0805 6.41736C37.9609 6.44553 37.8727 6.5088 37.8442 6.62922L37.7205 6.70188C37.7021 6.73658 37.6809 6.76964 37.6596 6.80107L35.4819 1.61365L33.7511 0.349864L24.3021 4.05715C24.2605 2.895 24.2351 1.69611 24.2249 1.1332C24.4388 0.987882 24.498 0.850319 24.5184 0.719694C24.5552 0.481305 24.4262 0.338027 24.3045 0.257203L24.3041 0.256795C23.7612 -0.13916 22.4966 -0.00935242 21.0622 0.19434C19.173 0.462936 17.8444 0.845012 17.5725 1.2377L17.5643 1.23893C17.5643 1.23893 17.3463 1.39608 17.4276 1.71897C17.4811 1.93246 17.6456 2.06961 17.8803 2.15289C18.2272 3.25299 19.4155 7.05824 19.442 7.6738C19.4449 7.74402 19.4339 7.82402 19.4122 7.91219C19.3249 7.90689 19.2412 7.89015 19.1673 7.84443C19.0739 7.78606 19.0126 7.68932 18.9379 7.60849C18.653 7.30153 18.137 7.29459 17.8003 7.52644C17.7611 7.50644 17.7215 7.48726 17.6819 7.46848C17.3239 7.29581 16.9659 7.12314 16.6079 6.95047C16.481 6.88924 16.3503 6.82515 16.2581 6.71821C16.1997 6.65044 16.1597 6.56799 16.096 6.50513C15.9242 6.33491 15.6466 6.35695 15.407 6.39083C14.9241 6.459 14.3689 6.57615 14.1465 7.01048C14.0828 7.13457 14.0513 7.27907 13.955 7.3799C13.7166 7.63054 13.3031 7.45134 13.0027 7.2803C12.6512 7.08028 12.2663 6.90231 11.8622 6.91537C11.458 6.92843 11.0364 7.18764 10.9609 7.58482C10.9307 7.74442 10.9568 7.91097 10.9237 8.07017C10.8474 8.43755 10.4653 8.73104 10.5233 9.10169C10.5678 9.38621 10.847 9.55112 11.0617 9.75441C11.0066 9.84543 10.9592 9.94054 10.9217 10.0389C10.8894 10.1226 10.8621 10.21 10.8057 10.2794C10.6645 10.4537 10.4049 10.4541 10.1918 10.5239C9.88688 10.6239 9.64809 10.9031 9.59706 11.2198C9.54563 11.5354 9.68401 11.8758 9.94158 12.0669ZM44.7072 13.536L44.9983 12.6432C45.0432 12.5053 45.1497 12.4465 45.2771 12.4881C45.4044 12.5298 45.4559 12.6396 45.411 12.7775L45.3281 13.0323L45.7681 12.7828C45.8775 12.7212 45.9282 12.7 45.9959 12.7224C46.107 12.7588 46.1474 12.8788 46.1221 12.9559C46.1029 13.0151 46.0665 13.0408 45.9947 13.0792L45.7314 13.2294L45.8857 13.8213C45.8967 13.8666 45.9016 13.9119 45.8873 13.9568C45.8522 14.0642 45.7232 14.1136 45.6155 14.0785C45.551 14.0572 45.4975 14.0201 45.4751 13.9315L45.3355 13.4041L45.1775 13.4935L45.1195 13.6711C45.0746 13.8091 44.9681 13.8678 44.8407 13.8262C44.7138 13.7842 44.6623 13.6744 44.7072 13.536ZM44.0802 12.0983C44.2076 12.1399 44.259 12.2497 44.2141 12.3877L43.9668 13.1461L44.3986 13.287C44.5044 13.3213 44.5562 13.4058 44.5219 13.5115C44.4876 13.6172 44.3958 13.6548 44.2901 13.6205L43.6806 13.4217C43.521 13.3698 43.4696 13.2715 43.5259 13.0996L43.8018 12.2534C43.8467 12.115 43.9533 12.0567 44.0802 12.0983ZM43.6067 10.9247L43.6133 10.9708C43.7231 11.1627 43.8876 11.8538 43.4422 11.746C42.796 11.5893 43.4353 11.1349 43.6067 10.9247ZM43.3789 11.8697C43.5063 11.9113 43.5577 12.0211 43.5128 12.1591L43.2218 13.0519C43.1769 13.1898 43.0703 13.2486 42.943 13.207C42.8156 13.1653 42.7642 13.0555 42.8091 12.9176L43.1001 12.0248C43.1455 11.8864 43.2516 11.8281 43.3789 11.8697ZM41.0861 12.3975L41.389 11.4688C41.4322 11.3362 41.5355 11.2688 41.6772 11.315L41.7939 11.3529C41.9249 11.3954 41.9641 11.4578 41.9564 11.5962L41.918 12.2918L41.9217 12.293L42.3005 11.7085C42.376 11.5921 42.4446 11.5648 42.5752 11.6076L42.6919 11.6456C42.8336 11.6917 42.8773 11.8072 42.834 11.9399L42.5311 12.8686C42.4907 12.9923 42.3972 13.0294 42.2862 12.9931C42.1752 12.9567 42.1213 12.8718 42.1617 12.7481L42.3662 12.1207L42.3625 12.1195L41.9486 12.7563C41.8968 12.8367 41.8466 12.8498 41.7482 12.818C41.6494 12.7857 41.6172 12.7453 41.6225 12.6502L41.6633 11.8922L41.6596 11.8909L41.4551 12.5183C41.4147 12.642 41.3212 12.6792 41.2102 12.6428C41.0991 12.6061 41.0457 12.5212 41.0861 12.3975ZM37.9985 13.0057C38.0033 13.029 38.0038 13.0457 38.0013 13.0584L37.9968 13.0719C37.9699 13.1208 37.8593 13.0372 37.8225 12.9735C37.7237 12.8812 37.9642 12.842 37.9985 13.0057ZM27.1028 10.2361C27.0713 10.2724 27.0097 10.3096 26.9766 10.3006C26.9705 10.2802 26.964 10.2598 26.9574 10.2393C26.9587 10.2336 26.9599 10.2275 26.9619 10.2206C26.9742 10.1793 27.0162 10.1071 27.0652 10.0769C27.0811 10.0601 27.0999 10.0487 27.1183 10.0495C27.2211 10.0561 27.1321 10.2026 27.1028 10.2361ZM27.2926 10.1348C27.2954 10.1055 27.3216 10.0757 27.3509 10.0573C27.3726 10.0287 27.4077 10.0112 27.4412 10.0381C27.4881 10.0761 27.4399 10.1304 27.4044 10.1561C27.3673 10.1826 27.2848 10.2132 27.2926 10.1348ZM27.4791 10.8333C27.484 10.7978 27.504 10.7749 27.5322 10.7663C27.5803 10.6827 27.7681 10.6965 27.7142 10.8035C27.6779 10.8753 27.5334 10.8725 27.4791 10.8333ZM27.6571 9.74542L27.6616 9.74379C27.6959 9.71277 27.744 9.69073 27.8053 9.68787L27.6616 9.74379C27.6612 9.7442 27.6608 9.7442 27.6608 9.74461C27.7457 9.72338 27.8673 9.62705 27.9551 9.71195C28.0437 9.79727 27.9379 9.89401 27.844 9.93973C27.5926 10.0622 27.544 9.85196 27.6608 9.74461C27.6595 9.74461 27.6583 9.74502 27.6571 9.74542ZM28.1624 9.50785C28.1139 9.48173 28.1437 9.45111 28.1841 9.43193C28.2024 9.41397 28.2343 9.39682 28.2494 9.39478C28.2886 9.38947 28.3865 9.40172 28.3706 9.46417C28.3547 9.52459 28.2045 9.5303 28.1624 9.50785ZM28.3065 9.99851C28.2731 10.0173 28.18 10.0357 28.1547 9.99279C28.1314 9.9532 28.1771 9.90789 28.2176 9.89605C28.2674 9.86625 28.4417 9.92299 28.3065 9.99851ZM28.1645 10.4953C28.1253 10.5137 27.9861 10.5349 27.9845 10.4655C27.9837 10.4332 28.0261 10.401 28.0649 10.3875C28.1184 10.3569 28.3155 10.4247 28.1645 10.4953ZM27.9632 10.1916C27.9298 10.2006 27.8379 10.2287 27.8265 10.19L27.8138 10.1973C27.8179 10.1949 27.822 10.192 27.8261 10.1891C27.8249 10.1834 27.8249 10.1761 27.8273 10.1671C27.8367 10.1328 27.8889 10.1153 27.931 10.1104C27.9596 10.0957 27.989 10.0904 28.0196 10.1071C28.0918 10.1467 27.9996 10.1818 27.9632 10.1916ZM27.7249 13.8666C27.7151 13.816 27.7053 13.7654 27.6955 13.7152C27.7477 13.6556 27.8298 13.6286 27.8755 13.7184C27.9302 13.825 27.82 13.8654 27.7249 13.8666ZM27.8649 13.4992C27.8694 13.447 27.9024 13.4229 27.9534 13.4282L27.9514 13.4303C27.9694 13.4266 27.991 13.4303 28.0139 13.4417C27.9898 13.5041 27.9257 13.5254 27.8649 13.4992ZM28.1053 13.129C28.1649 13.098 28.2531 13.1306 28.1669 13.2335C28.029 13.3992 27.96 13.1572 28.1053 13.129ZM28.1457 14.3887C28.1588 14.3263 28.1922 14.2475 28.2535 14.2181L28.2335 14.254C28.2833 14.1809 28.3633 14.1001 28.3702 14.2144C28.3747 14.2899 28.2037 14.4042 28.1457 14.3887ZM28.1486 13.685C28.0408 13.6433 28.1763 13.4719 28.2898 13.3992C28.3196 13.3494 28.3637 13.3094 28.4159 13.3507C28.4127 13.4445 28.2825 13.7368 28.1486 13.685ZM28.5029 13.0437C28.4519 13.1025 28.322 13.1637 28.3621 13.0286C28.3743 12.9874 28.4163 12.9151 28.4657 12.8849C28.4817 12.8682 28.5004 12.8567 28.5188 12.8575C28.6217 12.8633 28.5323 13.0098 28.5029 13.0437ZM28.418 11.0778C28.3984 11.0872 28.3825 11.0892 28.3608 11.0647C28.3804 11.0055 28.507 10.9157 28.5629 10.9925C28.618 11.0684 28.4886 11.0864 28.418 11.0778ZM28.6106 9.78298C28.596 9.85278 28.3898 9.78624 28.3494 9.76583C28.3306 9.75645 28.2841 9.73114 28.282 9.70256C28.2735 9.68787 28.2727 9.67031 28.2857 9.6548C28.3074 9.6299 28.358 9.64337 28.3857 9.64705C28.4363 9.6544 28.6278 9.69971 28.6106 9.78298ZM28.5902 9.38539C28.5976 9.36212 28.6119 9.3458 28.6302 9.33641C28.6502 9.32253 28.6739 9.31396 28.698 9.31151C28.7286 9.32049 28.7592 9.33151 28.7894 9.34457C28.7923 9.34743 28.7956 9.35029 28.798 9.35355C28.7576 9.41192 28.649 9.4307 28.5902 9.38539ZM28.7809 9.87687C28.8319 9.84666 28.916 9.86788 28.9641 9.8985C28.9462 10.0173 28.7176 10.0022 28.6327 9.97279C28.6339 9.89768 28.7094 9.8736 28.7809 9.87687ZM29.563 9.99483C29.4695 10.0634 29.2519 9.8487 29.4205 9.84625C29.4875 9.80216 29.6463 9.93361 29.563 9.99483ZM29.6491 12.202C29.6883 12.1967 29.7863 12.2089 29.7703 12.2714C29.7548 12.3322 29.6046 12.3375 29.5626 12.315C29.514 12.2889 29.5438 12.2583 29.5842 12.2391C29.6022 12.2212 29.634 12.204 29.6491 12.202ZM29.2442 12.7465C28.9927 12.869 28.9441 12.6588 29.0609 12.5514C29.0597 12.5518 29.0584 12.5518 29.0576 12.5522L29.0621 12.5506C29.0964 12.5196 29.1446 12.4975 29.2058 12.4947L29.0621 12.5506C29.0617 12.551 29.0617 12.551 29.0613 12.5514C29.1462 12.5302 29.2679 12.4338 29.3556 12.5187C29.4438 12.6041 29.3381 12.7008 29.2442 12.7465ZM28.9633 9.63888C28.9829 9.6148 29.0046 9.60786 29.0307 9.61153C29.1009 9.56622 29.1899 9.5748 29.2446 9.64378C29.1997 9.73114 29.0066 9.72338 28.9633 9.63888ZM28.8127 10.4173C28.7996 10.4124 28.8001 10.4002 28.8082 10.3863C28.8086 10.3769 28.8107 10.3671 28.8152 10.3565L28.8229 10.3683C28.8621 10.33 28.9458 10.3002 28.9776 10.3998C29.0099 10.4998 28.8429 10.4969 28.8127 10.4173ZM28.6731 12.6788C28.6494 12.6302 28.738 12.5869 28.7735 12.591L28.7719 12.5922C28.8331 12.5804 28.9099 12.613 28.8315 12.671C28.8013 12.6939 28.6964 12.7261 28.6731 12.6788ZM28.6927 12.942C28.6956 12.9127 28.7217 12.8829 28.7511 12.8645C28.7727 12.8359 28.8078 12.8184 28.8413 12.8453C28.8882 12.8833 28.8401 12.9371 28.8045 12.9633C28.7678 12.9898 28.6849 13.0204 28.6927 12.942ZM28.74 13.2347C28.7535 13.178 28.8429 13.1168 28.9192 13.0959C28.9625 13.0763 29.0213 13.0723 29.0548 13.0849C29.1687 13.1274 29.0809 13.229 29.0037 13.256C28.9515 13.2739 28.7062 13.3743 28.74 13.2347ZM29.1144 13.6111C29.078 13.6829 28.9335 13.6797 28.8792 13.6409C28.8841 13.6054 28.9041 13.5825 28.9323 13.5739C28.9809 13.4899 29.1687 13.5037 29.1144 13.6111ZM29.2266 12.9972L29.214 13.0045C29.2181 13.0021 29.2221 12.9992 29.2262 12.9963C29.2246 12.9906 29.225 12.9833 29.2274 12.9743C29.2368 12.94 29.2891 12.9225 29.3311 12.9176C29.3597 12.9029 29.3895 12.8976 29.4197 12.9143C29.492 12.9539 29.3997 12.989 29.3634 12.9988C29.3299 13.0078 29.2381 13.0359 29.2266 12.9972ZM29.565 13.3025C29.5258 13.3209 29.3866 13.3421 29.385 13.2727C29.3842 13.2404 29.4266 13.2082 29.4654 13.1947C29.5189 13.1641 29.7156 13.2319 29.565 13.3025ZM29.7067 12.8057C29.6732 12.8245 29.5801 12.8429 29.5548 12.8C29.5315 12.7604 29.5773 12.7151 29.6177 12.7032C29.6675 12.6734 29.8422 12.7306 29.7067 12.8057ZM29.8181 13.885C29.7985 13.8944 29.7826 13.8968 29.761 13.8719C29.7806 13.8127 29.9071 13.7229 29.963 13.7997C30.0181 13.8756 29.8887 13.8936 29.8181 13.885ZM30.0108 12.5902C29.9961 12.66 29.7899 12.5934 29.7495 12.573C29.7307 12.5636 29.6842 12.5383 29.6822 12.5098C29.6736 12.4951 29.6728 12.4775 29.6858 12.462C29.7075 12.4371 29.7581 12.4506 29.7859 12.4542C29.8369 12.4616 30.0283 12.5069 30.0108 12.5902ZM30.1985 12.1607C30.1581 12.2191 30.0496 12.2379 29.9908 12.1926C29.9981 12.1693 30.012 12.153 30.0308 12.1436C30.081 12.1085 30.1557 12.1044 30.1985 12.1607ZM30.3194 10.1573C30.4157 10.29 30.2206 10.254 30.1455 10.1998C30.0177 10.1561 30.221 10.0222 30.3194 10.1573ZM30.0332 12.78C30.0345 12.7049 30.11 12.6808 30.1814 12.6841C30.2324 12.6539 30.3165 12.6751 30.3647 12.7057C30.3467 12.8245 30.1177 12.8094 30.0332 12.78ZM30.2128 13.2249C30.1998 13.22 30.2002 13.2078 30.2083 13.1939C30.2088 13.1845 30.2112 13.1747 30.2153 13.1641L30.223 13.1759C30.2622 13.1376 30.3459 13.1078 30.3777 13.2074C30.41 13.307 30.2435 13.3041 30.2128 13.2249ZM31.5456 13.0069C31.4183 12.9629 31.6211 12.829 31.7195 12.9641C31.8158 13.0972 31.6207 13.0612 31.5456 13.0069ZM33.9136 12.1518C33.9205 12.1309 33.932 12.1142 33.9458 12.1016C34.0099 12.0195 34.1752 11.9807 34.1826 12.122C34.1903 12.2812 33.9801 12.2138 33.9136 12.1518ZM34.4308 12.7763C34.4038 12.8473 34.2014 12.8816 34.1548 12.8437C34.192 12.7922 34.2552 12.7339 34.3226 12.7322L34.2899 12.7567C34.3651 12.7106 34.4712 12.6694 34.4308 12.7763ZM34.4218 11.9256C34.374 11.973 34.3071 11.9664 34.2622 11.9175C34.2875 11.8713 34.3275 11.8632 34.3724 11.8889L34.37 11.8901C34.3875 11.8938 34.4055 11.906 34.4218 11.9256ZM34.4451 12.2028C34.3638 12.1207 34.5577 12.0195 34.6904 11.9999C34.7377 11.9669 34.7945 11.9481 34.8255 12.0073C34.7847 12.0914 34.5463 12.3048 34.4451 12.2028ZM34.6328 11.6778C34.7002 11.6738 34.7671 11.7399 34.6463 11.7987C34.4528 11.893 34.4887 11.6444 34.6328 11.6778ZM35.357 12.5302C35.2945 12.5808 35.1639 12.5191 35.1304 12.4612C35.1496 12.431 35.177 12.4179 35.2064 12.422C35.2843 12.3653 35.4501 12.4547 35.357 12.5302ZM35.7105 12.0158L35.6962 12.0175C35.7007 12.0171 35.7056 12.0158 35.7105 12.015C35.7117 12.0093 35.7146 12.0028 35.7207 11.9954C35.7431 11.9681 35.7982 11.9734 35.8383 11.986C35.8701 11.9844 35.8995 11.9918 35.9203 12.0191C35.9701 12.0848 35.8717 12.0791 35.8342 12.073C35.8003 12.0677 35.7048 12.0558 35.7105 12.0158ZM35.7419 12.3322C35.7546 12.3024 35.8064 12.2901 35.8472 12.2938C35.9085 12.2877 36.0607 12.4302 35.8942 12.4326C35.8509 12.4334 35.715 12.3959 35.7419 12.3322ZM37.2339 12.3624C37.2837 12.3763 37.3335 12.3881 37.3837 12.3975C37.4245 12.4506 37.4408 12.5338 37.3747 12.5481C37.2906 12.5661 37.209 12.4155 37.2339 12.3624ZM36.6306 12.0971C36.7069 12.1416 36.7849 12.1832 36.8637 12.2208C36.7947 12.3118 36.5991 12.2081 36.5351 12.1477C36.5542 12.1065 36.5906 12.0938 36.6306 12.0971ZM36.5261 12.5967C36.5306 12.5885 36.5363 12.5804 36.5444 12.5722L36.5469 12.5861C36.5983 12.5673 36.6869 12.5743 36.6755 12.6783C36.6636 12.7824 36.5126 12.7118 36.5175 12.6269C36.5073 12.6175 36.5126 12.6061 36.5261 12.5967ZM36.1873 11.9077C36.2452 11.9007 36.3812 12.0244 36.2269 12.0375C36.1889 12.0407 36.0962 12.0199 36.0905 11.9701C36.0852 11.9248 36.1452 11.9019 36.1873 11.9077ZM35.8868 13.0682C35.8652 13.0686 35.8497 13.0645 35.8399 13.0331C35.8819 12.9869 36.0342 12.9567 36.0538 13.0498C36.0734 13.1417 35.9481 13.1049 35.8868 13.0682ZM35.7411 11.5415C35.7399 11.5415 35.7386 11.5411 35.7374 11.5407L35.7423 11.5411C35.7419 11.5415 35.7415 11.5415 35.7411 11.5415C35.7811 11.5489 35.8346 11.5444 35.8848 11.5489C35.9321 11.5901 35.9811 11.6321 36.0321 11.6738C36.033 11.757 35.9191 11.7913 35.8289 11.7942C35.5492 11.8036 35.5909 11.5917 35.7411 11.5415ZM35.4627 11.4603L35.4607 11.4607C35.5215 11.475 35.5778 11.5362 35.4827 11.557C35.446 11.5652 35.337 11.5517 35.3349 11.4991C35.3333 11.4452 35.4317 11.4415 35.4627 11.4603ZM35.2455 11.7472C35.2602 11.7215 35.2962 11.7052 35.3305 11.7003C35.3619 11.6832 35.4011 11.6811 35.4207 11.7195C35.448 11.7734 35.3819 11.8032 35.339 11.8121C35.2945 11.8215 35.2064 11.8158 35.2455 11.7472ZM35.1692 12.0338C35.2047 11.9877 35.3113 11.9685 35.3896 11.9807C35.4374 11.9807 35.4921 12.0007 35.5178 12.026C35.6044 12.1118 35.4827 12.1681 35.4015 12.1612C35.3456 12.1563 35.081 12.1473 35.1692 12.0338ZM34.9088 11.6909C34.9369 11.6583 35.0047 11.6097 35.0619 11.6023C35.0831 11.5933 35.1047 11.5909 35.1215 11.5991C35.2129 11.6464 35.0712 11.7436 35.0308 11.7623C34.9602 11.795 34.8169 11.7983 34.9088 11.6909ZM34.6434 10.3749C34.4002 10.4802 34.143 10.5541 33.8809 10.5937C33.705 10.6202 33.5233 10.6316 33.3499 10.5908C33.1764 10.55 33.0106 10.4528 32.9176 10.3014C32.8278 10.1548 32.8143 9.96422 32.8833 9.80665C32.9445 9.66664 33.047 9.63276 33.147 9.53724C33.1649 9.50908 33.1854 9.48581 33.2074 9.46499C33.2356 9.41397 33.2221 9.37192 33.2262 9.2711C33.2307 9.15435 33.2596 9.03965 33.3135 8.93882C33.3139 8.938 33.3139 8.93719 33.3143 8.93637C33.4593 8.52164 33.8564 8.36775 34.0479 8.42408C34.1491 8.45388 34.2316 8.52572 34.2961 8.60899C34.6357 9.04863 34.643 9.61153 34.8622 10.1218C34.8157 10.2393 34.7377 10.3447 34.6434 10.3749ZM33.405 5.38747C33.4054 5.38747 33.4058 5.38747 33.4058 5.38747C33.9944 5.39686 34.3577 5.83731 34.3671 6.10468C34.372 6.24592 34.3153 6.38103 34.2365 6.49819C33.8201 7.11539 33.107 7.36276 32.5498 7.85668C32.3808 7.8477 32.2142 7.79259 32.1359 7.68564C31.8991 7.42031 31.6971 7.12437 31.5358 6.8076C31.4276 6.59493 31.337 6.36838 31.3154 6.13081C31.2938 5.89282 31.3476 5.64096 31.5015 5.4585C31.6501 5.28256 31.8873 5.185 32.1167 5.20623C32.3204 5.22501 32.4073 5.34134 32.5706 5.42788C32.6143 5.4389 32.6527 5.45523 32.6882 5.47442C32.7649 5.48911 32.8127 5.45401 32.9425 5.41645C33.0943 5.37237 33.2535 5.36094 33.405 5.38747ZM32.0734 2.96031C32.0775 2.92602 32.0865 2.8901 32.1008 2.85254C32.1151 2.81499 32.1334 2.77744 32.1555 2.73947C32.1775 2.70192 32.2028 2.66804 32.231 2.63742C32.2498 2.60966 32.2681 2.58436 32.2865 2.56068C32.3049 2.537 32.3241 2.51578 32.3445 2.49618C32.3649 2.47659 32.3865 2.45904 32.409 2.44353C32.4318 2.42801 32.4571 2.41495 32.4853 2.40393C32.5106 2.39413 32.5388 2.38475 32.5694 2.37617C32.6 2.36719 32.6298 2.3627 32.658 2.3627C32.6861 2.3627 32.7122 2.36842 32.7355 2.38066C32.7592 2.3925 32.7767 2.41373 32.7882 2.44434C32.7918 2.45373 32.7951 2.46639 32.7984 2.48271C32.8016 2.49904 32.8033 2.51578 32.8033 2.53333C32.8033 2.55088 32.8008 2.5668 32.7967 2.58109C32.7927 2.59538 32.7845 2.60477 32.7727 2.60926C32.7531 2.6166 32.7355 2.61905 32.7196 2.6162C32.7041 2.61334 32.6894 2.60966 32.6759 2.60436C32.6624 2.59946 32.6486 2.59497 32.6347 2.5917C32.6208 2.58844 32.6057 2.58966 32.5894 2.59579C32.5698 2.60313 32.5486 2.61538 32.5253 2.63252C32.502 2.64967 32.4796 2.66967 32.4567 2.69212C32.4343 2.71498 32.413 2.73947 32.3934 2.76519C32.3739 2.79131 32.3567 2.81662 32.3424 2.84193C32.3281 2.86683 32.3179 2.8901 32.3114 2.91133C32.3049 2.93296 32.3045 2.95051 32.3098 2.96398C32.3151 2.97827 32.3245 2.98848 32.3375 2.99419C32.3506 2.9999 32.3653 3.00358 32.3824 3.0048C32.4049 3.00807 32.4302 3.0097 32.4583 3.01093C32.4865 3.01174 32.5147 3.01256 32.5433 3.01338C32.5718 3.01419 32.5996 3.01501 32.6269 3.01623C32.6543 3.01746 32.678 3.01909 32.6984 3.02113C32.7257 3.0244 32.751 3.02807 32.7735 3.03256C32.7959 3.03705 32.8163 3.04358 32.8343 3.05256C32.8523 3.06113 32.8678 3.07297 32.8812 3.08726C32.8947 3.10155 32.9057 3.12032 32.9143 3.14318C32.9184 3.1542 32.9221 3.16563 32.9245 3.17747C32.927 3.18931 32.9294 3.20278 32.9315 3.2187C32.9339 3.23258 32.9351 3.24891 32.9351 3.2685C32.9351 3.28809 32.9347 3.30728 32.9339 3.32647C32.9331 3.34565 32.9315 3.36361 32.9286 3.37953C32.9261 3.39586 32.9229 3.40688 32.9196 3.413C32.8984 3.45627 32.8702 3.49995 32.8351 3.54404C32.8004 3.58812 32.7625 3.62935 32.7212 3.66813C32.68 3.70691 32.6371 3.74161 32.5931 3.77181C32.5486 3.80243 32.5061 3.8257 32.4653 3.84121C32.4449 3.84896 32.4208 3.85345 32.393 3.85509C32.3653 3.85631 32.3387 3.85468 32.3126 3.84937C32.2869 3.84406 32.2636 3.8359 32.2432 3.82406C32.2228 3.81263 32.2093 3.79835 32.2028 3.7812C32.1996 3.77263 32.1983 3.76242 32.1995 3.74977C32.2008 3.73712 32.2032 3.72487 32.2077 3.71303C32.2118 3.70119 32.2171 3.69017 32.2236 3.68078C32.2302 3.67099 32.2371 3.66446 32.2449 3.6616C32.2518 3.65915 32.2583 3.65752 32.2645 3.65711C32.2706 3.6567 32.2775 3.65629 32.2853 3.65588C32.293 3.65548 32.3012 3.65425 32.3102 3.65303C32.3192 3.65139 32.3306 3.64813 32.3445 3.64282C32.3845 3.62772 32.4269 3.60649 32.4726 3.57914C32.5184 3.55179 32.56 3.52322 32.5984 3.49301C32.6363 3.4628 32.6678 3.43301 32.6918 3.40402C32.7163 3.37463 32.7269 3.35014 32.7241 3.32973C32.7229 3.31871 32.7208 3.30932 32.7176 3.30157C32.7122 3.28728 32.6996 3.27585 32.6808 3.26809C32.6616 3.26034 32.6392 3.25462 32.6135 3.25095C32.5877 3.24727 32.5604 3.24483 32.5318 3.24401C32.5033 3.24319 32.4767 3.24278 32.4522 3.24238L32.402 3.24115C32.3767 3.24115 32.351 3.23911 32.3249 3.23462C32.2992 3.23054 32.2738 3.2236 32.2494 3.21462C32.2249 3.20564 32.2016 3.19258 32.1791 3.17625C32.1567 3.15992 32.1367 3.1391 32.1195 3.11379C32.1114 3.10318 32.104 3.09257 32.0975 3.08114C32.091 3.07012 32.0848 3.05787 32.0799 3.04399C32.0718 3.02236 32.0693 2.9946 32.0734 2.96031ZM30.7986 3.80365C30.8084 3.77059 30.8276 3.74405 30.857 3.72283C30.859 3.70079 30.8639 3.66976 30.8713 3.63057C30.8786 3.59139 30.8896 3.5473 30.9043 3.49873C30.919 3.45015 30.9374 3.39994 30.9598 3.3481C30.9823 3.29626 31.0101 3.24605 31.0427 3.19829C31.0754 3.15012 31.1137 3.10645 31.1578 3.06726C31.2019 3.02807 31.2525 2.99746 31.3105 2.97541C31.3599 2.95664 31.4052 2.94602 31.446 2.94398C31.4868 2.94194 31.5236 2.94684 31.5554 2.95908C31.5872 2.97133 31.615 2.9897 31.6379 3.0146C31.6611 3.0395 31.6791 3.06889 31.6922 3.10277C31.7032 3.13175 31.7101 3.16074 31.7122 3.19013C31.7187 3.24238 31.7126 3.29218 31.6938 3.34034C31.675 3.38851 31.6493 3.43423 31.6154 3.4775C31.5819 3.52118 31.5428 3.56159 31.4983 3.59914C31.4538 3.6367 31.408 3.6714 31.3611 3.70283C31.3142 3.73426 31.268 3.76242 31.2231 3.78692C31.1778 3.81141 31.1386 3.83223 31.1052 3.84896C31.1035 3.86733 31.1043 3.88897 31.1076 3.91468C31.1109 3.93999 31.117 3.96408 31.1256 3.98612C31.1444 4.03551 31.1786 4.06613 31.228 4.07837C31.2774 4.09062 31.3366 4.08368 31.4056 4.05715C31.4456 4.04204 31.4819 4.02286 31.515 4C31.5481 3.97714 31.5783 3.95224 31.6056 3.9257C31.633 3.89917 31.6579 3.87223 31.6803 3.84447C31.7028 3.81671 31.7228 3.79059 31.7407 3.76528C31.7636 3.73303 31.786 3.70487 31.8085 3.68038C31.8305 3.65588 31.8526 3.63956 31.8738 3.63139C31.895 3.62323 31.9105 3.62323 31.9207 3.6318C31.9305 3.63996 31.9379 3.65017 31.9428 3.66201C31.9452 3.66895 31.9477 3.67548 31.9497 3.68201C31.9518 3.68854 31.953 3.69425 31.9538 3.69874C31.9579 3.72242 31.9579 3.74773 31.9538 3.77467C31.9497 3.80161 31.9408 3.82692 31.9273 3.8506C31.8656 3.95428 31.7938 4.03837 31.7122 4.10368C31.6305 4.16899 31.537 4.22165 31.4317 4.26206C31.4113 4.26982 31.3868 4.27757 31.3582 4.28574C31.3297 4.2939 31.2991 4.29962 31.2664 4.30329C31.2337 4.30696 31.2003 4.30737 31.166 4.3037C31.1317 4.30043 31.0986 4.29104 31.0668 4.27594C31.035 4.26084 31.0056 4.23839 30.9782 4.209C30.9509 4.17961 30.928 4.14001 30.9088 4.09103C30.8937 4.05102 30.8819 4.00449 30.8741 3.95101C30.8623 3.95346 30.8496 3.95183 30.8362 3.94571C30.8227 3.93958 30.8125 3.92734 30.8051 3.90856C30.7908 3.87141 30.7888 3.83672 30.7986 3.80365ZM30.8206 12.6534C30.8876 12.6094 31.0464 12.7408 30.9631 12.802C30.8696 12.8706 30.6517 12.6559 30.8206 12.6534ZM30.6447 12.451C30.6002 12.5383 30.4067 12.5306 30.3635 12.4465C30.3831 12.4224 30.4047 12.4155 30.4308 12.4191C30.501 12.3734 30.59 12.3816 30.6447 12.451ZM30.3953 3.41749C30.3961 3.41994 30.3973 3.4228 30.3986 3.42566C30.3998 3.42852 30.4002 3.43178 30.4002 3.43464L30.4161 3.58322C30.4341 3.74977 30.4516 3.91672 30.4684 4.0849C30.4855 4.25267 30.5035 4.42044 30.5231 4.58862C30.5231 4.59434 30.5231 4.60169 30.5227 4.61067C30.5223 4.61965 30.5206 4.62903 30.5174 4.63883C30.5141 4.64863 30.5096 4.65802 30.5031 4.66618C30.4965 4.67475 30.4876 4.68088 30.4753 4.68537C30.4533 4.69394 30.432 4.6968 30.4116 4.69435C30.3912 4.6919 30.3724 4.68618 30.3553 4.6772C30.3382 4.66822 30.3235 4.65679 30.3116 4.64291C30.2994 4.62903 30.2908 4.61475 30.2851 4.60046C30.2835 4.59638 30.2818 4.5923 30.2806 4.58903C30.2794 4.58576 30.2786 4.58127 30.279 4.57638L30.259 4.4131C30.2528 4.35881 30.2463 4.29594 30.239 4.22369C30.2316 4.15144 30.2243 4.07511 30.2161 3.99428C30.2079 3.91346 30.1998 3.831 30.1908 3.74691C30.1818 3.66282 30.1728 3.58118 30.1626 3.50199C30.1622 3.49832 30.163 3.49138 30.1651 3.48158C30.1671 3.47179 30.1712 3.46076 30.1773 3.44893C30.1834 3.43709 30.1928 3.42566 30.2051 3.41423C30.2173 3.4028 30.2332 3.39341 30.2528 3.38565C30.2671 3.37994 30.2818 3.37627 30.2965 3.37382C30.3112 3.37178 30.3251 3.37137 30.3382 3.37341C30.3508 3.37545 30.3626 3.37994 30.3729 3.38729C30.3826 3.39463 30.3904 3.40484 30.3953 3.41749ZM30.0851 2.89336C30.0863 2.86357 30.0969 2.83336 30.1173 2.80193C30.1279 2.78927 30.1418 2.7758 30.159 2.76192C30.1761 2.74804 30.1888 2.73947 30.1973 2.73621C30.2059 2.73294 30.2157 2.73253 30.2267 2.73498C30.2381 2.73743 30.2483 2.74111 30.2577 2.74519C30.2696 2.75049 30.281 2.75662 30.2928 2.76396C30.3149 2.75743 30.3316 2.75988 30.3431 2.7709C30.3549 2.78193 30.3639 2.79703 30.3712 2.81581C30.3765 2.82928 30.3798 2.84234 30.3814 2.85418C30.3831 2.86601 30.3843 2.87581 30.3855 2.88316C30.3871 2.90275 30.3839 2.92316 30.3749 2.94357C30.3659 2.96398 30.3545 2.98317 30.3398 3.00072C30.3251 3.01868 30.3088 3.03419 30.2908 3.04807C30.2728 3.06195 30.2561 3.07175 30.2406 3.07746C30.221 3.08481 30.2047 3.08726 30.1916 3.0844C30.1785 3.08154 30.1594 3.07256 30.1349 3.05624C30.1206 3.04726 30.1116 3.03909 30.1075 3.03256C30.1034 3.02562 30.1006 3.01991 30.0985 3.01501C30.0949 3.00562 30.0924 2.99705 30.0908 2.98929C30.0892 2.98154 30.0879 2.97419 30.0871 2.96643C30.0843 2.94765 30.0838 2.92316 30.0851 2.89336ZM28.8723 3.09175C28.8854 3.07787 28.9033 3.06685 28.9254 3.05828C28.9409 3.05256 28.9572 3.04848 28.9748 3.04603C28.9923 3.04358 29.0095 3.04399 29.0254 3.04726C29.0417 3.05052 29.0564 3.05624 29.0695 3.06522C29.0825 3.0742 29.0923 3.08685 29.0984 3.10318C29.1025 3.1142 29.105 3.12849 29.1058 3.14563C29.1115 3.31299 29.1193 3.48526 29.1299 3.66282C29.1405 3.84039 29.1564 4.01837 29.1776 4.19593C29.1862 4.18491 29.2009 4.16328 29.2225 4.13062C29.2442 4.09796 29.2674 4.06082 29.2932 4.01877C29.3189 3.97673 29.3438 3.93387 29.3687 3.88897C29.3936 3.84447 29.4136 3.80528 29.4287 3.771C29.4393 3.74773 29.4495 3.72324 29.4601 3.69834C29.4703 3.67344 29.4805 3.64976 29.4899 3.6269C29.4993 3.60445 29.5075 3.58404 29.5144 3.56649C29.5213 3.54893 29.5266 3.53465 29.5303 3.52444C29.5393 3.49954 29.5511 3.4775 29.5654 3.4575C29.5797 3.4379 29.5969 3.42443 29.6165 3.41668C29.6352 3.40974 29.6532 3.40606 29.6707 3.40606C29.6883 3.40606 29.7042 3.40851 29.7189 3.41341C29.7332 3.41831 29.7459 3.42525 29.7561 3.43423C29.7663 3.44362 29.7736 3.45301 29.7773 3.46321C29.7822 3.47587 29.7842 3.49056 29.7838 3.5073C29.7834 3.52403 29.7818 3.54077 29.7789 3.55751C29.7761 3.57424 29.772 3.59016 29.7671 3.60527C29.7622 3.62037 29.7573 3.63221 29.7528 3.64078C29.7377 3.67017 29.7201 3.70201 29.7005 3.73752C29.681 3.77263 29.6601 3.80896 29.6385 3.84611C29.6165 3.88325 29.594 3.9204 29.5711 3.95795C29.5479 3.99551 29.5254 4.03184 29.5038 4.06613C29.5687 4.07551 29.6279 4.09837 29.6814 4.1347C29.7348 4.17144 29.7834 4.21593 29.8271 4.269C29.8708 4.32207 29.9091 4.38044 29.9426 4.44453C29.9761 4.50862 30.0047 4.5727 30.0291 4.63638C30.0312 4.64128 30.0336 4.64944 30.0369 4.66047C30.0402 4.67149 30.0422 4.6821 30.0434 4.69231C30.0451 4.70904 30.0451 4.72537 30.0442 4.74007C30.043 4.75517 30.0394 4.76905 30.0332 4.7817C30.0267 4.79436 30.0177 4.80579 30.0055 4.8164C29.9936 4.82701 29.9773 4.83599 29.9569 4.84375C29.9373 4.8511 29.9193 4.85436 29.9034 4.85273C29.8871 4.8511 29.8728 4.84661 29.8593 4.83885C29.8463 4.83109 29.8348 4.8213 29.8255 4.80946C29.8161 4.79762 29.8087 4.78456 29.8034 4.77109C29.7871 4.72864 29.7691 4.68496 29.7491 4.64046C29.7291 4.59597 29.7071 4.55393 29.6834 4.51433C29.6597 4.47473 29.6336 4.43881 29.6063 4.40575C29.5785 4.37309 29.5491 4.34697 29.5173 4.32819C29.4944 4.31472 29.4744 4.30451 29.4568 4.2988C29.4393 4.29268 29.4213 4.29349 29.4026 4.30043L29.3924 4.30451C29.3752 4.31105 29.3577 4.32248 29.3397 4.3384C29.3217 4.35472 29.3038 4.37228 29.287 4.39146C29.2699 4.41065 29.254 4.42983 29.2389 4.44943C29.2238 4.46902 29.2103 4.48453 29.1985 4.49719L29.2581 5.0005C29.2605 5.02009 29.2552 5.03764 29.2417 5.05356C29.2283 5.06948 29.2144 5.0801 29.1997 5.08581C29.154 5.10336 29.1193 5.10622 29.0956 5.09438C29.0719 5.08255 29.0544 5.06173 29.0429 5.03193C29.038 5.01927 29.0344 5.0058 29.0311 4.99193C29.0282 4.97805 29.0258 4.96294 29.0237 4.94743L29.0205 4.92376C29.0168 4.89886 29.0127 4.86742 29.0082 4.82905C29.0037 4.79068 28.9993 4.75027 28.9948 4.70782C28.9903 4.66536 28.9858 4.62209 28.9813 4.57842C28.9768 4.53474 28.9727 4.49474 28.9695 4.458C28.9666 4.42208 28.9617 4.36901 28.956 4.29798C28.9503 4.22696 28.9429 4.14817 28.9352 4.06041C28.9274 3.97265 28.9192 3.88121 28.9103 3.78569C28.9013 3.69017 28.8931 3.59914 28.8846 3.5126C28.8764 3.42607 28.869 3.34932 28.8629 3.28197C28.8568 3.21462 28.8515 3.16523 28.847 3.13379C28.8511 3.11992 28.8592 3.10563 28.8723 3.09175ZM28.9172 6.44553C29.058 6.50472 29.0935 6.60677 29.1903 6.70514C29.2189 6.7231 29.2425 6.74311 29.2634 6.76474C29.3148 6.79209 29.3564 6.77821 29.4573 6.78066C29.5748 6.78352 29.6903 6.81087 29.7924 6.86393C29.7928 6.86393 29.7928 6.86393 29.7932 6.86434C30.2096 7.00354 30.3692 7.39827 30.3157 7.59053C30.2875 7.69217 30.2169 7.77545 30.1345 7.84117C29.6997 8.18651 29.1368 8.20202 28.6294 8.42816C28.5115 8.38407 28.4053 8.30733 28.3735 8.21345C28.2649 7.97179 28.1873 7.71544 28.1441 7.45419C28.1151 7.27867 28.1012 7.09702 28.1396 6.92312C28.1775 6.74923 28.2727 6.58187 28.4233 6.48676C28.5686 6.39491 28.7588 6.37899 28.9172 6.44553ZM27.535 4.97437C27.5395 4.90579 27.5522 4.83354 27.5726 4.75762C27.5934 4.68169 27.6228 4.60332 27.662 4.52331C27.7008 4.4433 27.751 4.3633 27.8118 4.28329C27.8216 4.27063 27.8379 4.25512 27.8612 4.23594C27.8841 4.21716 27.9094 4.20124 27.9367 4.18899C27.9563 4.14083 27.9939 4.10572 28.0502 4.08449C28.1163 4.05919 28.1788 4.0547 28.2371 4.07062C28.2955 4.08694 28.3506 4.11797 28.4025 4.1645C28.4188 4.17961 28.4347 4.19471 28.4494 4.2094C28.4641 4.2241 28.4784 4.24043 28.4915 4.25839C28.5045 4.27635 28.5172 4.29594 28.5294 4.31758C28.5417 4.33921 28.5531 4.36452 28.5641 4.3935C28.5898 4.46086 28.6053 4.53311 28.6106 4.61107C28.616 4.68904 28.6119 4.76823 28.5984 4.84946C28.5845 4.93069 28.5617 5.01233 28.529 5.09438C28.4968 5.17643 28.4555 5.25481 28.4061 5.3291C28.3731 5.37972 28.3318 5.42503 28.2833 5.46462C28.2347 5.50422 28.1759 5.53728 28.1069 5.56341C28.0416 5.58831 27.9816 5.60137 27.9269 5.60219C27.8722 5.603 27.8228 5.59361 27.7787 5.57361C27.7346 5.55361 27.6959 5.52381 27.6628 5.48503C27.6297 5.44584 27.6028 5.3989 27.5816 5.34379C27.5612 5.29032 27.5469 5.22991 27.5387 5.16296C27.5318 5.1054 27.5305 5.04295 27.535 4.97437ZM27.6546 10.2777C27.7685 10.3202 27.6808 10.4218 27.6036 10.4488C27.5514 10.4671 27.306 10.5671 27.3399 10.4275C27.3534 10.3708 27.4428 10.3096 27.5191 10.2887C27.5628 10.2691 27.6212 10.2651 27.6546 10.2777ZM27.373 9.7838L27.3714 9.78502C27.4326 9.77318 27.5093 9.80584 27.4309 9.8638C27.4007 9.88625 27.2958 9.9185 27.2726 9.87115C27.2489 9.82298 27.3375 9.77971 27.373 9.7838ZM26.1549 5.50258C26.1594 5.43441 26.1721 5.36175 26.1925 5.28583C26.2133 5.2099 26.2427 5.13153 26.2819 5.05152C26.3206 4.97152 26.3708 4.89151 26.4317 4.8115C26.4415 4.79885 26.4578 4.78333 26.4807 4.76415C26.5035 4.74537 26.5288 4.72945 26.5562 4.71721C26.5758 4.66904 26.6133 4.63393 26.6697 4.6123C26.7358 4.58699 26.7982 4.5825 26.8566 4.59842C26.915 4.61475 26.9701 4.64577 27.0219 4.69231C27.0383 4.70741 27.0542 4.72251 27.0689 4.73721C27.0836 4.7519 27.0979 4.76823 27.1109 4.78619C27.124 4.80415 27.1366 4.82375 27.1489 4.84538C27.1611 4.86702 27.1726 4.89232 27.1836 4.92131C27.2093 4.98825 27.2248 5.06091 27.2301 5.13888C27.2354 5.21684 27.2313 5.29603 27.2179 5.37727C27.204 5.4585 27.1811 5.54014 27.1485 5.62219C27.1162 5.70424 27.075 5.78261 27.0256 5.8569C26.9925 5.90752 26.9513 5.95283 26.9027 5.99243C26.8542 6.03202 26.7954 6.06508 26.7264 6.09121C26.6611 6.11611 26.6011 6.12917 26.5464 6.12999C26.4917 6.13081 26.4423 6.12142 26.3982 6.10141C26.3541 6.08141 26.3153 6.05161 26.2823 6.01284C26.2492 5.97365 26.2223 5.92671 26.201 5.8716C26.1806 5.81812 26.1663 5.75771 26.1582 5.69076C26.1516 5.63362 26.1504 5.57116 26.1549 5.50258ZM25.0307 5.87486C25.0352 5.79118 25.0475 5.7075 25.0666 5.62382C25.0862 5.53973 25.1136 5.45891 25.1495 5.38012C25.185 5.30175 25.2303 5.23154 25.2846 5.1699C25.3022 5.14949 25.323 5.13153 25.3471 5.1152C25.3712 5.09928 25.3969 5.08581 25.4238 5.07561C25.452 5.06499 25.4789 5.05724 25.5051 5.05316C25.5312 5.04907 25.5553 5.04948 25.5773 5.05479C25.5993 5.06009 25.6189 5.06989 25.6361 5.08499C25.6536 5.09969 25.6675 5.12092 25.6777 5.14786C25.6855 5.16827 25.6904 5.1899 25.6924 5.21317C25.6945 5.23644 25.6928 5.25848 25.6871 5.2793C25.6814 5.30052 25.6716 5.3193 25.6577 5.33645C25.6438 5.35359 25.6251 5.36665 25.601 5.37563C25.5822 5.38298 25.5638 5.38584 25.5455 5.38502C25.5271 5.38421 25.5091 5.38257 25.4916 5.37931C25.4818 5.37727 25.4728 5.37563 25.4646 5.37441C25.4565 5.37318 25.4471 5.37278 25.4365 5.37278C25.4083 5.40094 25.3838 5.4336 25.3634 5.47034C25.343 5.50707 25.3254 5.54545 25.3112 5.58586C25.2969 5.62627 25.2859 5.66831 25.2773 5.71117C25.2691 5.75444 25.2626 5.79649 25.2585 5.83813C25.2544 5.87976 25.2528 5.91936 25.2532 5.95773C25.2536 5.9961 25.2556 6.0308 25.2585 6.06182C25.2605 6.08427 25.2638 6.10958 25.2691 6.13734C25.2744 6.16509 25.2818 6.19122 25.2912 6.21571C25.2977 6.23286 25.3054 6.24837 25.314 6.26265C25.3226 6.27694 25.3332 6.28837 25.3455 6.29735C25.3577 6.30633 25.3712 6.31164 25.3867 6.31368C25.4018 6.31572 25.4189 6.31286 25.4377 6.30592C25.4675 6.29449 25.4957 6.27939 25.5218 6.26061C25.5483 6.24184 25.5732 6.22102 25.5965 6.19857C25.6202 6.17612 25.6422 6.15162 25.663 6.1255C25.6838 6.09937 25.7038 6.07366 25.723 6.04753C25.7353 6.0312 25.7475 6.01447 25.7594 5.99732C25.7712 5.98018 25.783 5.96467 25.7941 5.95038C25.8055 5.9365 25.8161 5.92426 25.8263 5.91405C25.8365 5.90385 25.8463 5.89691 25.8557 5.89323C25.8684 5.88833 25.8814 5.88711 25.8949 5.88915C25.9084 5.89119 25.9182 5.90017 25.9239 5.91528C25.928 5.9263 25.9304 5.93977 25.9304 5.95528C25.9312 5.99283 25.9263 6.02875 25.9161 6.06304C25.9059 6.09733 25.892 6.12958 25.8749 6.15979C25.8577 6.18999 25.8381 6.21898 25.8157 6.24592C25.7932 6.27286 25.7708 6.29858 25.7479 6.32307C25.7059 6.37124 25.6606 6.41287 25.612 6.44716C25.5634 6.48186 25.521 6.50635 25.4842 6.52023C25.4724 6.52472 25.4577 6.5288 25.441 6.53247C25.4238 6.53615 25.4083 6.53778 25.3944 6.53696C25.3144 6.5337 25.2487 6.51288 25.1981 6.47492C25.1475 6.43696 25.1091 6.38348 25.0826 6.3145C25.0711 6.2847 25.0613 6.25286 25.0536 6.21816C25.0458 6.18387 25.0397 6.14673 25.0352 6.10754C25.0283 6.0361 25.0262 5.95854 25.0307 5.87486ZM20.2001 10.5496C20.2009 10.55 20.2013 10.55 20.2021 10.5504C20.2013 10.5516 20.2005 10.5524 20.2001 10.5533C20.1997 10.5524 20.2001 10.5512 20.2001 10.5496ZM16.7687 11.5836C17.0655 11.7264 17.3937 11.8032 17.7231 11.8064C17.7541 11.8068 17.7876 11.8056 17.8117 11.786C17.8297 11.7713 17.839 11.7485 17.846 11.7264C17.9333 11.439 17.7137 11.1513 17.4835 10.9582C17.2533 10.7651 16.9798 10.5794 16.9043 10.2883C17.1296 10.3194 17.2598 10.5492 17.3957 10.7316C17.5427 10.9288 17.7325 11.0937 17.948 11.2117C18.0272 11.255 18.1158 11.2929 18.2048 11.2786C18.3677 11.2521 18.455 11.0549 18.4256 10.8925C18.3962 10.73 18.286 10.5957 18.1832 10.4663C17.8676 10.0683 17.5753 9.59276 17.6354 9.08822C17.8464 9.46254 18.057 9.83686 18.2681 10.2112C18.3089 10.2834 18.3754 10.3671 18.455 10.3438C18.5485 10.3165 18.5412 10.1826 18.515 10.0891C18.4044 9.69113 18.3232 9.28497 18.2721 8.87514C18.2575 8.75676 18.2509 8.62165 18.3334 8.53552C18.3436 8.5249 18.3554 8.51511 18.3701 8.51266C18.4146 8.50572 18.4346 8.56572 18.4375 8.61063C18.4628 9.02372 18.5093 9.43601 18.5775 9.84421C18.5918 9.92993 18.6159 10.0283 18.6942 10.0663C18.7795 10.1075 18.8857 10.0491 18.9314 9.96626C18.9775 9.8834 18.98 9.78461 18.9857 9.68991C19.0098 9.2862 19.1298 8.85391 19.4555 8.6143C19.5314 8.55878 19.6604 8.52735 19.7017 8.61185C19.7213 8.65226 19.7082 8.70002 19.6919 8.74166C19.6392 8.87514 19.5559 8.99433 19.4841 9.11843C19.2718 9.48458 19.1551 9.89646 19.0404 10.3038C19.0155 10.3924 18.9996 10.5084 19.0767 10.5586C19.1253 10.5904 19.1894 10.5786 19.2461 10.5659C19.3163 10.5496 19.3882 10.5337 19.4604 10.5194C19.4584 10.5818 19.4608 10.6439 19.4714 10.7043C19.2743 10.7186 19.0792 10.7676 18.8995 10.8496C18.8285 10.8819 18.7497 10.9378 18.7575 11.0153C18.764 11.0819 18.8326 11.1231 18.8951 11.1464C19.1975 11.2594 19.5686 11.2211 19.807 11.439C19.3282 11.6399 18.7473 11.4537 18.2791 11.6783C18.2395 11.6974 18.1987 11.7215 18.1799 11.7615C18.1464 11.8334 18.2036 11.9199 18.2758 11.9526C18.3481 11.9852 18.4305 11.9815 18.5097 11.9905C18.6681 12.0081 18.8204 12.0795 18.9359 12.1897C18.7563 12.2926 18.5403 12.3306 18.3366 12.2946C18.1656 12.2644 17.9925 12.1848 17.8248 12.2301C17.7399 12.253 17.6623 12.3077 17.5741 12.3106C17.4161 12.3155 17.4174 12.1024 17.3374 12.0089C17.2406 11.8958 17.0912 11.8268 16.9553 11.7754C16.754 11.6991 16.5353 11.6383 16.3875 11.4819C16.5177 11.4537 16.6475 11.5252 16.7687 11.5836ZM11.9063 11.2096C11.9312 11.1472 11.9993 11.1145 12.0634 11.0949C12.274 11.0308 12.499 11.0476 12.719 11.048C13.2562 11.0492 13.7934 10.9496 14.2946 10.7553C14.3751 10.7243 14.4604 10.6851 14.5004 10.6088C14.5506 10.5132 14.5061 10.3883 14.4232 10.3198C14.3399 10.2508 14.2281 10.2275 14.1203 10.221C13.6076 10.1895 13.1113 10.4826 12.6006 10.4275C12.5108 10.4177 12.4067 10.3843 12.381 10.2977C13.0476 10.0891 13.8207 10.223 14.4134 9.8536C14.2183 9.54745 13.8023 9.49193 13.4403 9.46172C13.0782 9.43152 12.6606 9.3609 12.4834 9.04414C12.4524 8.98821 12.4353 8.9082 12.4855 8.86902C12.5067 8.85228 12.5345 8.8482 12.561 8.84575C12.81 8.82289 13.0525 8.92167 13.2835 9.01801C13.5452 9.12741 13.8064 9.23681 14.0681 9.3462C14.2052 9.40376 14.3759 9.45723 14.491 9.36335C14.5906 9.28212 14.5938 9.13231 14.5751 9.00495C14.5032 8.51715 14.2436 8.0122 14.4342 7.55747C14.4506 7.51869 14.4734 7.47787 14.5126 7.46276C14.5657 7.44276 14.6265 7.48073 14.6518 7.53175C14.6771 7.58278 14.6763 7.64196 14.6755 7.69871C14.671 8.14038 14.7167 8.58287 14.811 9.01434C14.8208 9.06005 14.8326 9.10781 14.8649 9.1417C14.9159 9.19599 15.0049 9.1968 15.0727 9.16537C15.14 9.13394 15.1919 9.0772 15.2437 9.02373C15.5143 8.74452 15.8401 8.51878 16.1964 8.36326C16.2622 8.33468 16.3528 8.31427 16.394 8.37305C16.4373 8.43469 16.381 8.51552 16.3267 8.56817C15.898 8.98331 15.4131 9.34008 14.8894 9.62582C14.7926 9.67848 14.6788 9.75685 14.6934 9.86625C14.7041 9.94626 14.7861 10.001 14.8661 10.0083C14.9461 10.0157 15.0249 9.98749 15.1004 9.95932C15.36 9.86299 15.6197 9.76665 15.8793 9.67032C15.8323 9.84625 15.6601 9.95606 15.4947 10.0328C15.3298 10.1099 15.1486 10.1789 15.0425 10.3271C14.9367 10.4753 14.9641 10.732 15.1384 10.7843C15.238 10.8141 15.3425 10.7676 15.4454 10.7541C15.6058 10.7329 15.5029 10.8819 15.4625 10.9337C15.4213 10.9868 15.3453 10.9815 15.3151 11.0545C15.2866 11.1243 15.347 11.1827 15.3355 11.2443C15.296 11.4521 15.0968 11.4211 14.9192 11.4929C14.3432 11.726 13.857 12.0779 13.21 12.0983C13.1411 12.1003 13.0447 12.0644 13.066 11.9991C13.0774 11.9632 13.1194 11.9493 13.1562 11.9399C13.6178 11.8215 14.0705 11.6701 14.5102 11.4864C14.593 11.4517 14.6779 11.4146 14.7404 11.3501C14.8033 11.2856 14.8392 11.1872 14.8057 11.1039C14.7432 10.948 14.5204 10.9598 14.3591 11.0064C13.6387 11.2141 12.921 11.5656 12.1777 11.468C12.1055 11.4586 12.0312 11.4435 11.9728 11.3999C11.916 11.3574 11.8793 11.2774 11.9063 11.2096Z" fill="white"/>
<path d="M46.4893 23.0104H10.2251V32.0001C10.2251 33.657 11.5682 35.0001 13.2251 35.0001H43.4893C45.1461 35.0001 46.4893 33.657 46.4893 32.0001V23.0104Z" fill="white"/>
<path d="M10.2254 15.1931L10.005 15.5989L10.2254 15.1931L0 19.4911L0.315131 20.1564L9.78294 16.0083L6.33324 22.3574H48.9547L46.4896 15.1931H10.2254Z" fill="white"/>
</svg>
