<svg width="20" height="20" viewBox="0 0 20 20" fill="none" xmlns="http://www.w3.org/2000/svg">
<path d="M9.99 0.00012207C4.47 0.00012207 0 4.48012 0 10.0001C0 15.5201 4.47 20.0001 9.99 20.0001C15.52 20.0001 20 15.5201 20 10.0001C20 4.48012 15.52 0.00012207 9.99 0.00012207ZM16.92 6.00012H13.97C13.65 4.75012 13.19 3.55012 12.59 2.44012C14.43 3.07012 15.96 4.35012 16.92 6.00012ZM10 2.04012C10.83 3.24012 11.48 4.57012 11.91 6.00012H8.09C8.52 4.57012 9.17 3.24012 10 2.04012ZM2.26 12.0001C2.1 11.3601 2 10.6901 2 10.0001C2 9.31012 2.1 8.64012 2.26 8.00012H5.64C5.56 8.66012 5.5 9.32012 5.5 10.0001C5.5 10.6801 5.56 11.3401 5.64 12.0001H2.26ZM3.08 14.0001H6.03C6.35 15.2501 6.81 16.4501 7.41 17.5601C5.57 16.9301 4.04 15.6601 3.08 14.0001ZM6.03 6.00012H3.08C4.04 4.34012 5.57 3.07012 7.41 2.44012C6.81 3.55012 6.35 4.75012 6.03 6.00012ZM10 17.9601C9.17 16.7601 8.52 15.4301 8.09 14.0001H11.91C11.48 15.4301 10.83 16.7601 10 17.9601ZM12.34 12.0001H7.66C7.57 11.3401 7.5 10.6801 7.5 10.0001C7.5 9.32012 7.57 8.65012 7.66 8.00012H12.34C12.43 8.65012 12.5 9.32012 12.5 10.0001C12.5 10.6801 12.43 11.3401 12.34 12.0001ZM12.59 17.5601C13.19 16.4501 13.65 15.2501 13.97 14.0001H16.92C15.96 15.6501 14.43 16.9301 12.59 17.5601ZM14.36 12.0001C14.44 11.3401 14.5 10.6801 14.5 10.0001C14.5 9.32012 14.44 8.66012 14.36 8.00012H17.74C17.9 8.64012 18 9.31012 18 10.0001C18 10.6901 17.9 11.3601 17.74 12.0001H14.36Z" fill="white"/>
</svg>
