<svg width="35" height="28" viewBox="0 0 35 28" fill="none" xmlns="http://www.w3.org/2000/svg">
<path fill-rule="evenodd" clip-rule="evenodd" d="M20.682 0.00203838C11.2713 -0.0623418 8.92253 1.39661 3.73199 4.62072C3.56607 4.72378 3.39725 4.82864 3.2252 4.93532C3.13634 4.95769 2.99939 4.93212 2.85982 4.90605C2.69632 4.87552 2.52922 4.84431 2.43157 4.88871C1.63795 5.81984 0.463421 8.04998 0.190923 9.12389C-0.14423 10.4437 -0.0766028 13.0923 0.704094 14.0572C1.02831 14.4578 2.57081 14.9417 2.57081 14.9417C2.57081 14.9417 7.9969 16.6611 11.5324 17.6409C11.7695 17.7066 12.1326 17.7087 12.5047 17.6746L14.379 25.547C14.5935 26.4479 15.3985 27.0837 16.3246 27.0837H18.3342C19.2356 27.0837 20.1202 26.8401 20.8945 26.3785L26.3708 23.1137C26.6005 23.7537 26.8485 24.3202 27.1215 24.715C28.1525 26.2057 30.3587 26.2835 31.9734 25.4602C33.1053 24.8831 34.1696 24.1551 34.1696 23.4577C34.3418 21.3433 34.4795 18.9662 34.5919 17.0255L34.592 17.0248C34.6626 15.8048 34.7233 14.7574 34.7763 14.0562C35.3849 6.05187 27.4497 0.0486442 20.682 0.00203838ZM25.746 21.1255C25.7135 21.0134 25.6813 20.9018 25.6494 20.7913L25.6494 20.7912C25.4122 19.9693 25.191 19.2029 24.9743 18.6652C24.7724 18.1634 24.1489 17.1897 23.6675 16.9428C21.8834 16.0255 16.5766 16.1653 14.698 16.8734C14.6098 16.9066 14.5195 16.9524 14.4294 17.004L15.9806 23.5193C16.1951 24.4202 17.0001 25.056 17.9262 25.056H18.602C18.9626 25.056 19.3164 24.9585 19.6261 24.7739L25.746 21.1255ZM11.9828 12.3289H11.3095V14.1714H11.9828V12.3289ZM14.8123 12.3289H14.139V14.1714H14.8123V12.3289ZM17.1026 12.3289H17.7759V14.1714H17.1026V12.3289ZM20.5466 12.3289H19.8734V14.1714H20.5466V12.3289ZM22.6837 12.3289H23.357V14.1714H22.6837V12.3289Z" fill="white"/>
</svg>
