<svg width="36" height="28" viewBox="0 0 36 28" fill="none" xmlns="http://www.w3.org/2000/svg">
<path fill-rule="evenodd" clip-rule="evenodd" d="M29.5394 2.94997H33.3371C34.8076 2.94997 35.9996 4.14205 36 5.61284V24.4646C36 25.9354 34.8076 27.1275 33.3371 27.1275H2.66287C1.19208 27.1275 0 25.9351 0 24.4646V5.61284C0 4.14205 1.19208 2.94997 2.66287 2.94997H6.52767L6.79691 2.25774H8.98033L9.24957 2.94997H13.2626L13.862 0.709711C13.9472 0.392017 14.2839 0.14391 14.6176 0.14391C14.6176 0.14391 16.4305 0 18.1647 0C19.7983 0 21.4243 0.14391 21.4243 0.14391C21.758 0.14391 22.095 0.392017 22.1799 0.709711L22.7793 2.94997H26.8175L27.0867 2.25774H29.2701L29.5394 2.94997ZM15.2985 1.07368C15.0438 1.07368 14.7954 1.28426 14.7418 1.55167L14.462 2.94997H21.581L21.3012 1.55167C21.2476 1.28426 20.9991 1.07368 20.7445 1.07368C20.7445 1.07368 19.4963 1.20921 18.1771 1.20921C16.754 1.20921 15.2985 1.07368 15.2985 1.07368ZM18.0386 22.1271C21.2578 22.1271 23.9539 19.8865 24.6523 16.8797C24.7641 16.3904 24.8235 15.8814 24.8239 15.3579C24.8239 11.6079 21.7839 8.56791 18.0339 8.56791C14.2839 8.56791 11.2439 11.6079 11.2439 15.3579C11.2439 16.0559 11.3492 16.7292 11.5448 17.3628C11.4935 17.1857 11.449 17.0057 11.4122 16.8232C12.0899 19.8584 14.7994 22.1271 18.0386 22.1271ZM12.2303 15.3582C12.2303 12.1532 14.8286 9.55481 18.0336 9.55481C21.239 9.55481 23.837 12.1532 23.837 15.3582C23.837 18.5632 21.2386 21.1616 18.0336 21.1616C14.8286 21.1616 12.2303 18.5632 12.2303 15.3582ZM19.37 16.8006H22.2453V14.1861H19.3696V11.3105H16.7556V14.1861H13.8799V16.8006H16.7556V19.6762H19.37V16.8006Z" fill="white"/>
</svg>
