<svg width="24" height="24" viewBox="0 0 24 24" fill="none" xmlns="http://www.w3.org/2000/svg">
<g id="Group 72">
<g id="ic_launch">
<path id="Mask" fill-rule="evenodd" clip-rule="evenodd" d="M19 19H5V5H12V3H5C3.89 3 3 3.9 3 5V19C3 20.1 3.89 21 5 21H19C20.1 21 21 20.1 21 19V12H19V19ZM14 3V5H17.59L7.76001 14.83L9.17001 16.24L19 6.41V10H21V3H14Z" fill="white"/>
<mask id="mask0_627_182" style="mask-type:alpha" maskUnits="userSpaceOnUse" x="3" y="3" width="18" height="18">
<path id="Mask_2" fill-rule="evenodd" clip-rule="evenodd" d="M19 19H5V5H12V3H5C3.89 3 3 3.9 3 5V19C3 20.1 3.89 21 5 21H19C20.1 21 21 20.1 21 19V12H19V19ZM14 3V5H17.59L7.76001 14.83L9.17001 16.24L19 6.41V10H21V3H14Z" fill="white"/>
</mask>
<g mask="url(#mask0_627_182)">
</g>
</g>
</g>
</svg>
