<svg width="117" height="19" viewBox="0 0 117 19" fill="none" xmlns="http://www.w3.org/2000/svg">
<path d="M23.968 1.03113H26.0655L25.9132 1.48251H24.5181V2.39444H24.7903C25.1733 2.39444 25.4773 2.44169 25.7136 2.5623C26.0338 2.72451 26.2066 3.01368 26.2066 3.42697C26.2066 4.04621 25.8342 4.4863 24.8383 4.4863H23.9673V1.03113H23.968ZM24.8545 4.03069C25.3948 4.03069 25.6466 3.84168 25.6466 3.44319C25.6466 3.20692 25.5577 3.03977 25.3948 2.9502C25.253 2.87121 25.0541 2.85076 24.8023 2.85076H24.5188V4.03069H24.8545Z" fill="white"/>
<path d="M26.7305 4.49781V3.98859C26.7827 3.99917 26.8193 3.99917 26.8405 3.99917C26.9872 3.99917 27.124 3.92582 27.2284 3.75796C27.543 3.25933 27.7531 1.97995 27.8364 1.03064H29.5777V4.48652H29.0219V1.48202H28.2983C28.2193 2.37914 27.9887 3.59011 27.6424 4.11977C27.4534 4.40259 27.2122 4.51262 26.8976 4.51262C26.8666 4.51332 26.7834 4.51332 26.7305 4.49781Z" fill="white"/>
<path d="M31.5957 1.01514H32.0203L33.3892 4.48653H32.7968L32.4561 3.6007H31.1767L30.846 4.48653H30.269L31.5957 1.01514ZM32.2883 3.15002L32.0047 2.36364C31.9102 2.08082 31.858 1.92354 31.8214 1.80787H31.8108C31.7791 1.92848 31.7269 2.08575 31.6218 2.36364L31.3382 3.15002H32.2883Z" fill="white"/>
<path d="M34.0859 1.03113H35.9683L35.8111 1.49732H34.6368V4.4863H34.0859V1.03113Z" fill="white"/>
<path d="M36.4604 2.77189C36.4604 1.72313 37.1784 0.999512 38.1856 0.999512C39.1976 0.999512 39.9057 1.73371 39.9057 2.77189C39.9057 3.8418 39.1716 4.53932 38.1856 4.53932C37.1841 4.54003 36.4604 3.83616 36.4604 2.77189ZM39.3232 2.77189C39.3232 1.99043 38.893 1.46641 38.1849 1.46641C37.5036 1.46641 37.0465 1.96504 37.0465 2.77189C37.0465 3.57943 37.5029 4.07243 38.1849 4.07243C38.8676 4.07243 39.3232 3.57943 39.3232 2.77189Z" fill="white"/>
<path d="M40.4966 4.01518H40.7068C41.1835 3.42274 41.5192 2.36341 41.7238 1.03113H43.3551V4.01518H43.7902V5.45677H43.2556V4.48701H41.0319V5.45748H40.4973V4.01518H40.4966ZM42.8043 1.48251H42.1596C41.9967 2.60391 41.6666 3.48057 41.3253 4.0046V4.01518H42.8043V1.48251Z" fill="white"/>
<path d="M44.5747 1.03113H45.1255V4.48701H44.5747V1.03113Z" fill="white"/>
<path d="M46.1892 1.03129H46.74V2.99268C46.74 3.20779 46.7344 3.40174 46.7294 3.58511H46.74C46.85 3.41796 46.9869 3.22894 47.1646 2.99761L48.6436 1.03129H49.1838V4.48717H48.633V2.42563C48.633 2.19994 48.633 2.02221 48.6436 1.86987H48.633C48.518 2.03279 48.3868 2.2218 48.2133 2.44185L46.6765 4.48717H46.1885V1.03129H46.1892ZM46.8028 0.0297852H47.2647C47.2647 0.265349 47.3804 0.459302 47.6999 0.459302C48.0145 0.459302 48.1301 0.265349 48.1301 0.0297852H48.597C48.6076 0.517135 48.2825 0.868366 47.6999 0.868366C47.1075 0.868366 46.7873 0.517135 46.8028 0.0297852Z" fill="white"/>
<path d="M50.2524 1.03113H50.8033V2.48895H52.534V1.03113H53.0849V4.48701H52.534V2.95584H50.8033V4.48701H50.2524V1.03113Z" fill="white"/>
<path d="M54.1467 1.03113H54.6975V2.99252C54.6975 3.20763 54.6919 3.40158 54.687 3.58495H54.6975C54.8076 3.4178 54.9444 3.22879 55.1221 2.99745L56.6011 1.03113H57.1413V4.48701H56.5905V2.42547C56.5905 2.19978 56.5905 2.02205 56.6011 1.86971H56.5905C56.4755 2.03263 56.3444 2.22164 56.1709 2.44169L54.6341 4.48701H54.146V1.03113H54.1467Z" fill="white"/>
<path d="M58.2102 1.03129H58.761V2.99268C58.761 3.20779 58.7554 3.40174 58.7504 3.58511H58.761C58.871 3.41796 59.0078 3.22894 59.1856 2.99761L60.6646 1.03129H61.2048V4.48717H60.654V2.42563C60.654 2.19994 60.654 2.02221 60.6646 1.86987H60.654C60.539 2.03279 60.4078 2.2218 60.2343 2.44185L58.6975 4.48717H58.2095V1.03129H58.2102ZM58.8238 0.0297852H59.2857C59.2857 0.265349 59.4014 0.459302 59.7209 0.459302C60.0354 0.459302 60.1511 0.265349 60.1511 0.0297852H60.618C60.6286 0.517135 60.3035 0.868366 59.7209 0.868366C59.1277 0.868366 58.8083 0.517135 58.8238 0.0297852Z" fill="white"/>
<path d="M64.9104 4.10899C63.9978 4.04058 63.4575 3.59555 63.4575 2.75555C63.4575 1.92755 64.0133 1.45501 64.9104 1.38731V0.952148H65.4612V1.38731C66.3583 1.46066 66.9035 1.93813 66.9035 2.75555C66.9035 3.60048 66.3583 4.04058 65.4612 4.10899V4.58082H64.9104V4.10899ZM64.9104 1.85914C64.3441 1.90639 64.0189 2.19486 64.0189 2.75626C64.0189 3.30709 64.318 3.59061 64.9104 3.63222V1.85914ZM66.3421 2.75626C66.3421 2.22166 66.0487 1.91204 65.4612 1.86478V3.63222C66.0276 3.5899 66.3421 3.33318 66.3421 2.75626Z" fill="white"/>
<path d="M67.6616 2.77189C67.6616 1.72313 68.3796 0.999512 69.3867 0.999512C70.3988 0.999512 71.1069 1.73371 71.1069 2.77189C71.1069 3.8418 70.3727 4.53932 69.3867 4.53932C68.3852 4.54003 67.6616 3.83616 67.6616 2.77189ZM70.5251 2.77189C70.5251 1.99043 70.0948 1.46641 69.3867 1.46641C68.7054 1.46641 68.2484 1.96504 68.2484 2.77189C68.2484 3.57943 68.7047 4.07243 69.3867 4.07243C70.0687 4.07243 70.5251 3.57943 70.5251 2.77189Z" fill="white"/>
<path d="M72.0229 1.03113H72.5738V2.48895H74.3045V1.03113H74.8554V4.48701H74.3045V2.95584H72.5738V4.48701H72.0229V1.03113Z" fill="white"/>
<path d="M75.5933 4.01518H75.8034C76.2802 3.42274 76.6159 2.36341 76.8204 1.03113H78.4518V4.01518H78.8869V5.45677H78.3523V4.48701H76.1286V5.45748H75.594V4.01518H75.5933ZM77.9002 1.48251H77.2556C77.0927 2.60391 76.7626 3.48057 76.4213 4.0046V4.01518H77.9002V1.48251Z" fill="white"/>
<path d="M29.8656 17.7169C29.07 18.1386 28.2872 18.2952 27.5396 18.2952C25.105 18.2952 23.6831 16.6194 23.6831 14.2934C23.6831 11.9914 25.2975 10.1591 27.7089 10.1591C28.5644 10.1591 29.2873 10.3516 29.709 10.5815V11.5816C29.1427 11.2798 28.5277 11.0752 27.7328 11.0752C25.9252 11.0752 24.8165 12.5098 24.8165 14.2455C24.8165 16.1011 25.9132 17.379 27.6609 17.379C28.4085 17.379 29.0108 17.1625 29.5652 16.8606L29.8656 17.7169Z" fill="white"/>
<path d="M31.7002 10.2324H35.714L35.3881 11.1486H32.7729V13.6671H35.3641V14.5826H32.7729V17.2584H35.7619V18.1746H31.7002V10.2324Z" fill="white"/>
<path d="M37.9575 10.2324H39.5846C40.3562 10.2324 40.8978 10.3523 41.3323 10.5942C42.0799 11.004 42.5256 11.7509 42.5256 12.7757C42.5256 13.6918 42.1279 14.5713 41.1278 15.0178C40.718 15.1983 40.1996 15.3069 39.4887 15.3069H39.031V18.1753H37.9582V10.2324H37.9575ZM39.5606 14.4267C40.0423 14.4267 40.3922 14.3421 40.6453 14.2095C41.1637 13.9443 41.4049 13.4506 41.4049 12.7757C41.4049 12.1494 41.1637 11.643 40.6933 11.3658C40.4281 11.2092 40.079 11.1119 39.5726 11.1119H39.0303V14.4267H39.5606Z" fill="white"/>
<path d="M44.5527 10.2324H48.6864L48.3606 11.1486H45.6128V18.1746H44.5527V10.2324Z" fill="white"/>
<path d="M50.2319 10.2324H51.3047V18.1746H50.2319V10.2324Z" fill="white"/>
<path d="M54.416 15.6433C54.7291 15.053 54.9344 14.7272 55.2595 14.5466V14.5227C54.3314 14.2215 53.8609 13.4866 53.8609 12.5584C53.8609 11.016 54.9816 10.2324 56.4768 10.2324H58.6463V18.1746H57.5735V14.8845H56.3682C56.127 14.8845 55.8378 15.1377 55.4887 15.8486L54.356 18.1746H53.1147L54.416 15.6433ZM56.5854 14.0043H57.5735V11.1119H56.6214C55.6573 11.1119 54.9703 11.6063 54.9703 12.6064C54.9703 13.5825 55.6693 14.0043 56.5854 14.0043Z" fill="white"/>
<path d="M64.2656 10.2324H70.2436V18.1746H69.1709V11.1486H65.3264V18.1746H64.2656V10.2324Z" fill="white"/>
<path d="M72.7534 10.2324H74.3805C75.1521 10.2324 75.6937 10.3523 76.1282 10.5942C76.8758 11.004 77.3215 11.7509 77.3215 12.7757C77.3215 13.6918 76.9237 14.5713 75.9237 15.0178C75.5139 15.1983 74.9955 15.3069 74.2846 15.3069H73.8269V18.1753H72.7541V10.2324H72.7534ZM74.3565 14.4267C74.8389 14.4267 75.1881 14.3421 75.4412 14.2095C75.9596 13.9443 76.2008 13.4506 76.2008 12.7757C76.2008 12.1494 75.9596 11.643 75.4892 11.3658C75.224 11.2092 74.8749 11.1119 74.3685 11.1119H73.8261V14.4267H74.3565Z" fill="white"/>
<path d="M79.3496 10.2324H80.4104V15.029C80.4104 15.5834 80.4104 15.9812 80.3864 16.4029H80.4104C80.6755 16.0171 81.0127 15.5227 81.4831 14.9204L85.0144 10.2324H86.0505V18.1746H84.9778V13.1967C84.9778 12.6184 84.9898 12.2446 85.0024 11.8708H84.9778C84.7126 12.2566 84.3755 12.727 83.941 13.3053L80.2651 18.1746H79.3496V10.2324Z" fill="white"/>
<path d="M90.055 11.1486H87.7656V10.2324H93.647L93.3211 11.1486H91.1277V18.1746H90.055V11.1486Z" fill="white"/>
<path d="M95.7584 18.2106V17.2824C95.903 17.3191 96.0356 17.3311 96.1802 17.3311C96.9038 17.3311 97.2169 16.8487 97.6746 15.9085L94.8662 10.2324H96.0596L98.217 14.7758H98.2417L100.206 10.2324H101.375L98.6035 16.3063C97.9652 17.7289 97.2536 18.2585 96.2775 18.2585C96.1442 18.2585 95.9157 18.2465 95.7584 18.2106Z" fill="white"/>
<path d="M101.426 18.2106V17.2105C101.535 17.2345 101.619 17.2345 101.667 17.2345C102.017 17.2345 102.354 17.0659 102.608 16.6441C103.343 15.3909 103.849 12.1607 104.006 10.2324H107.791V18.1746H106.718V11.1119H104.922C104.778 12.9203 104.235 15.9932 103.428 17.2944C103.018 17.9694 102.464 18.2465 101.764 18.2465C101.703 18.2465 101.534 18.2346 101.426 18.2106Z" fill="white"/>
<path d="M110.3 10.2324H111.361V15.029C111.361 15.5834 111.361 15.9812 111.337 16.4029H111.361C111.626 16.0171 111.963 15.5227 112.433 14.9204L115.965 10.2324H117.001V18.1746H115.928V13.1967C115.928 12.6184 115.94 12.2446 115.952 11.8708H115.928C115.663 12.2566 115.326 12.727 114.892 13.3053L111.216 18.1746H110.301V10.2324H110.3Z" fill="white"/>
<path d="M8.13281 0V15.3279H10.9695V2.83594H15.3281V8.1326H18.1647V0H8.13281Z" fill="white"/>
<path d="M15.3276 15.3279V18.1638H18.1643V15.3279V10.9685H15.3276V15.3279Z" fill="white"/>
<path d="M15.3279 8.13269H10.9692V10.9686H15.3279H18.1645V8.13269H15.3279Z" fill="#D48232"/>
<path d="M2.83594 15.328V10.9686H8.1326V8.13269H0V18.1639H15.3279V15.328H2.83594Z" fill="#D48232"/>
</svg>
