<svg width="94" height="13" viewBox="0 0 94 13" fill="none" xmlns="http://www.w3.org/2000/svg">
<path fill-rule="evenodd" clip-rule="evenodd" d="M14.3597 12.7702V6.08836C14.3597 4.19293 13.3129 3.29308 11.5549 3.29308C10.0933 3.29308 8.82917 4.13549 8.27611 4.97791C7.92057 3.92489 7.03173 3.29308 5.62933 3.29308C4.16768 3.29308 2.90355 4.17378 2.50851 4.72901V3.52283H0V12.7702H2.50851V6.54786C2.8838 6.03093 3.61462 5.45655 4.48372 5.45655C5.51082 5.45655 5.90586 6.06922 5.90586 6.93078V12.7702H8.43412V6.52872C8.78966 6.03093 9.52049 5.45655 10.4093 5.45655C11.4364 5.45655 11.8315 6.06922 11.8315 6.93078V12.7702H14.3597ZM21.2532 13C18.1126 13 16.2164 10.7791 16.2164 8.13697C16.2164 5.51399 18.1126 3.29308 21.2532 3.29308C24.4135 3.29308 26.3097 5.51399 26.3097 8.13697C26.3097 10.7791 24.4135 13 21.2532 13ZM21.2532 10.8365C22.8136 10.8365 23.7025 9.59205 23.7025 8.13697C23.7025 6.70103 22.8136 5.45655 21.2532 5.45655C19.6928 5.45655 18.8237 6.70103 18.8237 8.13697C18.8237 9.59205 19.6928 10.8365 21.2532 10.8365ZM37.1141 12.7702V6.24153C37.1141 4.44183 36.1067 3.29308 34.013 3.29308C32.4526 3.29308 31.2872 4.02062 30.6749 4.72901V3.52283H28.1664V12.7702H30.6749V6.54786C31.0897 5.99264 31.8601 5.45655 32.8477 5.45655C33.9143 5.45655 34.6056 5.89691 34.6056 7.17968V12.7702H37.1141ZM44.0273 13C40.8867 13 38.9905 10.7791 38.9905 8.13697C38.9905 5.51399 40.8867 3.29308 44.0273 3.29308C47.1876 3.29308 49.0838 5.51399 49.0838 8.13697C49.0838 10.7791 47.1876 13 44.0273 13ZM44.0273 10.8365C45.5877 10.8365 46.4766 9.59205 46.4766 8.13697C46.4766 6.70103 45.5877 5.45655 44.0273 5.45655C42.4669 5.45655 41.5978 6.70103 41.5978 8.13697C41.5978 9.59205 42.4669 10.8365 44.0273 10.8365ZM53.449 9.80265C53.8638 10.3962 54.7922 10.8365 55.602 10.8365C57.0637 10.8365 58.0315 9.76436 58.0315 8.15611C58.0315 6.54786 57.0637 5.45655 55.602 5.45655C54.7922 5.45655 53.8638 5.91605 53.449 6.52872V9.80265ZM53.449 12.7702H50.9405V0H53.449V4.70987C54.1996 3.77172 55.2662 3.29308 56.3921 3.29308C58.8216 3.29308 60.619 5.13107 60.619 8.15611C60.619 11.2386 58.8018 13 56.3921 13C55.2465 13 54.1996 12.5022 53.449 11.5832V12.7702ZM70.7518 12.7702H68.2433V11.813C67.5915 12.5596 66.4656 13 65.2213 13C63.7004 13 61.9029 12.0044 61.9029 9.93667C61.9029 7.7732 63.7004 6.94993 65.2213 6.94993C66.4854 6.94993 67.6113 7.35199 68.2433 8.07953V6.83505C68.2433 5.89691 67.4137 5.28424 66.1496 5.28424C65.1225 5.28424 64.1744 5.64801 63.3646 6.37555L62.4165 4.74816C63.5818 3.75258 65.083 3.29308 66.5842 3.29308C68.7569 3.29308 70.7518 4.13549 70.7518 6.79676V12.7702ZM66.2286 11.3535C67.0385 11.3535 67.8285 11.0854 68.2433 10.5493V9.40059C67.8285 8.86451 67.0385 8.59647 66.2286 8.59647C65.241 8.59647 64.4312 9.09426 64.4312 9.99411C64.4312 10.8557 65.241 11.3535 66.2286 11.3535ZM82.1883 12.7702V6.24153C82.1883 4.44183 81.1809 3.29308 79.0872 3.29308C77.5268 3.29308 76.3614 4.02062 75.7491 4.72901V3.52283H73.2406V12.7702H75.7491V6.54786C76.1639 5.99264 76.9342 5.45655 77.9218 5.45655C78.9884 5.45655 79.6798 5.89691 79.6798 7.17968V12.7702H82.1883ZM94 12.7702L90.1088 7.71576L93.8815 3.52283H90.8002L87.1855 7.63918V0H84.677V12.7702H87.1855V10.3962L88.3312 9.20913L90.8594 12.7702H94Z" fill="white"/>
</svg>
