<svg width="44" height="40" viewBox="0 0 44 40" fill="none" xmlns="http://www.w3.org/2000/svg">
<path fill-rule="evenodd" clip-rule="evenodd" d="M20.5452 4.97929C20.5756 5.01396 20.6081 5.04863 20.6449 5.08113L23.999 7.97804C24.0272 8.00187 24.0553 8.02354 24.0835 8.04304L24.0922 8.04737C24.2482 8.15354 24.4302 8.20771 24.6209 8.20771C24.9285 8.20771 25.208 8.06471 25.3879 7.8177C25.6739 7.42336 25.6175 6.87951 25.2535 6.5545L21.9623 3.60125C21.7889 3.44525 21.5636 3.35858 21.3296 3.35858C21.0934 3.35858 20.8659 3.44742 20.6904 3.60775L20.6297 3.66192C20.2527 4.00643 20.2159 4.57845 20.5431 4.96846L20.5452 4.97929Z" fill="white"/>
<path fill-rule="evenodd" clip-rule="evenodd" d="M18.7093 2.10606C18.7375 2.10606 18.7656 2.10606 18.7938 2.10172C19.0733 2.08006 19.329 1.94789 19.511 1.73555C19.693 1.52321 19.7818 1.24803 19.758 0.968526C19.7168 0.424678 19.2575 0 18.7136 0C18.6855 0 18.6573 0 18.627 0.00433345C18.0484 0.0498347 17.6151 0.559015 17.6628 1.13753C17.7061 1.67921 18.1654 2.10606 18.7093 2.10606Z" fill="white"/>
<path fill-rule="evenodd" clip-rule="evenodd" d="M20.2418 15.4053C20.0815 15.4183 19.9363 15.492 19.8323 15.6155C19.7283 15.739 19.6785 15.8928 19.6915 16.0532C19.7153 16.363 19.9797 16.6057 20.2895 16.6057C20.3068 16.6057 20.322 16.6057 20.3393 16.6035C20.6708 16.5775 20.9178 16.2872 20.8918 15.9557C20.8658 15.6458 20.6037 15.4031 20.2938 15.4031C20.2743 15.4031 20.2592 15.4031 20.2418 15.4053Z" fill="white"/>
<path fill-rule="evenodd" clip-rule="evenodd" d="M25.5301 4.8383C25.5323 4.8383 25.5323 4.8383 25.5301 4.8383C25.554 4.8383 25.58 4.8383 25.6038 4.83613C25.8443 4.81663 26.0631 4.70396 26.2191 4.52196C26.3752 4.33995 26.451 4.10378 26.4315 3.86327C26.3947 3.39743 25.9981 3.03125 25.5323 3.03125C25.5085 3.03125 25.4825 3.03125 25.4586 3.03342C25.2181 3.05292 24.9993 3.16559 24.8433 3.34759C24.6873 3.53176 24.6114 3.76577 24.6309 4.00628C24.6699 4.47212 25.0643 4.8383 25.5301 4.8383Z" fill="white"/>
<path fill-rule="evenodd" clip-rule="evenodd" d="M20.2979 11.1198C20.2697 10.3571 19.8754 9.68321 19.3748 9.54021L19.351 9.53371C19.2925 9.51854 19.234 9.51204 19.1777 9.51204H19.1257L19.0932 9.50987H19.0715C19.039 9.50771 18.9935 9.50771 18.935 9.50771C18.7227 9.50771 18.4042 9.52504 18.077 9.60738C18.0575 9.61604 18.0141 9.63554 17.9556 9.66805L17.947 9.67671L17.9166 9.69188L17.8928 9.70705L17.8798 9.71138C17.7845 9.76121 17.5765 9.88472 17.3923 10.1404C17.3771 10.1621 17.362 10.1837 17.3511 10.2011L17.3295 10.2379C17.193 10.4697 17.1215 10.7449 17.1085 11.0569C14.9916 9.38204 12.606 8.58035 11.7805 8.33984L11.7761 8.35284C11.9451 8.57602 12.4045 9.11553 13.2864 9.71788L13.6677 9.97789L13.295 10.2487L12.2073 11.0851L8.51739 17.9254L8.24872 17.8214C7.6832 17.6004 7.21952 17.4553 6.94002 17.3729L6.93568 17.3859C7.04619 17.5333 7.28236 17.8171 7.67887 18.1616L7.86954 18.3284L0 33.7534C0.0953359 33.9939 0.327175 34.5334 0.656517 35.0079L0.76702 35.1682L0.346676 35.9937L0.764854 36.2061L1.1852 35.3806L1.42354 35.4261C1.4322 35.4282 2.32706 35.5886 2.91424 35.2874L11.423 20.2525L11.6786 20.3413C12.2485 20.5407 12.6255 20.6187 12.8183 20.649L12.8638 20.5927C12.4912 20.2568 12.0817 19.9318 11.644 19.6241L11.41 19.4595L15.0587 12.5281L15.2039 10.7796L15.6199 10.9572C16.2721 11.2368 16.7704 11.3993 17.128 11.4968C17.18 11.8239 17.3035 12.1121 17.5028 12.3483L17.5851 12.448C17.8386 12.7145 18.1441 12.8315 18.2178 12.8575C18.272 12.864 18.4172 12.8813 18.6078 12.8813C18.7617 12.8813 18.9112 12.8705 19.0477 12.8488L19.1192 12.8358C19.169 12.8271 19.1972 12.8185 19.2015 12.8185L19.234 12.8098L19.2687 12.8076C19.312 12.8055 19.3575 12.799 19.429 12.7816L19.4507 12.7773L19.5048 12.7556C19.9945 12.5606 20.326 11.8738 20.2979 11.1198Z" fill="white"/>
<path fill-rule="evenodd" clip-rule="evenodd" d="M29.0122 4.54124C29.0404 4.54124 29.0686 4.54124 29.0989 4.5369C29.3784 4.51524 29.6341 4.38307 29.8161 4.17073C29.9981 3.95622 30.0869 3.68321 30.0631 3.40371C30.0198 2.85986 29.5583 2.43518 29.0166 2.43518C28.9884 2.43518 28.9602 2.43518 28.9299 2.43951C28.6504 2.46118 28.3947 2.59335 28.2127 2.80569C28.0307 3.0202 27.9419 3.29104 27.9657 3.57271C28.0069 4.11439 28.4684 4.54124 29.0122 4.54124Z" fill="white"/>
<path fill-rule="evenodd" clip-rule="evenodd" d="M43.9959 25.9578C43.8702 25.3078 42.8909 24.8549 42.8345 24.4151C42.8302 24.3891 42.8302 24.3588 42.8345 24.3328C42.8952 23.9276 43.4542 23.6567 43.6752 23.1021C43.7099 23.0219 43.7337 22.9331 43.751 22.8377C43.8702 22.0967 43.595 18.3829 43.4369 18.1554C43.2809 17.9279 43.2094 17.9062 43.2094 17.9062C43.2094 17.9062 43.1379 17.9063 42.919 18.0774C42.7023 18.2486 41.333 21.7132 41.2268 22.4564C41.2138 22.5517 41.2116 22.6405 41.2181 22.7272C41.2181 22.7272 41.2181 22.7294 41.2203 22.7315C41.2658 23.3252 41.7187 23.7521 41.6558 24.1572C41.6537 24.1724 41.6493 24.1876 41.645 24.2006C41.5063 24.6318 40.3861 24.7639 40.0633 25.3619C39.8163 25.8213 38.6289 35.045 38.6289 35.045C38.6289 35.045 39.2139 35.6561 40.4793 35.8489C40.7913 35.8966 41.0665 35.9096 41.3048 35.9009C41.3048 35.9009 41.307 35.9009 41.3113 35.9009C42.0848 35.8749 42.4835 35.6322 42.4835 35.6322C42.4835 35.6322 43.0902 32.2088 43.5344 29.4159C43.8182 27.6522 44.0349 26.155 43.9959 25.9578Z" fill="white"/>
<path fill-rule="evenodd" clip-rule="evenodd" d="M38.1696 14.2286L37.5824 13.9686L37.8338 13.3792L38.1956 12.5342L38.3971 12.064L38.902 12.1485C39.1208 12.1854 39.3396 12.22 39.5585 12.2547L39.981 11.0652C39.929 11.0392 39.8727 11.011 39.812 10.9828L39.1511 10.6621L39.0905 10.6513L39.0276 10.6253L39.019 10.6231L39.0103 10.6188L37.1946 9.81496C35.537 9.30578 34.003 8.96994 32.8156 8.7511L30.3759 8.62543C30.3499 8.62326 30.3239 8.62326 30.2979 8.62109L30.0877 9.77812C30.2437 9.83879 30.4366 9.91246 30.6619 9.99696L31.0801 10.1508L31.0888 10.595L31.1061 11.5267L31.1191 12.2634L30.3867 12.1854C30.2957 12.1745 30.2026 12.1702 30.1137 12.1702C28.8115 12.1702 28.1377 13.247 27.9925 13.5092L26.6816 19.1839C27.8625 19.2857 29.1604 19.4699 30.4886 19.7906L30.8049 19.8664L30.6576 20.4687C30.7529 20.4969 30.8504 20.5251 30.9479 20.5532L31.2318 20.6399L30.7117 23.1555L30.5297 23.2118C30.5037 23.2205 30.2957 23.2812 29.8451 23.3418L29.8364 23.4718C31.2361 24.7849 31.3964 26.4662 31.4029 26.5399L31.4051 26.5702L31.3336 27.2853L31.3726 27.2636L30.7941 32.8819C31.0779 32.9426 31.3553 32.9989 31.6261 33.0466L31.6369 33.0487L31.6478 33.0509C32.8265 33.3088 33.7625 33.3629 34.341 33.3629C34.4298 33.3629 34.51 33.3608 34.5815 33.3608L39.539 16.5275C39.565 16.261 39.5932 14.8591 38.1696 14.2286Z" fill="white"/>
<path fill-rule="evenodd" clip-rule="evenodd" d="M15.8473 19.9466L15.6956 19.8903L15.4313 19.0041L15.674 18.8806C15.8971 18.7679 16.0553 18.6769 16.1571 18.6141L15.9491 17.2989C15.8711 17.3054 15.7953 17.3141 15.7173 17.3206L15.401 17.3509L15.3381 16.8265C14.6404 16.9262 13.9644 17.0627 13.3252 17.2187L12.2527 19.2554C12.7164 19.5956 13.1476 19.9553 13.5376 20.3236L13.7564 20.5316L13.1064 21.3182L12.9461 21.3117C12.9006 21.3095 12.5106 21.2878 11.7262 21.0343L9.1543 25.5779L13.1064 37.7939C13.5787 37.8654 15.0565 37.9803 17.4919 37.2522C18.0314 37.0919 18.5015 36.9272 18.9197 36.7647L19.2707 26.8216L17.8884 21.7103C17.7952 21.5413 17.1647 20.4406 15.8473 19.9466Z" fill="white"/>
<path fill-rule="evenodd" clip-rule="evenodd" d="M25.8687 14.142L25.8492 14.1442C25.7452 14.1528 25.6455 14.1745 25.5523 14.207L25.5177 14.22L25.4808 14.2287H25.4765L25.4678 14.2308C25.457 14.233 25.4483 14.2352 25.4397 14.2373L25.4353 14.2395L25.4072 14.2482C25.2057 14.3023 24.5015 14.5125 23.8428 14.922C23.8146 14.9459 23.7431 15.0109 23.6565 15.1127L23.6348 15.1365L23.611 15.1582C23.481 15.2795 23.1646 15.624 23.0064 16.1766C22.9913 16.2286 22.9826 16.2611 22.9761 16.2871L22.9739 16.2957L22.9718 16.3044C22.8526 16.8266 22.9068 17.4051 23.13 18.0248C23.2773 18.4343 23.4788 18.7831 23.7323 19.0735C24.3932 19.0648 25.171 19.0778 26.0312 19.132L27.0777 14.5948C26.718 14.3067 26.3259 14.1398 25.9467 14.1398C25.9185 14.1398 25.8947 14.1398 25.8687 14.142Z" fill="white"/>
<path fill-rule="evenodd" clip-rule="evenodd" d="M29.2876 23.8487L29.1662 23.7425L29.2377 22.7545L29.5086 22.7263C29.8098 22.6938 30.0243 22.6592 30.1586 22.631L30.4771 21.0905C30.3796 21.0623 30.2821 21.0363 30.1846 21.0103L29.8769 20.928L30.0199 20.3473C26.4535 19.5456 23.0734 19.7168 21.9771 19.8056L22.1092 20.3278L21.7344 20.3668C21.5264 20.3885 21.3552 20.4101 21.2252 20.4275L21.262 22.0027C21.366 22.0417 21.522 22.0937 21.7387 22.1543L21.9966 22.2258L21.9251 23.2247L21.7907 23.3135C20.4387 24.1932 20.0097 25.5821 19.9512 25.7944L19.5352 37.7786C19.9815 38.0321 21.5069 38.7709 24.4341 38.9811C27.5802 39.2065 29.1164 38.7081 29.5649 38.5239L29.6234 37.9389L30.6028 28.4357L30.5681 28.4552L30.7545 26.5766C30.7263 26.3556 30.5009 24.9147 29.2876 23.8487Z" fill="white"/>
</svg>
