<svg width="120" height="22" viewBox="0 0 120 22" fill="none" xmlns="http://www.w3.org/2000/svg">
<path d="M22.7475 17.3664H19.7871V6.94653H30.4416V17.3664H27.4812V8.97135H22.7475V17.3664Z" fill="white"/>
<path d="M34.4748 13.5671C34.4748 11.4513 35.7838 11.0342 36.6057 11.0342C37.4124 11.0342 38.7214 11.4513 38.7214 13.5671C38.7214 14.8791 38.1658 16.1303 36.6057 16.1303C35.0075 16.1303 34.4748 14.8791 34.4748 13.5671ZM31.8721 9.80563V20.1193H34.5966V16.5854C35.5098 17.5712 37.0014 17.6471 37.3591 17.6471C39.9543 17.6471 41.5524 15.9938 41.5524 13.5974C41.5524 11.0948 39.9771 9.51746 37.4124 9.51746C36.7655 9.51746 35.5098 9.62363 34.4748 10.7081H34.4215L34.4368 9.79805H31.8721V9.80563Z" fill="white"/>
<path d="M48.3105 16.4564C47.306 17.3967 46.3395 17.647 45.2588 17.647C42.3212 17.647 42.207 15.4477 42.207 14.5377V9.80556H44.9315V14.1813C44.9315 15.6828 45.449 16.1303 46.4536 16.1303C48.1735 16.1303 48.2953 14.5984 48.2953 14.0448V9.79797H51.0198V17.3588H48.2953V16.4564H48.3105Z" fill="white"/>
<path d="M54.9472 11.3223H56.416C57.1846 11.3223 57.8467 11.4436 57.8467 12.0655C57.8467 12.748 56.8117 12.7631 56.3551 12.7631H54.9472V11.3223ZM52.2227 9.80554V17.3664H57.6336C59.6047 17.3664 60.9669 16.9796 60.9669 15.4326C60.9669 14.2419 60.3048 13.7187 58.798 13.4532V13.4077C59.7873 13.2788 60.6473 12.6646 60.6473 11.6408C60.6473 9.80554 58.4936 9.80554 57.6564 9.80554H52.2227ZM54.9472 14.1813H56.6138C57.9076 14.1813 58.174 14.568 58.174 15.0761C58.174 15.4022 57.9989 15.8497 56.6519 15.8497H54.9472V14.1813Z" fill="white"/>
<path d="M67.5651 14.242C67.5651 15.7588 66.2409 16.1303 65.5788 16.1303C65.0766 16.1303 64.1785 15.9711 64.1785 15.2507C64.1785 14.4013 65.1983 14.2345 65.7767 14.1586C66.8345 14.0069 66.7432 14.0524 67.5651 13.7567V14.242ZM64.4068 12.2475C64.4068 11.1328 65.5865 11.0418 66.0735 11.0418C66.3779 11.0418 67.5043 11.0569 67.5423 12.0352C67.5423 12.111 67.5423 12.1717 67.5423 12.2475C67.489 12.9907 66.7661 12.8391 64.7645 13.0969C63.1131 13.3168 61.3779 13.7339 61.3779 15.463C61.3779 16.0848 61.6519 17.6471 64.5514 17.6471C65.6626 17.6471 66.8802 17.3665 67.6032 16.6233H67.6565L67.8924 17.3665H70.7615V17.23C70.244 17.1238 70.2059 16.6157 70.2288 15.7967L70.282 12.3461C70.2973 11.4664 70.2135 9.51746 66.104 9.51746C65.1222 9.51746 61.9487 9.60846 61.8193 12.2475H64.4068Z" fill="white"/>
<path d="M70.5781 11.3223V9.80554H79.3224V11.3223H76.3087V17.3664H73.5842V11.3223H70.5781Z" fill="white"/>
<path d="M82.8005 12.839H85.2586C85.974 12.839 87.4123 12.9148 87.4123 14.1661C87.4123 15.152 86.3697 15.3416 85.2053 15.3416H82.8005V12.839ZM82.8005 8.97135H89.5965V6.94653H79.8477V17.3664H85.837C88.7442 17.3664 90.6087 16.3578 90.6087 14.2268C90.6087 10.89 86.8796 10.8142 85.837 10.8142H82.8081V8.97135H82.8005Z" fill="white"/>
<path d="M97.3064 14.242C97.3064 15.7588 95.9822 16.1303 95.3201 16.1303C94.8178 16.1303 93.9197 15.9711 93.9197 15.2507C93.9197 14.4013 94.9395 14.2345 95.5179 14.1586C96.5758 14.0069 96.4844 14.0524 97.314 13.7567V14.242H97.3064ZM94.1481 12.2475C94.1481 11.1328 95.3277 11.0418 95.8147 11.0418C96.1191 11.0418 97.2531 11.0569 97.2835 12.0352C97.2835 12.111 97.2835 12.1717 97.2835 12.2475C97.2303 12.9907 96.5149 12.8391 94.5057 13.0969C92.8543 13.3168 91.1191 13.7339 91.1191 15.463C91.1191 16.0848 91.3855 17.6471 94.2927 17.6471C95.4038 17.6471 96.6214 17.3665 97.3368 16.6233H97.3901L97.626 17.3665H100.495V17.23C99.9776 17.1238 99.9395 16.6157 99.9548 15.7967L100.008 12.3461C100.023 11.4664 99.9395 9.51746 95.8299 9.51746C94.8482 9.51746 91.6747 9.60846 91.5453 12.2475H94.1481Z" fill="white"/>
<path d="M103.904 17.3664H101.18V9.80554H103.904V12.6494H107.184V9.80554H109.909V17.3664H107.184V14.1661H103.904V17.3664Z" fill="white"/>
<path d="M116.788 9.80554H119.825L116.073 13.3471L120 17.3664H116.811L113.866 14.0599H113.812V17.3664H111.088V9.80554H113.812V12.839H113.866L116.788 9.80554Z" fill="white"/>
<path d="M0 17.3891H6.82648V10.5942H0V17.3891Z" fill="#3F3F3F"/>
<path d="M0.0078125 0V8.46329H1.81147C6.56032 8.46329 8.97281 10.8673 8.97281 15.5994V17.3968H17.466V0H0.0078125ZM13.8587 3.59462C13.8587 5.90762 13.8587 11.4816 13.8587 13.7946C13.2118 13.7946 13.0976 13.7946 12.466 13.7946C11.8647 8.75147 8.68361 5.58152 3.61512 4.98242C3.61512 4.35298 3.61512 4.23923 3.61512 3.59462C5.93628 3.59462 11.5375 3.59462 13.8587 3.59462Z" fill="white"/>
</svg>
