<svg width="66" height="27" viewBox="0 0 66 27" fill="none" xmlns="http://www.w3.org/2000/svg">
<path fill-rule="evenodd" clip-rule="evenodd" d="M54.4932 0.824893L61.162 0.503506C61.1882 0.502842 61.2286 0.501415 61.2811 0.499555C62.0762 0.471433 65.6688 0.34436 65.6185 1.25877C65.6185 1.4141 65.6132 1.54801 65.6132 1.54801C65.6107 1.55538 65.6094 1.56275 65.6082 1.56961L65.6081 1.5697L65.6081 1.56979C65.6067 1.57781 65.6053 1.58511 65.6025 1.59087C65.4953 2.01938 64.9383 2.01938 63.0742 2.01938L54.611 1.54266L54.6914 2.22293L54.6646 2.24971C54.5798 2.34346 54.5135 2.41861 54.4473 2.49377L54.4075 2.53896C54.3807 2.56574 54.3539 2.59788 54.3271 2.63002H55.6127V2.94069C56.1269 3.02104 56.5179 3.16566 56.4965 3.42813C56.4965 3.54597 56.4911 3.64774 56.4911 3.64774C56.4911 3.6531 56.4898 3.65846 56.4885 3.66381C56.4871 3.66917 56.4858 3.67453 56.4858 3.67988C56.4322 3.90485 56.2073 3.96913 55.6127 3.99056V4.02269H56.1965C56.7965 4.87973 57.1607 6.00458 57.1607 7.24192C57.1607 9.92015 55.4574 12.0949 53.3576 12.0949C52.0078 12.0949 50.824 11.195 50.1491 9.84516C50.0849 9.87992 50.0221 9.91469 49.9592 9.94946L49.959 9.94959C49.896 9.98441 49.8331 10.0192 49.7688 10.0541L49.6081 10.1344C49.5599 10.2148 49.5117 10.2844 49.4581 10.3594C49.3671 10.4826 49.276 10.5951 49.1796 10.7022C48.9707 10.9218 48.735 11.1039 48.4833 11.2432C48.344 11.3182 48.194 11.3771 48.044 11.4253C47.8351 11.4896 47.6102 11.5271 47.3852 11.5271C47.2727 11.5271 47.1602 11.5164 47.0477 11.5003C47.0317 11.4976 47.0156 11.4936 46.9995 11.4896C46.9835 11.4856 46.9674 11.4816 46.9513 11.4789C46.9138 11.4735 46.8763 11.4682 46.8442 11.4574C46.8412 11.459 46.8386 11.46 46.8362 11.4609C46.83 11.4632 46.8251 11.4643 46.8174 11.4682C46.6943 11.5217 46.5711 11.5739 46.448 11.6261L46.4477 11.6262C46.3246 11.6784 46.2014 11.7306 46.0782 11.7842C45.9764 11.827 45.8747 11.8699 45.7675 11.9127C44.873 12.2823 43.941 12.6359 42.9875 12.9465C42.8414 12.9952 42.6936 13.0422 42.5451 13.0894L42.545 13.0894L42.5448 13.0895C42.432 13.1253 42.3187 13.1613 42.2055 13.1983C42.2001 13.2037 42.1948 13.2037 42.1841 13.2037C42.0342 13.2503 41.8802 13.2927 41.7273 13.3349L41.7272 13.335L41.7271 13.335C41.6341 13.3607 41.5414 13.3862 41.4502 13.4126V13.4233L41.4502 13.4235C41.4556 13.5466 41.4609 13.6697 41.4609 13.7929V13.9C41.4609 14.1517 41.4181 14.3928 41.3377 14.6124C41.161 15.1213 40.7967 15.5391 40.3307 15.7962C43.8446 18.0941 44.8194 22.6846 45.0873 24.795C45.5158 24.9343 45.8318 25.336 45.8318 25.8181C45.8318 26.4127 45.3497 26.9001 44.7498 26.9001C44.1552 26.9001 43.6678 26.418 43.6678 25.8181C43.6678 25.4646 43.8392 25.1539 44.1017 24.9557C43.8713 22.9042 42.9393 18.2066 39.1684 16.2836L38.1292 18.0673H36.7366V19.069H35.06V19.535H35.6706V22.3739C35.6706 23.8951 34.4386 25.1218 32.9228 25.1218H32.8692C31.3533 25.1218 30.1213 23.8898 30.1213 22.3739V19.535H30.732V19.0583H29.0554V18.0566H27.6627L26.6236 16.2729C22.8473 18.1959 21.9206 22.8935 21.6903 24.945C21.9528 25.1432 22.1242 25.4539 22.1242 25.8074C22.1242 26.4019 21.6421 26.8894 21.0422 26.8894C20.4476 26.8894 19.9602 26.4073 19.9602 25.8074C19.9602 25.3307 20.2708 24.9289 20.7047 24.7843C20.9725 22.6739 21.9474 18.0834 25.4612 15.7855C24.9952 15.5337 24.631 15.1105 24.4542 14.6017C24.3739 14.3767 24.331 14.141 24.331 13.8893V13.8196V13.7875C24.331 13.6643 24.3364 13.5412 24.3417 13.418L24.3417 13.4179V13.4072C24.2665 13.3859 24.1913 13.3652 24.1163 13.3445L24.1162 13.3445C23.9454 13.2973 23.7753 13.2504 23.6079 13.1983C23.5972 13.1983 23.5918 13.1983 23.5865 13.1929C23.4732 13.156 23.36 13.12 23.2471 13.0841C23.0985 13.0369 22.9506 12.9899 22.8044 12.9412C21.7439 12.5877 20.7101 12.1966 19.7191 11.7788C19.5263 11.6931 19.3227 11.6074 19.1299 11.5271C19.0852 11.5108 19.0436 11.4915 19.0003 11.4714L19.0003 11.4714L18.9585 11.4521C18.921 11.4628 18.8889 11.4682 18.8514 11.4735C18.8192 11.4842 18.7871 11.4896 18.755 11.4949L18.755 11.4949C18.6425 11.511 18.53 11.5217 18.4175 11.5217C18.2247 11.5217 18.0318 11.4949 17.8497 11.4467C17.6676 11.3985 17.4908 11.3289 17.3194 11.2378C17.0677 11.1039 16.832 10.9164 16.6231 10.6968C16.4624 10.5254 16.3231 10.3379 16.1946 10.129C16.1464 10.1023 16.0928 10.0755 16.0393 10.0487L16.0392 10.0487C15.975 10.0139 15.9121 9.97911 15.8492 9.94431L15.849 9.94423C15.7861 9.90942 15.7232 9.87461 15.6589 9.8398C15.5732 10.0112 15.4875 10.1719 15.3857 10.3272C14.6894 11.4092 13.6342 12.0949 12.4504 12.0949C10.3507 12.0949 8.64733 9.92015 8.64733 7.24192C8.64733 7.2071 8.64867 7.17229 8.65001 7.13747L8.65001 7.13739C8.65135 7.1026 8.65269 7.06781 8.65269 7.03302C8.69018 5.87603 9.04907 4.82616 9.61149 4.01734H10.1953V3.9852C9.60078 3.96377 9.37581 3.8995 9.32224 3.67453C9.32224 3.66917 9.32091 3.66381 9.31957 3.65846C9.31823 3.6531 9.31689 3.64774 9.31689 3.64239C9.31689 3.64239 9.31153 3.54061 9.31153 3.42277C9.29011 3.16031 9.68113 3.01568 10.1953 2.93533V2.63002H11.4809C11.4541 2.59788 11.4273 2.56574 11.4005 2.53896C11.3888 2.52551 11.377 2.51154 11.3651 2.49738C11.339 2.46639 11.3121 2.43445 11.2827 2.40505C11.2345 2.34613 11.1809 2.2872 11.1167 2.21757L11.197 1.5373L2.73381 2.01403C0.864408 2.01403 0.312694 2.01403 0.205565 1.58551L0.20226 1.57605C0.198206 1.56474 0.194852 1.55537 0.194852 1.54266C0.194852 1.54266 0.189496 1.4141 0.189496 1.25341C0.119177 0.344284 3.70847 0.471341 4.5048 0.49953C4.5577 0.501403 4.59828 0.502839 4.62464 0.503506L11.2934 0.824893C11.4059 0.348169 11.8773 0 12.4343 0H12.4558C13.0343 0 13.5163 0.374952 13.602 0.873101L22.1509 0.391021C24.0203 0.391021 24.5721 0.391021 24.6792 0.824893L24.6825 0.834358C24.6866 0.845671 24.6899 0.855032 24.6899 0.867745C24.6899 0.867745 24.6953 0.9963 24.6953 1.15699C24.7676 2.09202 20.9688 1.93596 20.3188 1.90926L20.2601 1.9069L13.6985 1.59087L13.7735 2.21757C13.7708 2.22293 13.7668 2.22694 13.7627 2.23096C13.7587 2.23498 13.7547 2.239 13.752 2.24435C13.6181 2.39969 13.5271 2.50146 13.4092 2.63002H14.6948V2.96212L17.5337 3.10138L17.539 3.05318C17.5872 2.6568 17.9622 2.35684 18.4068 2.35684H18.4229C18.6478 2.35684 18.8514 2.43183 19.0067 2.55503C19.162 2.68358 19.2692 2.85499 19.2906 3.05318L19.3013 3.14424L25.638 2.78535C26.8539 2.78535 27.3199 2.78535 27.4699 2.99961C27.4913 3.03175 27.5074 3.06389 27.5235 3.10138C27.5235 3.10674 27.5248 3.1121 27.5261 3.11745C27.5275 3.12281 27.5288 3.12817 27.5288 3.13352C27.5288 3.13352 27.5342 3.2353 27.5342 3.35314C27.5852 4.04757 24.8277 3.93887 24.2961 3.91791L24.2346 3.91557L19.3709 3.67988L19.4138 4.01734L19.3582 4.08092L19.3581 4.08098C19.276 4.17492 19.2148 4.24504 19.1353 4.33337H20.0994V5.49036H20.5333C20.9779 6.13314 21.2511 6.9741 21.2511 7.90076C21.2511 8.12574 21.235 8.33999 21.2029 8.55425C21.8724 8.7203 22.5473 8.87028 23.2169 9.01491L23.323 9.03732C23.4896 9.07255 23.6532 9.10715 23.8168 9.1381C24.3203 9.23988 24.8185 9.33094 25.3166 9.41664C25.3595 9.42467 25.401 9.43137 25.4425 9.43807C25.484 9.44476 25.5255 9.45146 25.5684 9.45949C25.5817 9.44078 25.5951 9.42074 25.6085 9.40069L25.6085 9.40057L25.6086 9.40052C25.6219 9.38045 25.6353 9.36038 25.6487 9.34165C25.7291 9.2131 25.8148 9.0899 25.9058 8.9667C25.9299 8.93724 25.9513 8.90644 25.9728 8.87564C25.9942 8.84484 26.0156 8.81404 26.0397 8.78458C26.0451 8.77922 26.0491 8.77386 26.0531 8.76851C26.0571 8.76315 26.0612 8.7578 26.0665 8.75244C26.1361 8.66138 26.2111 8.57032 26.2861 8.48462C26.3343 8.42034 26.3825 8.36142 26.4361 8.3025C26.4468 8.29178 26.4562 8.27973 26.4656 8.26768C26.4749 8.25563 26.4843 8.24358 26.495 8.23286C26.5272 8.20072 26.558 8.16858 26.5888 8.13644L26.5889 8.1363C26.6197 8.10421 26.6504 8.07212 26.6825 8.04003C26.7019 8.02059 26.7214 8.00056 26.741 7.98034C26.7809 7.93928 26.8216 7.89739 26.8646 7.85791C26.945 7.77757 27.0253 7.70258 27.111 7.62759C27.1666 7.57664 27.2222 7.52969 27.2812 7.47983L27.2813 7.47974L27.3092 7.45618C27.3286 7.43959 27.3479 7.42265 27.3674 7.40562L27.3674 7.40561L27.3675 7.40551C27.4233 7.3566 27.48 7.30703 27.5395 7.26335C27.5476 7.25531 27.5569 7.24862 27.5663 7.24192C27.5757 7.23523 27.5851 7.22853 27.5931 7.2205C27.6252 7.19639 27.6587 7.17363 27.6922 7.15086L27.6922 7.15085C27.7257 7.12809 27.7592 7.10533 27.7913 7.08123L27.7913 7.08122C27.877 7.01694 27.9627 6.95267 28.0538 6.89375C28.0645 6.88572 28.0752 6.87902 28.0859 6.87232C28.0966 6.86563 28.1073 6.85893 28.118 6.8509C28.1475 6.83216 28.1769 6.81475 28.2064 6.79735L28.2064 6.79733C28.2359 6.77992 28.2653 6.76252 28.2948 6.74377C28.3256 6.72529 28.3556 6.70603 28.3854 6.68688C28.4334 6.65608 28.4809 6.62557 28.5305 6.59915C28.5626 6.5804 28.5961 6.56299 28.6296 6.54558C28.6631 6.52817 28.6965 6.51076 28.7287 6.49202C28.7581 6.47596 28.7875 6.46124 28.817 6.44652L28.817 6.44649C28.8465 6.43176 28.876 6.41703 28.9054 6.40096C28.959 6.36882 29.0126 6.34204 29.0715 6.31526C29.1373 6.28233 29.2064 6.25256 29.2737 6.22353L29.3339 6.19741C29.3661 6.1867 29.4036 6.17063 29.4357 6.15456C29.4625 6.13849 29.4893 6.12778 29.5161 6.11707C29.5535 6.101 29.5964 6.08494 29.6392 6.06888L29.6393 6.06886C29.725 6.03672 29.8107 6.00458 29.9017 5.97244C29.9419 5.95907 29.9833 5.94569 30.0248 5.93231L30.0249 5.93227L30.0251 5.93221C30.0666 5.91884 30.108 5.90547 30.1481 5.8921C30.1722 5.88406 30.195 5.87737 30.2178 5.87067L30.2178 5.87066C30.2405 5.86397 30.2633 5.85728 30.2874 5.84924C30.3517 5.82782 30.4213 5.80639 30.4909 5.79032C30.5636 5.76958 30.6384 5.75329 30.7126 5.73715C30.7533 5.72829 30.7939 5.71947 30.8337 5.70998C30.8605 5.70462 30.8873 5.69793 30.9141 5.69123C30.9409 5.68453 30.9677 5.67784 30.9944 5.67248C31.0319 5.66177 31.0641 5.65641 31.1016 5.65106C31.3051 5.61356 31.514 5.58142 31.7229 5.56C32.0175 5.52786 32.3068 5.51179 32.6067 5.51179H33.1799C33.4798 5.51179 33.7744 5.52786 34.0637 5.56C34.069 5.56535 34.0798 5.56535 34.0851 5.56535C34.2887 5.58678 34.4922 5.61892 34.6904 5.65641C34.7091 5.65909 34.7266 5.66311 34.744 5.66712C34.7614 5.67114 34.7788 5.67516 34.7975 5.67784C34.8243 5.68319 34.8497 5.68989 34.8752 5.69659C34.9006 5.70328 34.9261 5.70998 34.9529 5.71533C35.0707 5.73676 35.1885 5.76354 35.301 5.79568C35.3358 5.80639 35.3693 5.81577 35.4028 5.82514C35.4363 5.83451 35.4698 5.84389 35.5046 5.8546C35.526 5.86264 35.5488 5.86933 35.5715 5.87603C35.5943 5.88272 35.6171 5.88942 35.6385 5.89745C35.7242 5.92423 35.8099 5.95102 35.8956 5.98316C35.9866 6.01527 36.0722 6.04739 36.1579 6.0795L36.1581 6.07957C36.1768 6.08761 36.1969 6.0943 36.217 6.101C36.2371 6.10769 36.2572 6.11439 36.2759 6.12242C36.2893 6.12777 36.3026 6.13445 36.316 6.14114L36.3161 6.14117C36.3295 6.14786 36.3429 6.15456 36.3562 6.15992C36.3713 6.16638 36.3864 6.17371 36.4018 6.18121C36.4248 6.19236 36.4485 6.20388 36.4741 6.21348L36.4743 6.21356C36.5599 6.25103 36.6456 6.2885 36.7258 6.32597L36.8865 6.40631C36.9265 6.42297 36.9644 6.44378 37.0028 6.46486C37.0262 6.47767 37.0497 6.49058 37.074 6.50273C37.1811 6.56165 37.2883 6.62057 37.39 6.67949C37.4088 6.69021 37.4262 6.70092 37.4436 6.71163C37.461 6.72234 37.4784 6.73306 37.4972 6.74377C37.5561 6.77591 37.615 6.81341 37.6739 6.8509C37.7007 6.87233 37.7275 6.8884 37.7543 6.90447C37.8399 6.96334 37.9202 7.02222 38.0005 7.0811L38.0007 7.08123C38.0328 7.10531 38.0662 7.12939 38.0997 7.15347L38.0997 7.1535L38.0998 7.15354C38.1333 7.17764 38.1667 7.20175 38.1989 7.22585C38.2203 7.24727 38.2417 7.26333 38.2631 7.27939L38.2631 7.27942C38.3381 7.33834 38.4131 7.39726 38.4881 7.46154C38.5631 7.52046 38.6327 7.57938 38.7024 7.64366C38.7058 7.65057 38.7115 7.65526 38.718 7.66059C38.7216 7.66352 38.7254 7.66664 38.7292 7.67044L38.7292 7.67048C38.756 7.69189 38.7827 7.7133 38.8041 7.73471C38.8282 7.75614 38.851 7.7789 38.8738 7.80167C38.8965 7.82444 38.9193 7.8472 38.9434 7.86863C38.9861 7.90772 39.0264 7.94917 39.0674 7.99142C39.0882 8.01285 39.1093 8.03447 39.1309 8.0561C39.1603 8.08823 39.1911 8.11902 39.2219 8.14981L39.222 8.14984C39.2528 8.18064 39.2836 8.21144 39.313 8.24358L39.313 8.24362C39.3291 8.25966 39.3398 8.27037 39.3505 8.28643C39.3505 8.29179 39.3559 8.29714 39.3612 8.3025C39.4047 8.34596 39.4423 8.39233 39.4806 8.43946C39.4942 8.45624 39.5079 8.47311 39.5219 8.48997C39.5428 8.51504 39.564 8.5401 39.5854 8.56526C39.6461 8.63688 39.7075 8.70926 39.763 8.78458C39.7934 8.82266 39.8212 8.86344 39.8481 8.90308L39.8482 8.90313L39.8482 8.9032L39.8483 8.90339C39.8592 8.91941 39.87 8.93524 39.8808 8.95063C39.9772 9.08454 40.0736 9.22381 40.1647 9.36308L40.229 9.45949C40.2718 9.45146 40.3133 9.44476 40.3548 9.43807C40.3964 9.43137 40.4379 9.42467 40.4807 9.41664C40.9842 9.33094 41.4824 9.23988 41.9805 9.1381C42.0796 9.11668 42.18 9.09659 42.2805 9.07651C42.3809 9.05642 42.4813 9.03633 42.5804 9.01491C43.2554 8.87564 43.9249 8.72566 44.5945 8.55425C44.5623 8.33999 44.5463 8.12574 44.5463 7.90076C44.5463 6.9741 44.8194 6.13314 45.264 5.49036H45.6979V4.33337H46.6621C46.654 4.32534 46.646 4.31597 46.638 4.3066C46.6299 4.29722 46.6219 4.28784 46.6138 4.2798C46.5951 4.26106 46.5777 4.24097 46.5603 4.22088C46.5429 4.2008 46.5255 4.18071 46.5067 4.16196C46.4692 4.11911 46.4264 4.0709 46.3782 4.01734L46.4157 3.68524L41.552 3.92092L41.4961 3.92302C40.9783 3.94299 38.1961 4.0503 38.2524 3.35849C38.2524 3.24065 38.2578 3.13888 38.2578 3.13888C38.2578 3.13352 38.2591 3.12817 38.2605 3.12281C38.2618 3.11745 38.2631 3.1121 38.2631 3.10674C38.2739 3.06389 38.2899 3.03175 38.3114 2.99961C38.4613 2.78535 38.9273 2.78535 40.1433 2.78535L46.4799 3.14424L46.4907 3.05318C46.5389 2.6568 46.9138 2.35684 47.3584 2.35684H47.3745C47.819 2.35684 48.194 2.6568 48.2422 3.05318L48.2476 3.1121L51.0865 2.97283V2.63537H52.372C52.3432 2.60369 52.316 2.57201 52.2894 2.54116C52.2666 2.51464 52.2443 2.48873 52.2221 2.46397C52.1848 2.41994 52.1454 2.37591 52.1012 2.32647L52.101 2.3263L52.1007 2.32596C52.0751 2.29735 52.0479 2.26693 52.0185 2.23364L52.0078 2.22293L52.0828 1.59622L45.5211 1.91225L45.4624 1.91462C44.8125 1.94132 41.0137 2.09738 41.086 1.16235C41.086 1.00701 41.0914 0.873101 41.0914 0.873101C41.0938 0.865732 41.0951 0.858362 41.0964 0.851509C41.0978 0.843419 41.0992 0.83605 41.1021 0.83025C41.2092 0.396377 41.7663 0.396377 43.6303 0.396377L52.1792 0.878458C52.2703 0.374952 52.7523 0 53.3308 0H53.3523C53.9093 0 54.3753 0.348169 54.4932 0.824893ZM16.7409 5.49036V4.33337H17.7104C17.685 4.30449 17.6606 4.27723 17.6364 4.25022C17.5843 4.19206 17.5333 4.13505 17.4748 4.06555C17.4641 4.04948 17.4533 4.03876 17.4373 4.02269L17.4319 4.01734L17.4748 3.64239L14.7001 3.79772V4.01734H15.284C15.6536 4.54227 15.9321 5.17433 16.0928 5.86531C16.1571 5.73676 16.2267 5.6082 16.3071 5.49036H16.7409ZM30.7266 22.5721C30.7266 23.7666 31.6961 24.7361 32.8906 24.7361C34.0851 24.7361 35.0546 23.7666 35.0546 22.5721C35.0546 21.3776 34.0851 20.4081 32.8906 20.4081C31.6961 20.4081 30.7266 21.3776 30.7266 22.5721ZM50.5026 4.01734H51.0865H51.0918V3.79237L48.3172 3.63703L48.3601 4.01198C48.3091 4.07253 48.2657 4.12171 48.2253 4.1674L48.2252 4.16751L48.2246 4.16826C48.1974 4.19905 48.1716 4.22828 48.1458 4.25838L48.1457 4.25845C48.1243 4.28521 48.1029 4.31196 48.0815 4.33337H49.0457V5.49036H49.4796C49.544 5.58495 49.5982 5.68643 49.653 5.78928C49.6665 5.81457 49.6801 5.83994 49.6938 5.86531C49.8545 5.16897 50.133 4.54227 50.5026 4.01734ZM32.3067 22.5937H31.9907C31.9907 22.0955 32.3924 21.6884 32.8959 21.6884V22.0045C32.5692 22.0045 32.3067 22.2669 32.3067 22.5937ZM33.1208 23.1188L33.244 23.408C33.4583 23.3169 33.6243 23.1509 33.7207 22.942L33.4315 22.8134C33.3726 22.9474 33.2601 23.0598 33.1208 23.1188ZM31.2676 22.5711C31.2676 21.6766 31.9908 20.9481 32.8906 20.9481C33.7905 20.9481 34.519 21.6766 34.519 22.5711C34.519 23.4657 33.7905 24.1941 32.8906 24.1941C31.9961 24.1941 31.2676 23.471 31.2676 22.5711ZM31.6587 22.5765C31.6587 23.2568 32.2104 23.8085 32.8906 23.8085C33.5763 23.8085 34.128 23.2514 34.1226 22.5765C34.1226 21.8962 33.5709 21.3445 32.8906 21.3445C32.2104 21.3445 31.6587 21.8962 31.6587 22.5765Z" fill="white"/>
</svg>
